<?xml version="1.0" encoding="UTF-8" standalone="no"?>
<svg xmlns="http://www.w3.org/2000/svg" xmlns:xlink="http://www.w3.org/1999/xlink" xmlns:serif="http://www.serif.com/" width="100%" height="100%" viewBox="0 0 449 449" version="1.1" xml:space="preserve" style="fill-rule:evenodd;clip-rule:evenodd;stroke-linejoin:round;stroke-miterlimit:2;">
  <g>
    <clipPath id="_clip1">
      <path d="M448.594,224.303c-0,123.878 -100.407,224.303 -224.281,224.303c-123.906,0 -224.313,-100.425 -224.313,-224.303c0,-123.878 100.407,-224.303 224.313,-224.303c123.874,0 224.281,100.425 224.281,224.303Z"></path>
    </clipPath>
    <g clip-path="url(#_clip1)">
      <rect x="0" y="0" width="448.594" height="448.603" style="fill:#fff;fill-rule:nonzero;"></rect>
      <path d="M213.625,426.013c-2.562,11.162 -10.625,21.721 -22.187,25.075c-11.563,3.353 -26.032,-2.566 -29.126,-13.613c-1.5,5.141 -7.906,7.841 -13.53,7.25c-5.594,-0.591 -10.532,-3.634 -15.188,-6.659c-12.969,-8.435 -26.063,-18.044 -32.282,-31.685c-6.25,-13.64 -2.937,-32.272 11.032,-39.134c-14.157,-18.172 -19.625,-42.144 -14.656,-64.206c2.437,-10.732 7.468,-21.307 16.281,-28.447c8.844,-7.144 21.906,-10.194 32.469,-5.663c-1,-19.593 0.218,-43.331 18.312,-52.959c6.031,-3.203 13.062,-4.203 19.969,-4.675c19.781,-1.356 43.625,3.866 50.437,21.453c12.219,-13.019 30.438,-22.272 48.688,-19.922c18.25,2.35 34.5,19.11 31.187,36.228c12.156,-8.322 31.469,-2.465 37.906,10.344c6.438,12.806 0.47,29.369 -11.844,37.466c14.376,0.243 25.595,13.753 26.563,27.306c0.969,13.553 -6,26.553 -14.719,37.362c10.031,11.16 10.563,28.96 1.219,40.638c-4.438,5.562 -10.75,9.703 -14.781,15.541c-2.875,4.146 -4.469,8.99 -7.5,13.04c-6.906,9.266 -21.343,12.65 -32.031,7.506c-5.281,15.207 -26.969,22.832 -41.5,14.566c-7.187,6.294 -13.469,7.988 -22.375,4.103c-8.907,-3.884 -19.907,-13.106 -19.531,-22.365l-2.813,-8.55Z" style="fill:#262b44;fill-rule:nonzero;"></path>
      <path d="M340.157,394.531c-20.845,-13.956 -46.032,-19.543 -70.626,-24.484c-1.5,-0.3 -3.062,-0.628 -4.25,-1.572c-2.062,-1.609 2.625,-55.922 -0,-79.669l-35.094,3.288l-35.093,-3.288c-2.625,23.747 2.063,78.06 -0,79.669c-1.219,0.944 -2.781,1.272 -4.281,1.572c-24.594,4.941 -49.781,10.528 -70.626,24.484c-20.812,13.957 -36.625,38.294 -33.249,63.153c20.906,-0.109 84.343,0.269 143.531,1.047l-0,0.128c1.562,-0.021 3.156,-0.043 4.75,-0.065c1.594,0.022 3.156,0.044 4.75,0.065l-0,-0.128c59.156,-0.778 112.531,-1.156 133.469,-1.047c3.343,-24.859 -12.438,-49.196 -33.281,-63.153Z" style="fill:#f0bf85;fill-rule:nonzero;"></path>
    </g>
  </g>
  <clipPath id="_clip2">
    <path d="M448.594,224.303c-0,123.878 -100.407,224.303 -224.281,224.303c-123.906,0 -224.313,-100.425 -224.313,-224.303c0,-123.878 100.407,-224.303 224.313,-224.303c123.874,0 224.281,100.425 224.281,224.303Z"></path>
  </clipPath>
  <g clip-path="url(#_clip2)">
    <clipPath id="_clip3">
      <path d="M340.157,394.531c-20.845,-13.956 -46.032,-19.543 -70.626,-24.484c-1.5,-0.3 -3.031,-0.628 -4.25,-1.572c-2.062,-1.609 2.625,-55.922 -0,-79.669l-35.094,3.285l-35.093,-3.285c-2.625,23.747 2.063,78.06 -0,79.669c-1.219,0.944 -2.781,1.272 -4.281,1.572c-24.594,4.941 -49.781,10.528 -70.626,24.484c-20.812,13.953 -36.625,38.297 -33.249,63.15c20.906,-0.106 84.343,0.272 143.531,1.05l-0,0.128c1.562,-0.018 3.156,-0.043 4.75,-0.062c1.594,0.019 3.156,0.044 4.75,0.062l-0,-0.128c59.156,-0.778 112.531,-1.156 133.469,-1.05c3.343,-24.853 -12.438,-49.197 -33.281,-63.15Z"></path>
    </clipPath>
    <g clip-path="url(#_clip3)">
      <path d="M148.375,288.041c13.843,-8.916 14.407,-13.194 15.094,-8.916c3.25,21.019 36.5,71.65 66.687,71.65c39.094,0 61.781,-65.984 65.438,-82.616c-45.187,6.457 -90.938,12.925 -136.25,7.491c1.249,1.175 2.469,2.347 3.718,3.522l-14.687,8.869Z" style="fill:#d3a06c;fill-rule:nonzero;"></path>
    </g>
  </g>
  <g>
    <clipPath id="_clip4">
      <path d="M448.594,224.303c-0,123.878 -100.407,224.303 -224.281,224.303c-123.906,0 -224.313,-100.425 -224.313,-224.303c0,-123.878 100.407,-224.303 224.313,-224.303c123.874,0 224.281,100.425 224.281,224.303Z"></path>
    </clipPath>
    <g clip-path="url(#_clip4)">
      <path d="M303.969,261.55c-0.407,-5.647 -3.969,-11.272 -9.375,-12.916c-3.562,-1.081 -7.688,0.069 -10.344,2.569c1.781,-30.387 0.812,-77.687 -1.25,-77.862c-31.5,-2.666 -74.25,-9.116 -104.906,-1.388l-0,0.885c-5.875,19.921 -6.407,50.793 -3.875,76.809c-2.469,-1.372 -5.5,-1.838 -8.219,-1.013c-5.407,1.644 -9,7.269 -9.406,12.916c-0.407,5.647 1.906,11.203 5.125,15.847c4.625,6.609 12.218,11.941 20.031,11.872c3.312,10.253 7.969,20.019 14.937,28.165c9.907,11.597 25.188,19.441 40.313,17.385c14.625,-1.991 26.875,-12.853 34.031,-25.775c3.438,-6.225 5.844,-12.897 7.656,-19.775c7.844,0.14 15.531,-5.219 20.157,-11.872c3.25,-4.644 5.531,-10.2 5.125,-15.847Z" style="fill:#f0bf85;fill-rule:nonzero;"></path>
      <path d="M202.594,247.428c-0,3.544 -2.813,6.419 -6.281,6.419c-3.469,-0 -6.282,-2.875 -6.282,-6.419c0,-3.547 2.813,-6.422 6.282,-6.422c3.468,0 6.281,2.875 6.281,6.422Z" style="fill:#1a1a1a;fill-rule:nonzero;"></path>
      <path d="M266.656,247.428c0,3.544 -2.812,6.419 -6.281,6.419c-3.469,-0 -6.281,-2.875 -6.281,-6.419c-0,-3.547 2.812,-6.422 6.281,-6.422c3.469,0 6.281,2.875 6.281,6.422Z" style="fill:#1a1a1a;fill-rule:nonzero;"></path>
      <path d="M217.781,283.719c4.188,11.059 14.25,16.09 21.5,1.112l-21.5,-1.112Z" style="fill:#fff;fill-rule:nonzero;"></path>
      <path d="M215.969,284.222c1.594,4.1 4.031,8.316 8,10.522c3.812,2.122 8,1.44 11.312,-1.244c2.501,-2.012 4.25,-4.878 5.626,-7.716c0.656,-1.309 -0.126,-2.762 -1.626,-2.84c-6.25,-0.325 -12.531,-0.647 -18.781,-0.972c-0.906,-0.047 -1.813,-0.094 -2.719,-0.141c-2.406,-0.125 -2.406,3.653 0,3.775c6.281,0.325 12.531,0.65 18.813,0.975c0.906,0.044 1.781,0.091 2.687,0.138c-0.531,-0.947 -1.062,-1.894 -1.625,-2.841c-1.25,2.544 -2.75,5.2 -5.062,6.953c-0.876,0.682 -1.657,1.075 -2.625,1.316c-0.594,0.141 -0.438,0.122 -1.063,0.137l-0.75,-0.025c-0.313,-0.028 0.063,0.032 -0.344,-0.059c-1.781,-0.387 -3.249,-1.412 -4.593,-2.869c-1.594,-1.743 -2.75,-3.912 -3.594,-6.112c-0.375,-0.95 -1.281,-1.606 -2.344,-1.319c-0.906,0.25 -1.687,1.366 -1.312,2.322Z" style="fill:#a46e4a;fill-rule:nonzero;"></path>
      <path d="M283.063,271.053c0.281,-0.49 0.593,-0.969 0.937,-1.434l0.219,-0.331l0.156,-0.197l0.156,-0.194l0.312,-0.375c0.72,-0.85 1.532,-1.647 2.375,-2.381l0.626,-0.525l0.312,-0.253c-0.312,0.225 0,-0.007 0.063,-0.05c0.469,-0.341 0.937,-0.663 1.406,-0.969c0.969,-0.61 2,-1.138 3.062,-1.591c0.907,-0.394 1.157,-1.797 0.657,-2.584c-0.594,-0.944 -1.594,-1.097 -2.563,-0.675c-4.562,1.965 -8.437,5.425 -11,9.653c-0.499,0.844 -0.187,2.112 0.688,2.581c0.906,0.485 2.031,0.225 2.594,-0.675Z" style="fill:#a46e4a;fill-rule:nonzero;"></path>
      <path d="M285.75,267.669l0.5,0.315l0.187,0.135l0.094,0.065l0.094,0.075l0.25,0.194l0.375,0.366c0.281,0.281 0.563,0.578 0.812,0.887l-0.062,-0.097l0.156,0.241l0.344,0.5c0.188,0.325 0.375,0.656 0.531,1l0.094,0.219c0.188,0.372 -0.094,-0.291 0,-0.066l0.188,0.563c0.125,0.359 0.218,0.728 0.312,1.097l0.094,0.59l-0.032,-0.144l0.032,0.357c0.062,0.984 0.812,1.937 1.875,1.887c0.969,-0.04 1.968,-0.831 1.906,-1.887c-0.281,-3.922 -2.438,-7.557 -5.844,-9.557c-0.875,-0.5 -2.124,-0.225 -2.594,0.675c-0.468,0.907 -0.219,2.05 0.688,2.585Z" style="fill:#a46e4a;fill-rule:nonzero;"></path>
      <path d="M166.563,259.581c2.562,4.282 5.124,8.563 7.718,12.847c0.531,0.872 1.688,1.197 2.563,0.678c0.875,-0.512 1.218,-1.706 0.687,-2.584c-2.562,-4.281 -5.156,-8.566 -7.718,-12.847c-0.532,-0.872 -1.688,-1.197 -2.594,-0.678c-0.875,0.512 -1.187,1.706 -0.656,2.584Z" style="fill:#a46e4a;fill-rule:nonzero;"></path>
      <path d="M166.656,271.653c1.719,-1.281 3.438,-2.565 5.156,-3.847c0.407,-0.306 0.719,-0.615 0.876,-1.128c0.093,-0.45 0.062,-1.053 -0.219,-1.453c-0.25,-0.403 -0.625,-0.759 -1.125,-0.869c-0.438,-0.106 -1.032,-0.106 -1.437,0.191c-1.719,1.281 -3.438,2.562 -5.157,3.847c-0.406,0.303 -0.719,0.615 -0.875,1.125c-0.125,0.453 -0.063,1.056 0.188,1.456c0.281,0.403 0.656,0.756 1.125,0.869c0.468,0.103 1.062,0.106 1.468,-0.191Z" style="fill:#a46e4a;fill-rule:nonzero;"></path>
      <path d="M254,225.266c0.375,-0.178 0.844,-0.35 1.437,-0.516c0.282,-0.081 0.594,-0.147 0.876,-0.203l0.405,-0.072l-0.031,0l0.219,-0.022c1.251,-0.1 2.281,-0.065 3.282,0.144c2.312,0.478 4.156,1.491 5.687,3.216c0.688,0.759 1.969,0.693 2.687,-0c0.75,-0.754 0.656,-1.907 0,-2.669c-4.093,-4.547 -11,-5.725 -16.468,-3.138c-0.906,0.438 -1.156,1.757 -0.657,2.582c0.532,0.943 1.657,1.115 2.563,0.678Z" style="fill:#262b44;fill-rule:nonzero;"></path>
      <path d="M194.344,228.169c1.5,-1.897 3.312,-3.035 5.531,-3.619c0.313,-0.075 0.593,-0.141 0.875,-0.197l0.407,-0.069l-0.032,0l0.219,-0.021c0.594,-0.05 1.187,-0.075 1.781,-0.05l0.5,0.031c0.031,0.006 0.469,0.05 0.156,0.012c0.313,0.038 0.594,0.097 0.875,0.163c0.625,0.137 1.219,0.331 1.813,0.569c0.938,0.381 2.062,-0.419 2.312,-1.319c0.312,-1.081 -0.375,-1.938 -1.313,-2.322c-5.374,-2.178 -12.187,-0.391 -15.812,4.153c-0.624,0.797 -0.781,1.891 0,2.669c0.657,0.659 2.031,0.803 2.688,-0Z" style="fill:#262b44;fill-rule:nonzero;"></path>
      <path d="M136.531,384.753c12.438,10.641 94.875,52.853 94.875,52.853c0,0 81.875,-39.918 94.469,-51.597c40.938,7.044 47.063,55.407 48.688,70.035c-90.344,11.015 -160.751,65.875 -285.125,5.909c-1.907,-0.922 -4.376,-0.415 -5.938,-1.809c-2.219,-2.006 -2.062,-5.425 -1.437,-8.288c12.374,-58.803 54.468,-67.103 54.468,-67.103Z" style="fill:#8ca3c3;fill-rule:nonzero;"></path>
      <path d="M188.844,369.388c9.437,10.637 20.531,23.009 35.469,24.825c12.343,1.496 25.062,-3.419 34.874,-10.65c5.907,-4.363 11.032,-9.754 14.875,-16.029c0.656,-1.037 -0.969,-1.987 -1.625,-0.953c-6.562,10.688 -17.093,19.022 -28.875,23.241c-5.531,1.978 -11.437,3.066 -17.312,2.681c-6.219,-0.406 -11.75,-2.765 -16.875,-6.237c-7.313,-4.972 -13.344,-11.625 -19.187,-18.213c-0.813,-0.912 -2.126,0.428 -1.344,1.335Z" style="fill:#ef6a55;fill-rule:nonzero;"></path>
      <path d="M230.156,274.538c6.438,-4.416 12.594,-9.21 18.438,-14.357c1,-0.89 0.531,-2.912 -0.844,-3.156c-7.062,-1.247 -14.156,-2.497 -21.25,-3.744c0.469,0.607 0.938,1.213 1.375,1.819c-0.063,-6.697 -0.156,-13.397 -0.218,-20.097c-0.032,-2.428 -3.813,-2.434 -3.782,0c0.062,6.7 0.156,13.4 0.25,20.097c-0,0.766 0.562,1.678 1.375,1.822c7.094,1.247 14.156,2.497 21.25,3.744c-0.281,-1.05 -0.562,-2.103 -0.813,-3.153c-5.625,4.937 -11.499,9.531 -17.687,13.765c-1.969,1.366 -0.094,4.641 1.906,3.26Z" style="fill:#a46e4a;fill-rule:nonzero;"></path>
      <path d="M339.656,253.166c8.531,3.412 15.031,11.925 15.844,21.106c0.844,9.447 -3.938,18.959 -11.969,23.978c-1.843,1.153 -0.625,3.903 1.469,3.45c10.344,-2.244 19.844,6.234 23.969,14.991c4.937,10.472 -0.375,21.575 -8.719,28.462c-4.844,3.997 -10.625,6.797 -16.375,9.206c-0.938,0.397 -1.594,1.247 -1.312,2.322c0.218,0.891 1.375,1.713 2.312,1.319c11.406,-4.781 23.031,-11.316 27.906,-23.369c2.344,-5.75 2.594,-12.115 0.282,-17.912c-2.251,-5.591 -5.969,-10.519 -10.813,-14.131c-5.25,-3.935 -11.75,-5.938 -18.281,-4.529c0.5,1.15 0.999,2.3 1.469,3.45c7.187,-4.481 12.281,-12.115 13.562,-20.496c1.281,-8.454 -1.313,-16.875 -6.844,-23.354c-3.125,-3.628 -7.062,-6.365 -11.5,-8.134c-2.25,-0.903 -3.219,2.747 -1,3.641Z" style="fill:#262b44;fill-rule:nonzero;"></path>
      <path d="M154.594,224.747c-11.907,6.209 -18.594,20.162 -16.344,33.341c0.781,-0.775 1.562,-1.547 2.344,-2.322c-13.063,-2.182 -26.625,1.912 -36.5,10.662c-10.219,9.025 -15.125,22.772 -13.688,36.244c0.844,7.719 3.563,15.175 8.219,21.4c0.25,-0.863 0.469,-1.722 0.688,-2.584c-8.188,5.568 -13.157,15.14 -13.25,25.04c-0.094,10.128 5.468,19.381 13.937,24.772c4.719,3 10.219,4.669 15.813,4.697c2.406,0.009 2.437,-3.766 -0,-3.778c-8.688,-0.041 -17.063,-4.71 -21.844,-11.916c-4.844,-7.256 -5.312,-16.512 -1.844,-24.447c1.938,-4.45 5.063,-8.372 9.093,-11.106c0.782,-0.522 1.313,-1.725 0.689,-2.584c-7.532,-10.013 -9.845,-23.363 -6.376,-35.382c3.375,-11.778 12.563,-21.093 24,-25.312c6.375,-2.35 13.313,-3.191 20.031,-2.066c1.5,0.25 2.594,-0.828 2.344,-2.322c-2,-11.55 4.282,-23.7 14.594,-29.078c2.156,-1.122 0.25,-4.381 -1.906,-3.259Z" style="fill:#262b44;fill-rule:nonzero;"></path>
      <path d="M302.25,186.538c-1.219,-5.697 2.156,-51.951 -64.906,-41.254c-2.282,0.363 -4.625,0.835 -6.844,0.082c-1.781,-0.616 -3.344,-2.013 -5,-3.072c-4.594,-2.925 -9.969,-3.247 -15.125,-2.722c-18.125,1.841 -35.406,13.9 -46.062,32.144l0.562,-0.053c-1.719,2.937 -2.906,6.193 -3.781,9.462c-4.719,17.372 -2.594,35.675 -0.438,53.5c0.438,3.744 0.938,7.631 3.062,10.809c2.126,3.182 6.407,5.413 10.126,4.119c3.75,-1.29 5.062,-6.994 1.656,-8.906c5.406,-1.525 9,-6.697 9.938,-11.978c0.937,-5.281 -0.313,-10.678 -1.813,-15.841c7.188,2.506 15.969,0.025 20.563,-5.809c4.562,-5.831 4.562,-14.531 -0.032,-20.36c11.876,7.497 28.438,7.654 40.469,0.382c3.75,5.422 8.782,10.431 15.344,12.272c3.187,0.9 7.968,-0.779 12.374,-3.41c-0.405,5.422 2.532,11.047 7.501,13.816c-4.719,3.065 -7.469,8.706 -6.875,14.119c0.625,5.415 4.594,10.368 9.906,12.403c-3.532,3.634 -6.281,8.393 -5.688,13.297l0.094,0.734c1.312,6.2 9.5,8.462 14.438,4.222l4.625,-3.975l-0.063,-0.666l0.219,0.472l-0.062,0.134l4.187,-3.603c-0,0 6.937,-35.906 1.625,-60.318Z" style="fill:#262b44;fill-rule:nonzero;"></path>
      <path d="M296.375,250.578l0.063,-0.119l-0.094,0.06l0.031,0.059Z" style="fill:#262b44;fill-rule:nonzero;"></path>
      <path d="M132.125,382.463c-4.406,1.621 -5.563,7.29 -5.437,11.981c0.499,16.565 9.031,32.712 22.468,42.415c13.438,9.707 31.438,12.75 47.313,8.004c8.187,-2.447 23.469,-6.844 31.969,-7.354c11.187,-0.668 13.968,5.422 24.906,7.875c15,3.372 30.687,-0.218 45.156,-5.39c12.719,-4.55 25.656,-10.872 33.094,-22.163c7.469,-11.29 7,-28.684 -4.094,-36.381l-98.594,56.156l-96.781,-55.143Z" style="fill:#4f657f;fill-rule:nonzero;"></path>
      <path d="M134.156,434.875l0,20.241c0,2.431 3.781,2.434 3.781,-0l0,-20.241c0,-2.428 -3.781,-2.431 -3.781,0Z" style="fill:#4f657f;fill-rule:nonzero;"></path>
      <path d="M323.281,432.475c-1.343,7.459 -1.562,15.047 -0.593,22.569c0.125,1.009 0.75,1.887 1.875,1.887c0.905,0 2.031,-0.868 1.874,-1.887c-0.906,-7.169 -0.781,-14.45 0.501,-21.566c0.187,-1.003 -0.282,-2.037 -1.313,-2.322c-0.938,-0.253 -2.156,0.31 -2.344,1.319Z" style="fill:#4f657f;fill-rule:nonzero;"></path>
      <path d="M243.562,183c-0.875,4.128 -2.874,7.881 -5.906,10.834c-2.437,2.382 -5.781,4.738 -9.375,4.291c-1.031,-0.131 -2.468,-0.653 -2.5,-1.912c-0.031,-0.96 1,-1.532 1.844,-1.766c3.469,-0.956 4.5,2.725 3.375,5.384c-2.031,4.835 -8.094,5.422 -12.625,5.863c-2.406,0.231 -2.437,4.009 0,3.775c5.875,-0.572 12.875,-1.575 15.781,-7.51c2.25,-4.618 0.719,-11.237 -5.25,-11.434c-4.5,-0.15 -8.968,4.378 -5.906,8.713c3,4.203 9.438,2.843 13.156,0.543c5.626,-3.493 9.688,-9.297 11.032,-15.778c0.5,-2.372 -3.156,-3.384 -3.626,-1.003Z" style="fill:#262b44;fill-rule:nonzero;"></path>
      <path d="M168.344,163.066c17.844,-10.103 39.781,-11.413 59.718,-6.55c19.938,4.859 38.063,15.456 54.345,27.928c6.749,5.159 13.937,10.925 22.406,11.137c13.874,0.353 23.874,-15.412 22.312,-29.212c-1.563,-13.803 -11.063,-25.306 -20.969,-35.031c-10.187,-9.979 -21.406,-19.172 -34.437,-24.954c-21.188,-9.396 -45.313,-9.065 -68.375,-6.9c-4.625,0.438 -9.406,0.985 -13.469,3.263c-4.188,2.347 -7.188,6.312 -9.719,10.384c-5.531,8.875 -9.344,18.807 -11.218,29.094l-0.594,20.841Z" style="fill:#ef6a55;fill-rule:nonzero;"></path>
      <path d="M269.531,112.909c1.782,-5.378 4.594,-13.665 11.437,-13.515c2.22,0.047 4.751,1.015 5.626,3.081c0.469,1.106 0.156,2.766 -0.531,4.069c-0.844,1.631 -1.97,3.106 -3.25,4.425c-2.875,2.969 -6.532,5.015 -10.563,5.959c-2.343,0.556 -1.344,4.197 1.031,3.641c4.407,-1.038 8.5,-3.306 11.75,-6.472c3.063,-2.997 6.407,-7.5 5.375,-12.041c-0.781,-3.45 -4.187,-5.675 -7.5,-6.237c-3.875,-0.657 -7.438,0.534 -10.281,3.253c-3.531,3.412 -5.25,8.278 -6.75,12.834c-0.75,2.313 2.875,3.303 3.656,1.003Z" style="fill:#ef6a55;fill-rule:nonzero;"></path>
      <path d="M171.531,148.625c10.313,0.128 20.688,0.038 30.969,0.65c9.25,0.55 18.531,1.803 27.219,5.122c4.844,1.844 9.437,4.434 13.406,7.753c1.843,1.544 4.531,-1.112 2.656,-2.672c-15.218,-12.697 -35.844,-14.059 -54.843,-14.381c-6.469,-0.11 -12.938,-0.166 -19.407,-0.247c-2.437,-0.031 -2.437,3.744 -0,3.775Z" style="fill:#a3362b;fill-rule:nonzero;"></path>
      <path d="M198.469,105.622c-8.157,0.14 -15.219,6.884 -15.969,14.975c-0.093,1.019 0.937,1.887 1.875,1.887c1.094,0 1.781,-0.868 1.875,-1.887c0.063,-0.534 0.219,-1.419 0.469,-2.213c0.281,-0.853 0.406,-1.146 0.781,-1.915c0.813,-1.522 1.594,-2.516 2.843,-3.688c2.22,-2.047 5.188,-3.334 8.126,-3.384c1.031,-0.019 1.906,-0.856 1.906,-1.888c0,-1.009 -0.875,-1.906 -1.906,-1.887Z" style="fill:#a3362b;fill-rule:nonzero;"></path>
      <path d="M311.282,150.516c5.718,4.728 8.374,12.568 6.53,19.787c-0.624,2.356 3.032,3.36 3.626,1.006c2.187,-8.431 -0.75,-17.896 -7.501,-23.465c-0.781,-0.647 -1.905,-0.769 -2.655,-0c-0.657,0.669 -0.782,2.019 -0,2.672Z" style="fill:#a3362b;fill-rule:nonzero;"></path>
    </g>
  </g>
</svg>
