<?xml version="1.0" encoding="UTF-8" standalone="no"?>
<svg xmlns="http://www.w3.org/2000/svg" xmlns:xlink="http://www.w3.org/1999/xlink" xmlns:serif="http://www.serif.com/" width="100%" height="100%" viewBox="0 0 449 449" version="1.1" xml:space="preserve" style="fill-rule:evenodd;clip-rule:evenodd;stroke-linejoin:round;stroke-miterlimit:2;">
  <clipPath id="_clip1">
    <path d="M448.625,224.303c0,123.878 -100.437,224.3 -224.312,224.3c-123.875,0 -224.313,-100.422 -224.313,-224.3c0,-123.878 100.438,-224.303 224.313,-224.303c123.875,0 224.312,100.425 224.312,224.303Z"></path>
  </clipPath>
  <g clip-path="url(#_clip1)">
    <path d="M448.625,224.303c0,123.878 -100.437,224.3 -224.312,224.3c-123.875,0 -224.313,-100.422 -224.313,-224.3c0,-123.878 100.438,-224.303 224.313,-224.303c123.875,0 224.312,100.425 224.312,224.303Z" style="fill:#fff;fill-rule:nonzero;"></path>
    <clipPath id="_clip2">
      <path d="M448.625,224.303c0,123.878 -100.437,224.3 -224.312,224.3c-123.875,0 -224.313,-100.422 -224.313,-224.3c0,-123.878 100.438,-224.303 224.313,-224.303c123.875,0 224.312,100.425 224.312,224.303Z" clip-rule="nonzero"></path>
    </clipPath>
    <g clip-path="url(#_clip2)">
      <path d="M206.719,405.141c-3.25,15.4 -13.5,29.965 -28.187,34.59c-14.688,4.625 -33.032,-3.537 -36.938,-18.778c-1.907,7.094 -10.062,10.819 -17.188,10.003c-7.125,-0.815 -13.406,-5.012 -19.312,-9.187c-16.437,-11.632 -33.063,-24.891 -40.969,-43.707c-7.938,-18.815 -3.719,-44.512 14,-53.981c-17.969,-25.065 -24.906,-58.134 -18.594,-88.565c3.063,-14.807 9.469,-29.391 20.688,-39.244c11.187,-9.853 27.781,-14.063 41.219,-7.81c-1.312,-27.028 0.25,-59.768 23.25,-73.049c7.624,-4.422 16.562,-5.801 25.344,-6.451c25.094,-1.868 55.375,5.332 64,29.591c15.531,-17.956 38.656,-30.722 61.844,-27.481c23.187,3.24 43.811,26.362 39.593,49.975c15.437,-11.478 39.969,-3.4 48.125,14.268c8.156,17.666 0.594,40.513 -15.031,51.682c18.25,0.334 32.5,18.969 33.749,37.665c1.22,18.697 -7.656,36.629 -18.718,51.538c12.75,15.394 13.437,39.947 1.562,56.059c-5.655,7.672 -13.656,13.382 -18.781,21.435c-3.625,5.718 -5.687,12.403 -9.531,17.987c-8.75,12.781 -27.094,17.45 -40.687,10.356c-6.657,20.975 -34.22,31.491 -52.657,20.091c-9.125,8.681 -17.093,11.016 -28.406,5.659c-11.312,-5.356 -25.281,-18.081 -24.781,-30.853l-3.594,-11.793Z" style="fill:#262b44;fill-rule:nonzero;"></path>
      <path d="M332.094,337.162c-27.375,-13.468 -55.625,-24.237 -57.188,-25.146c-2.718,-1.557 3.438,-29.304 0,-52.219l-46.094,3.172l-46.093,-3.172c-3.437,22.915 2.719,50.662 -0,52.219c-1.563,0.909 -29.843,11.678 -57.187,25.146c-27.375,13.469 -48.094,36.96 -43.688,60.95c27.468,-0.103 69.656,0.263 147.344,1.013l-0,0.122c2.062,-0.019 4.156,-0.041 6.218,-0.063c2.094,0.022 4.157,0.044 6.25,0.063l0,-0.122c77.688,-0.75 101.751,-1.353 129.22,-1.247c4.406,-23.991 -11.438,-47.247 -38.782,-60.716Z" style="fill:#f0bf85;fill-rule:nonzero;"></path>
      <clipPath id="_clip3">
        <path d="M332.094,337.162c-27.375,-13.468 -55.625,-24.237 -57.188,-25.146c-2.718,-1.554 3.438,-29.304 0,-52.222l-46.094,3.172l-46.093,-3.172c-3.437,22.918 2.719,50.668 -0,52.222c-1.594,0.909 -29.843,11.678 -57.187,25.146c-27.375,13.469 -48.094,36.96 -43.688,60.95c27.468,-0.106 69.656,0.263 147.344,1.01l-0,0.128c2.062,-0.022 4.156,-0.044 6.218,-0.063c2.094,0.019 4.157,0.041 6.25,0.063l0,-0.128c77.688,-0.747 106.656,-1.116 134.125,-1.01c4.407,-23.99 -16.343,-47.481 -43.687,-60.95Z"></path>
      </clipPath>
      <g clip-path="url(#_clip3)">
        <path d="M121.375,259.056c18.188,-8.603 18.969,-12.731 19.844,-8.603c4.281,20.284 47.906,69.153 87.562,69.153c51.313,0 81.094,-63.687 85.906,-79.737c-59.312,6.231 -119.406,12.475 -178.906,7.228c1.656,1.134 3.281,2.269 4.907,3.4l-19.313,8.559Z" style="fill:#d3a06c;fill-rule:nonzero;"></path>
      </g>
      <path d="M308.531,230.109c-0.437,-6.15 -4.312,-12.275 -10.219,-14.068c-3.875,-1.176 -8.374,0.078 -11.249,2.8c1.937,-33.097 0.875,-84.616 -1.344,-84.804c-34.313,-2.903 -80.875,-9.931 -114.281,-1.512l-0,0.963c-6.407,21.699 -6.969,55.324 -4.219,83.659c-2.687,-1.494 -6,-2 -8.969,-1.106c-5.875,1.793 -9.781,7.918 -10.218,14.068c-0.438,6.15 2.062,12.203 5.593,17.26c5,7.2 13.282,13.006 21.782,12.931c3.624,11.165 8.687,21.803 16.281,30.675c10.812,12.634 27.437,21.178 43.906,18.937c15.937,-2.168 29.281,-14 37.062,-28.075c3.75,-6.778 6.375,-14.046 8.345,-21.534c8.562,0.15 16.905,-5.687 21.968,-12.934c3.531,-5.057 6.031,-11.11 5.562,-17.26Z" style="fill:#f0bf85;fill-rule:nonzero;"></path>
      <path d="M202.219,219.497c-0,5.012 -3.968,9.078 -8.875,9.078c-4.906,-0 -8.875,-4.066 -8.875,-9.078c-0,-5.016 3.969,-9.078 8.875,-9.078c4.907,-0 8.875,4.062 8.875,9.078Z" style="fill:#1a1a1a;fill-rule:nonzero;"></path>
      <path d="M269.469,218.125c-0,5.016 -3.969,9.078 -8.875,9.078c-4.906,-0 -8.875,-4.062 -8.875,-9.078c-0,-5.013 3.969,-9.078 8.875,-9.078c4.906,-0 8.875,4.065 8.875,9.078Z" style="fill:#1a1a1a;fill-rule:nonzero;"></path>
      <path d="M216.032,254.256c4.562,12.044 15.531,17.525 23.437,1.213l-23.437,-1.213Z" style="fill:#fff;fill-rule:nonzero;"></path>
      <path d="M214.063,254.803c1.718,4.466 4.406,9.059 8.718,11.459c4.126,2.313 8.688,1.572 12.313,-1.353c2.719,-2.193 4.625,-5.312 6.156,-8.403c0.688,-1.428 -0.156,-3.009 -1.781,-3.094c-6.843,-0.353 -13.656,-0.706 -20.469,-1.059c-1,-0.05 -1.969,-0.1 -2.968,-0.153c-2.626,-0.135 -2.626,3.975 -0,4.112c6.843,0.354 13.655,0.707 20.469,1.06c0.999,0.05 1.968,0.1 2.968,0.15c-0.593,-1.028 -1.188,-2.06 -1.781,-3.091c-1.344,2.769 -3,5.66 -5.5,7.572c-0.969,0.741 -1.813,1.169 -2.906,1.431c-0.625,0.157 -0.438,0.135 -1.126,0.15l-0.812,-0.028c-0.375,-0.031 0.062,0.035 -0.406,-0.062c-1.938,-0.425 -3.5,-1.541 -4.969,-3.129c-1.75,-1.896 -3.031,-4.256 -3.938,-6.656c-0.406,-1.034 -1.375,-1.75 -2.531,-1.434c-1,0.272 -1.843,1.487 -1.437,2.528Z" style="fill:#a46e4a;fill-rule:nonzero;"></path>
      <path d="M285.751,240.459c0.312,-0.534 0.656,-1.053 1.03,-1.559l0.251,-0.363l0.187,-0.215l0.156,-0.21l0.344,-0.409c0.781,-0.925 1.656,-1.794 2.563,-2.591l0.687,-0.574l0.343,-0.276c-0.312,0.247 0,-0.009 0.063,-0.056c0.5,-0.368 1.031,-0.722 1.562,-1.053c1.032,-0.662 2.157,-1.238 3.282,-1.734c1,-0.428 1.312,-1.957 0.75,-2.813c-0.656,-1.028 -1.75,-1.197 -2.812,-0.737c-4.938,2.144 -9.157,5.909 -11.938,10.515c-0.562,0.919 -0.25,2.3 0.719,2.813c1,0.528 2.218,0.244 2.813,-0.738Z" style="fill:#a46e4a;fill-rule:nonzero;"></path>
      <path d="M288.688,236.775l0.562,0.344l0.188,0.147l0.125,0.071l0.094,0.082l0.249,0.212l0.438,0.397c0.312,0.306 0.594,0.631 0.875,0.966l-0.094,-0.107l0.187,0.263l0.376,0.547c0.219,0.35 0.406,0.712 0.593,1.087l0.094,0.238c0.188,0.403 -0.094,-0.319 -0.031,-0.072l0.25,0.612c0.125,0.394 0.218,0.794 0.312,1.197l0.094,0.641c0,-0.091 -0.031,-0.441 -0.031,-0.156l0.062,0.39c0.063,1.069 0.875,2.107 2.032,2.057c1.062,-0.047 2.156,-0.91 2.062,-2.057c-0.281,-4.275 -2.656,-8.231 -6.375,-10.409c-0.906,-0.547 -2.281,-0.244 -2.812,0.734c-0.501,0.988 -0.25,2.235 0.75,2.816Z" style="fill:#a46e4a;fill-rule:nonzero;"></path>
      <path d="M158.875,227.966c2.812,4.662 5.594,9.328 8.406,13.99c0.563,0.953 1.844,1.303 2.813,0.738c0.937,-0.557 1.313,-1.857 0.75,-2.813c-2.813,-4.662 -5.625,-9.328 -8.407,-13.99c-0.593,-0.954 -1.874,-1.304 -2.843,-0.738c-0.938,0.556 -1.281,1.856 -0.719,2.813Z" style="fill:#a46e4a;fill-rule:nonzero;"></path>
      <path d="M158.969,241.113c1.875,-1.397 3.75,-2.791 5.625,-4.188c0.437,-0.334 0.782,-0.672 0.937,-1.228c0.125,-0.494 0.063,-1.15 -0.218,-1.585c-0.282,-0.44 -0.687,-0.828 -1.219,-0.946c-0.5,-0.113 -1.156,-0.116 -1.594,0.209c-1.843,1.394 -3.719,2.791 -5.594,4.187c-0.437,0.332 -0.781,0.672 -0.937,1.229c-0.156,0.493 -0.094,1.146 0.187,1.584c0.282,0.437 0.719,0.825 1.251,0.944c0.499,0.115 1.155,0.118 1.562,-0.206Z" style="fill:#a46e4a;fill-rule:nonzero;"></path>
      <path d="M254.125,190.59c0.406,-0.193 0.907,-0.381 1.563,-0.559c0.313,-0.087 0.625,-0.162 0.937,-0.225l0.438,-0.075l-0,-0.003l0.218,-0.022c1.344,-0.112 2.501,-0.072 3.594,0.156c2.5,0.522 4.501,1.622 6.187,3.503c0.72,0.829 2.126,0.757 2.907,0c0.813,-0.821 0.719,-2.078 0,-2.906c-4.469,-4.953 -11.969,-6.237 -17.906,-3.418c-1.032,0.475 -1.282,1.912 -0.75,2.812c0.594,1.028 1.812,1.216 2.812,0.737Z" style="fill:#262b44;fill-rule:nonzero;"></path>
      <path d="M189.125,193.753c1.656,-2.066 3.626,-3.303 6.062,-3.944c0.313,-0.081 0.626,-0.153 0.938,-0.212l0.438,-0.075l-0.031,-0l0.218,-0.022c0.657,-0.056 1.282,-0.084 1.938,-0.056l0.531,0.034c0.062,0.006 0.532,0.056 0.219,0.013c0.313,0.043 0.625,0.106 0.937,0.178c0.688,0.15 1.313,0.362 1.969,0.618c1.031,0.416 2.25,-0.453 2.531,-1.437c0.313,-1.175 -0.406,-2.11 -1.437,-2.528c-5.876,-2.372 -13.281,-0.425 -17.219,4.525c-0.687,0.865 -0.844,2.059 0,2.906c0.719,0.716 2.219,0.872 2.906,0Z" style="fill:#262b44;fill-rule:nonzero;"></path>
      <path d="M306.688,148.409c-1.344,-6.203 2.312,-56.581 -70.719,-44.931c-2.469,0.394 -5.031,0.913 -7.437,0.088c-1.969,-0.669 -3.657,-2.191 -5.469,-3.344c-5,-3.188 -10.844,-3.534 -16.469,-2.966c-19.719,2.006 -38.563,15.141 -50.188,35.009l0.625,-0.056c-1.874,3.2 -3.156,6.747 -4.124,10.307c-5.126,18.921 -2.813,38.856 -0.469,58.268c0.5,4.078 1.031,8.31 3.344,11.775c2.343,3.463 6.968,5.894 11.031,4.485c4.063,-1.407 5.531,-7.616 1.812,-9.7c5.875,-1.663 9.782,-7.297 10.813,-13.047c0.999,-5.753 -0.344,-11.631 -2,-17.253c7.843,2.731 17.406,0.028 22.406,-6.325c5,-6.353 4.969,-15.828 -0,-22.175c12.938,8.162 30.938,8.331 44.062,0.412c4.063,5.906 9.563,11.366 16.688,13.369c3.5,0.978 8.719,-0.85 13.5,-3.716c-0.469,5.906 2.75,12.035 8.187,15.05c-5.187,3.338 -8.156,9.482 -7.499,15.379c0.687,5.893 4.968,11.29 10.781,13.506c-3.844,3.959 -6.844,9.14 -6.219,14.484l0.125,0.797c1.438,6.756 10.343,9.219 15.75,4.6l5.031,-4.328l-0.094,-0.725l0.251,0.512l-0.094,0.147l4.593,-3.925c0,0 7.531,-39.106 1.782,-65.697Z" style="fill:#262b44;fill-rule:nonzero;"></path>
      <path d="M300.25,218.159l0.063,-0.128l-0.063,0.066l0,0.062Z" style="fill:#262b44;fill-rule:nonzero;"></path>
      <path d="M242.719,144.556c-0.937,4.497 -3.125,8.585 -6.406,11.803c-2.657,2.591 -6.281,5.157 -10.188,4.672c-1.156,-0.144 -2.688,-0.712 -2.75,-2.081c-0.031,-1.047 1.094,-1.669 2.032,-1.925c3.749,-1.044 4.875,2.969 3.656,5.862c-2.188,5.266 -8.844,5.907 -13.75,6.385c-2.625,0.253 -2.657,4.369 -0,4.112c6.406,-0.622 14.031,-1.712 17.187,-8.178c2.469,-5.031 0.782,-12.237 -5.719,-12.453c-4.906,-0.162 -9.78,4.769 -6.406,9.488c3.25,4.578 10.25,3.1 14.282,0.593c6.124,-3.806 10.562,-10.128 12.031,-17.184c0.531,-2.581 -3.406,-3.688 -3.969,-1.094Z" style="fill:#262b44;fill-rule:nonzero;"></path>
      <path d="M221.906,212.922c2.782,4.928 7.719,7.681 11.907,11.253c0.969,0.815 2.281,1.772 2.781,2.966c0.563,1.362 -0.406,2.787 -1.188,3.853c-2.062,2.825 -4.531,5.434 -6.781,8.115c-1.562,1.853 1.125,4.541 2.688,2.675c2.5,-2.987 5.249,-5.884 7.5,-9.081c2.094,-2.975 2.281,-6.284 -0.125,-9.109c-4.063,-4.7 -10.375,-7.028 -13.532,-12.582c-1.187,-2.115 -4.468,-0.212 -3.25,1.91Z" style="fill:#a46e4a;fill-rule:nonzero;"></path>
      <path d="M169.875,316.722c14.125,15.675 35.031,25.356 56.438,26.134c21.375,0.778 42.969,-7.359 58.281,-21.962c1.688,-1.635 3.438,-3.407 5.719,-4.103c2.375,-0.729 4.937,-0.169 7.375,0.456c20.094,5.19 39.093,14.5 55.343,27.147c5.688,4.44 11.157,9.378 14.938,15.472c6.063,9.793 7.281,21.715 7,33.149c-0.594,22.594 -6.468,45.094 -4.062,67.576c-30.063,6.284 -60.751,9.831 -91.5,10.568c-8.345,0.203 -16.751,0.191 -24.906,-1.462c-6.469,-1.303 -12.688,-3.619 -19.188,-4.663c-13.938,-2.237 -28.032,1.46 -42.125,2.447c-38.906,2.722 -75.969,-15.247 -109.594,-34.49c-1.313,-0.735 -2.625,-1.504 -3.531,-2.657c-1.219,-1.547 -1.563,-3.575 -1.844,-5.509c-3.125,-21.056 -5.844,-44.134 5.688,-62.2c4.812,-7.55 11.812,-13.566 19.187,-18.816c19.281,-13.743 41.969,-22.972 65.562,-26.69l1.219,-0.397Z" style="fill:#8ca3c3;fill-rule:nonzero;"></path>
      <path d="M124.875,338.775c8.063,0.381 16.157,0.175 24.219,0.094c9,-0.091 18.031,-0.25 27.063,-0.266c1.593,0 3.218,0 4.812,0.031c0.563,0.01 1.125,0.022 1.657,0.05c0.28,0.013 1.531,0.15 0.687,0.025c2.375,0.353 3.406,-3.29 0.999,-3.647c-2.124,-0.312 -4.312,-0.231 -6.436,-0.237c-4.001,-0.013 -8.032,0.031 -12.032,0.075c-9.719,0.103 -19.469,0.259 -29.188,0.269c-3.937,0.003 -7.875,0.012 -11.781,-0.172c-2.437,-0.116 -2.437,3.665 -0,3.778Z" style="fill:#fff;fill-rule:nonzero;"></path>
      <path d="M271.344,340.15c10.906,1.834 22.125,2.15 33.157,2.472c10.624,0.306 21.249,0.387 31.843,0.325c2.156,-0.013 4.312,-0.025 6.438,-0.06c2.437,-0.037 2.437,-3.818 -0,-3.781c-17.876,0.278 -35.845,0.153 -53.688,-0.931c-5.594,-0.341 -11.218,-0.741 -16.75,-1.669c-2.375,-0.4 -3.406,3.241 -1,3.644Z" style="fill:#fff;fill-rule:nonzero;"></path>
      <path d="M104.063,348.525c15.531,2.034 31.187,3.137 46.812,4.244c21.469,1.522 42.969,2.759 64.501,3.903c22.28,1.187 44.562,2.259 66.843,3.272c17.937,0.812 35.875,1.584 53.844,2.34c8.5,0.36 16.968,0.791 25.469,1.122c0.812,0.028 -0.219,-0.04 -0.501,-0.219c2.094,1.247 4,-2.018 1.907,-3.262c-0.625,-0.375 -1.594,-0.316 -2.313,-0.353c-1.313,-0.072 -2.656,-0.131 -4,-0.191c-5,-0.222 -9.999,-0.431 -15,-0.64c-17.031,-0.719 -34.093,-1.444 -51.125,-2.207c-22.125,-0.987 -44.25,-2.031 -66.375,-3.181c-21.875,-1.137 -43.781,-2.359 -65.656,-3.837c-16.719,-1.132 -33.469,-2.291 -50.125,-4.241c-1.438,-0.166 -2.875,-0.341 -4.281,-0.528c-1.032,-0.134 -1.906,0.962 -1.906,1.89c-0,1.132 0.874,1.757 1.906,1.888Z" style="fill:#fff;fill-rule:nonzero;"></path>
      <path d="M86.282,374.487c35.624,0.375 71.25,0.75 106.874,1.125c35.594,0.375 71.157,0.647 106.719,1.372c20.094,0.41 40.188,0.982 60.281,1.828c2.438,0.104 2.438,-3.674 0,-3.778c-35.562,-1.506 -71.187,-2.128 -106.781,-2.553c-35.531,-0.428 -71.094,-0.765 -106.656,-1.137c-20.156,-0.213 -40.281,-0.425 -60.437,-0.638c-2.438,-0.025 -2.438,3.757 -0,3.781Z" style="fill:#fff;fill-rule:nonzero;"></path>
      <path d="M76.563,399.628c19.281,-3.672 38.968,-2.991 58.468,-2.587c19.376,0.403 38.719,0.253 58.094,-0.269c37.469,-1.01 74.906,-3.297 112.375,-4.156c21.719,-0.5 43.438,-0.5 65.125,0.343c2.438,0.094 2.438,-3.687 0,-3.781c-38.344,-1.491 -76.719,-0.225 -115.031,1.409c-38.219,1.632 -76.469,3.4 -114.719,2.785c-21.812,-0.353 -43.781,-1.497 -65.312,2.609c-2.406,0.456 -1.376,4.1 0.999,3.647Z" style="fill:#fff;fill-rule:nonzero;"></path>
      <path d="M80.719,423.344c38.563,0.703 77.156,1.272 115.719,1.703c38.593,0.428 77.156,0.722 115.75,0.872c21.593,0.087 43.187,0.131 64.781,0.131c2.438,-0 2.438,-3.781 0,-3.781c-38.563,-0 -77.156,-0.138 -115.719,-0.413c-38.594,-0.275 -77.187,-0.687 -115.75,-1.237c-21.593,-0.31 -43.188,-0.663 -64.781,-1.057c-2.438,-0.043 -2.438,3.738 -0,3.782Z" style="fill:#fff;fill-rule:nonzero;"></path>
      <path d="M99.844,442.612c37.219,5.438 74.875,5.95 112.438,7.197c18.781,0.625 37.5,1.55 56.219,3.182c18.843,1.646 37.593,3 56.53,2.415c21.376,-0.659 42.688,-2.965 63.938,-5.275c2.406,-0.259 2.437,-4.04 -0,-3.778c-18.875,2.047 -37.781,4.097 -56.75,4.994c-18.938,0.894 -37.719,0.134 -56.625,-1.513c-18.5,-1.612 -37,-2.847 -55.594,-3.534c-18.75,-0.694 -37.531,-1.084 -56.281,-1.906c-21.031,-0.922 -42.062,-2.385 -62.875,-5.425c-2.375,-0.347 -3.406,3.293 -1,3.643Z" style="fill:#fff;fill-rule:nonzero;"></path>
      <path d="M164.75,315.656c-0.75,24.441 -1.469,44.769 -2.219,69.21c6.501,-0.957 30.188,-1.8 35.469,-1.71c31.313,0.525 62.594,1.056 93.907,1.581c-1.876,0.804 6.344,-70.465 5.999,-69.943c5.906,2.218 19.782,7.443 20.407,8.303c0.75,1.034 -2.563,131.437 0.437,172.578c-12.344,-1.7 -156.937,-5.731 -179.187,-5.1c-3.25,-41.266 0.687,-127.55 4.5,-168.766l20.687,-6.153Z" style="fill:#db740e;fill-rule:nonzero;"></path>
      <path d="M161.188,395.137c-0,3.785 -3.063,6.85 -6.844,6.85c-3.781,0 -6.875,-3.065 -6.875,-6.85c0,-3.787 3.094,-6.853 6.875,-6.853c3.781,0 6.844,3.066 6.844,6.853Z" style="fill:#9e520d;fill-rule:nonzero;"></path>
      <path d="M309.219,395.137c-0,3.785 -3.063,6.85 -6.875,6.85c-3.781,0 -6.844,-3.065 -6.844,-6.85c0,-3.787 3.063,-6.853 6.844,-6.853c3.812,0 6.875,3.066 6.875,6.853Z" style="fill:#9e520d;fill-rule:nonzero;"></path>
      <path d="M171.688,394.459l112.906,0c2.438,0 2.438,-3.778 -0,-3.778l-112.906,0c-2.438,0 -2.438,3.778 0,3.778Z" style="fill:#9e520d;fill-rule:nonzero;"></path>
      <path d="M226.282,467.094c40.437,2.753 51.156,-38.303 49.906,-49.657c-34.032,-1.725 -68.094,-2.806 -102.187,-3.24c-0,-0 -10.219,48.64 52.281,52.897Z" style="fill:#9e520d;fill-rule:nonzero;"></path>
      <path d="M330.063,161.153c8.468,-11.762 25.906,-12.616 38.406,-7.856c12.687,4.825 22.563,16.681 20.625,30.772c-0.969,6.947 -4.688,13.475 -10.906,16.94c-1.407,0.797 -1.094,3.028 0.469,3.456c12.874,3.576 20.437,17.06 22.593,29.485c1.219,7.012 0.594,14.615 -3.25,20.762c-3.687,5.925 -9.875,9.775 -16.156,12.513c-8.313,3.619 -17.344,5.772 -26.344,6.69c-2.406,0.244 -2.406,4.029 0,3.782c8.969,-0.919 17.844,-2.944 26.219,-6.347c6.906,-2.816 13.594,-6.691 18.156,-12.738c9.469,-12.518 6.126,-31.153 -1.937,-43.521c-4.313,-6.66 -10.501,-12.119 -18.282,-14.272c0.157,1.153 0.313,2.303 0.438,3.456c12.875,-7.166 16.25,-24.897 9.75,-37.45c-7.406,-14.234 -25.032,-21.581 -40.531,-19.769c-8.813,1.032 -17.219,4.841 -22.532,12.188c-1.406,1.978 1.844,3.865 3.282,1.909Z" style="fill:#262b44;fill-rule:nonzero;"></path>
      <path d="M147.407,122.591c-11.938,1.003 -22.251,9.096 -27.563,19.64c-5.844,11.597 -6.719,26.269 -3.375,38.747c1.656,6.153 4.844,11.994 10.406,15.388c0.625,-1.088 1.25,-2.175 1.906,-3.266c-18.531,-10.228 -40.562,-4.381 -57.187,6.794c-4.125,2.759 -8.125,5.819 -11.219,9.743c-2.906,3.741 -4.812,8.157 -5.781,12.804c-1.937,9.328 -0.688,19.321 1.969,28.39c3,10.325 8.343,20.019 16.25,27.4c1.75,1.66 4.437,-1.009 2.656,-2.675c-6.469,-6.056 -11.156,-13.737 -14.094,-22.078c-2.906,-8.231 -4.5,-17.25 -3.719,-25.981c0.375,-4.369 1.501,-8.744 3.688,-12.566c2.313,-4.028 5.781,-7.212 9.5,-9.922c7.625,-5.562 16.188,-10.046 25.437,-12.19c10.219,-2.378 21.313,-1.578 30.594,3.547c2.125,1.178 3.969,-1.997 1.906,-3.266c-9.25,-5.641 -10.531,-19.009 -10.312,-28.772c0.25,-11.594 4.062,-23.266 13.063,-31.013c4.437,-3.831 9.999,-6.453 15.875,-6.946c2.406,-0.2 2.437,-3.985 -0,-3.778Z" style="fill:#262b44;fill-rule:nonzero;"></path>
      <path d="M168.469,315.8c10.094,15.328 26.563,25.7 44.438,29.497c18.812,4 38.406,0.319 55.218,-8.781c9.657,-5.216 18.344,-12.154 25.656,-20.304c1.625,-1.806 -1.03,-4.487 -2.687,-2.671c-12.375,13.79 -28.812,24.012 -47,27.95c-17.344,3.759 -35.75,1.059 -51.157,-7.854c-8.468,-4.89 -15.811,-11.581 -21.218,-19.746c-1.313,-2.022 -4.594,-0.129 -3.25,1.909Z" style="fill:#262b44;fill-rule:nonzero;"></path>
      <path d="M322.188,372.978c0.593,23.116 1.156,46.234 1.75,69.35c0.156,6.591 0.312,13.181 0.5,19.769c0.062,2.428 3.843,2.44 3.781,-0c-0.594,-23.116 -1.156,-46.235 -1.75,-69.35c-0.156,-6.591 -0.312,-13.178 -0.5,-19.769c-0.063,-2.428 -3.844,-2.437 -3.781,0Z" style="fill:#262b44;fill-rule:nonzero;"></path>
      <path d="M331.469,375.331c-2.406,6.044 -4.781,12.085 -7.188,18.128c-0.374,0.95 0.407,2.075 1.313,2.325c1.094,0.294 1.969,-0.369 2.344,-1.318c2.374,-6.044 4.781,-12.085 7.156,-18.129c0.375,-0.95 -0.406,-2.075 -1.313,-2.325c-1.062,-0.293 -1.937,0.369 -2.312,1.319Z" style="fill:#262b44;fill-rule:nonzero;"></path>
      <path d="M124.062,366.894c-0.687,25.446 -1.343,50.893 -2.031,76.337c-0.187,7.228 -0.374,14.453 -0.562,21.678c-0.062,2.432 3.719,2.432 3.781,0c0.656,-25.447 1.344,-50.893 2.031,-76.337c0.188,-7.225 0.376,-14.45 0.563,-21.678c0.063,-2.432 -3.719,-2.432 -3.782,-0Z" style="fill:#262b44;fill-rule:nonzero;"></path>
      <path d="M116.25,377.187c1.781,4.822 4.407,9.232 7.782,13.091c0.687,0.766 1.999,0.687 2.687,0c0.75,-0.763 0.656,-1.906 -0,-2.675c-1.5,-1.69 -2.718,-3.381 -3.938,-5.403c-1.187,-1.994 -2.124,-3.981 -2.874,-6.019c-0.344,-0.956 -1.282,-1.606 -2.313,-1.319c-0.938,0.254 -1.687,1.363 -1.344,2.325Z" style="fill:#262b44;fill-rule:nonzero;"></path>
    </g>
  </g>
</svg>
