<?xml version="1.0" encoding="UTF-8" standalone="no"?>
<svg preserveAspectRatio="xMidYMid slice" width="34px" height="34px" xmlns="http://www.w3.org/2000/svg" xmlns:xlink="http://www.w3.org/1999/xlink" xmlns:serif="http://www.serif.com/"   viewBox="0 0 449 449" version="1.1" xml:space="preserve" style="fill-rule:evenodd;clip-rule:evenodd;stroke-linejoin:round;stroke-miterlimit:2;">
  <clipPath id="_clip1">
    <path d="M448.625,224.303c0,123.878 -100.437,224.303 -224.312,224.303c-123.875,0 -224.313,-100.425 -224.313,-224.303c0,-123.878 100.438,-224.303 224.313,-224.303c123.875,0 224.312,100.425 224.312,224.303Z"></path>
  </clipPath>
  <g clip-path="url(#_clip1)">
    <path d="M448.625,224.303c0,123.878 -100.437,224.303 -224.312,224.303c-123.875,0 -224.313,-100.425 -224.313,-224.303c0,-123.878 100.438,-224.303 224.313,-224.303c123.875,0 224.312,100.425 224.312,224.303Z" style="fill:#fff;fill-rule:nonzero;"></path>
    <clipPath id="_clip2">
      <path d="M448.625,224.303c0,123.878 -100.437,224.303 -224.312,224.303c-123.875,0 -224.313,-100.425 -224.313,-224.303c0,-123.878 100.438,-224.303 224.313,-224.303c123.875,0 224.312,100.425 224.312,224.303Z" clip-rule="nonzero"></path>
    </clipPath>
    <g clip-path="url(#_clip2)">
      <path d="M370.281,372.706c-26.687,-13.975 -58.968,-19.572 -90.5,-24.515c-1.905,-0.303 -3.906,-0.632 -5.468,-1.575c-2.625,-1.613 3.375,-56 -0,-79.778l-44.969,3.29l-45,-3.29c-3.343,23.778 2.656,78.165 -0,79.778c-1.531,0.943 -3.531,1.272 -5.469,1.575c-31.5,4.943 -63.781,10.54 -90.5,24.515c-26.719,13.975 -46.937,38.347 -42.656,63.241c26.812,-0.109 101.688,0.269 177.532,1.05l-0,0.128c2.031,-0.022 4.061,-0.044 6.093,-0.066c2.031,0.022 4.063,0.044 6.094,0.066l-0,-0.128c75.812,-0.781 150.687,-1.159 177.5,-1.05c4.281,-24.894 -15.938,-49.266 -42.657,-63.241Z" style="fill:#fbd1b9;fill-rule:nonzero;"></path>
      <clipPath id="_clip3">
        <path d="M370.281,372.706c-26.687,-13.975 -58.968,-19.572 -90.5,-24.518c-1.905,-0.3 -3.906,-0.629 -5.468,-1.572c-2.625,-1.613 3.375,-56 -0,-79.778l-44.969,3.29l-45,-3.29c-3.343,23.778 2.656,78.165 -0,79.778c-1.531,0.943 -3.531,1.272 -5.469,1.572c-31.5,4.946 -63.781,10.543 -90.5,24.518c-26.719,13.975 -46.937,38.347 -42.656,63.241c26.812,-0.109 101.688,0.269 177.532,1.05l-0,0.128c2.031,-0.022 4.061,-0.044 6.093,-0.066c2.031,0.022 4.063,0.044 6.094,0.066l-0,-0.128c75.812,-0.781 150.687,-1.159 177.5,-1.05c4.281,-24.894 -15.938,-49.266 -42.657,-63.241Z"></path>
      </clipPath>
      <g clip-path="url(#_clip3)">
        <path d="M124.469,266.072c17.75,-8.928 18.5,-13.213 19.344,-8.928c4.219,21.047 46.781,71.75 85.5,71.75c50.094,-0 79.187,-66.078 83.874,-82.731c-57.905,6.465 -116.561,12.943 -174.656,7.5c1.594,1.175 3.188,2.353 4.782,3.528l-18.844,8.881Z" style="fill:#dba78a;fill-rule:nonzero;"></path>
      </g>
      <path d="M162.594,150.713c-10.344,27.287 -7.781,75.103 -0,102.903l0.125,0.45c4.219,14.922 10.969,29.825 23.688,41.437c12.718,11.616 32.28,19.469 51.656,17.413c18.75,-1.994 34.468,-12.875 43.625,-25.813c9.156,-12.94 12.656,-27.803 15.218,-42.45c4.438,-25.5 3.282,-93.231 0.157,-93.437c-40.375,-2.669 -95.188,-9.132 -134.469,-1.388l-0,0.885Z" style="fill:#fbd1b9;fill-rule:nonzero;"></path>
      <path d="M295.281,234.091c1,-5.616 9.657,-9.128 16.594,-7.482c6.938,1.647 11.531,7.282 12.032,12.935c0.531,5.656 -2.407,11.219 -6.563,15.869c-6.906,7.753 -19.093,13.775 -30.812,11.375c1.874,-11.629 4.531,-23.179 7.999,-34.579l0.75,1.882Z" style="fill:#fbd1b9;fill-rule:nonzero;"></path>
      <path d="M163.657,234.091c-1.001,-5.616 -9.657,-9.128 -16.594,-7.482c-6.938,1.647 -11.531,7.282 -12.032,12.935c-0.531,5.656 2.406,11.219 6.563,15.869c6.937,7.753 19.094,13.775 30.813,11.375c-1.844,-11.629 -4.532,-23.179 -8,-34.579l-0.75,1.882Z" style="fill:#fbd1b9;fill-rule:nonzero;"></path>
      <path d="M205.5,214.706c0,5.028 -3.969,9.103 -8.906,9.103c-4.906,0 -8.906,-4.075 -8.906,-9.103c-0,-5.028 4,-9.103 8.906,-9.103c4.937,0 8.906,4.075 8.906,9.103Z" style="fill:#1a1a1a;fill-rule:nonzero;"></path>
      <path d="M274.906,214.706c0,5.028 -3.999,9.103 -8.906,9.103c-4.906,0 -8.906,-4.075 -8.906,-9.103c-0,-5.028 4,-9.103 8.906,-9.103c4.907,0 8.906,4.075 8.906,9.103Z" style="fill:#1a1a1a;fill-rule:nonzero;"></path>
      <path d="M214.219,251.034c6.875,12.575 23.406,18.304 35.313,1.263l-35.313,-1.263Z" style="fill:#fff;fill-rule:nonzero;"></path>
      <path d="M212.594,251.988c3.625,6.496 9.844,11.731 17.406,12.675c8.876,1.112 16.25,-4.51 21.157,-11.41c0.875,-1.234 -0.313,-2.797 -1.625,-2.844c-10.344,-0.371 -20.657,-0.74 -30.969,-1.112c-1.438,-0.05 -2.907,-0.103 -4.344,-0.153c-2.438,-0.088 -2.406,3.694 -0,3.781c10.313,0.369 20.656,0.738 30.968,1.106c1.439,0.053 2.876,0.107 4.345,0.157c-0.563,-0.947 -1.095,-1.897 -1.657,-2.844c-4.062,5.74 -10.312,10.606 -17.718,9.556c-6.25,-0.887 -11.313,-5.459 -14.313,-10.822c-1.157,-2.125 -4.437,-0.222 -3.25,1.91Z" style="fill:#a46e4a;fill-rule:nonzero;"></path>
      <path d="M313.969,352.6c-20.219,22.028 -49.906,30.428 -84.375,29.494l-0,-0.175c-0.75,0.034 -1.532,0.069 -2.313,0.1c-0.781,-0.031 -1.562,-0.066 -2.312,-0.1l-0,0.175c-34.469,0.934 -62.594,-7.466 -82.813,-29.494c0,0 -105.343,16.116 -94.437,83.703c0.062,0.46 159.75,48.444 159.406,48.988c-28.969,42.925 40.656,87.459 43.625,84.287l-9.344,-47.1c89.907,-0.481 165.407,-85.712 165.438,-86.175c7.156,-66.347 -92.875,-83.703 -92.875,-83.703Z" style="fill:#ce7d1d;fill-rule:nonzero;"></path>
      <path d="M226.219,223.684c3.5,-1.1 6.281,-3.496 9.593,-4.89c2.157,-0.9 5.626,-1.472 7.282,0.678c1.844,2.431 0.469,6.416 -0.312,8.984c-1.126,3.675 -2.688,7.166 -4.657,10.469c-1.219,2.1 2.032,4.003 3.281,1.909c1.782,-3.043 3.282,-6.265 4.438,-9.606c1,-2.912 2.031,-6.15 1.844,-9.269c-0.188,-3.1 -1.719,-5.871 -4.688,-7.075c-2.531,-1.031 -5.531,-0.756 -8.062,0.213c-3.406,1.312 -6.219,3.841 -9.719,4.944c-2.313,0.728 -1.312,4.378 1,3.643Z" style="fill:#a46e4a;fill-rule:nonzero;"></path>
      <path d="M251.938,182.075c0.281,2.072 0.562,4.144 0.844,6.216c0.094,0.79 0.218,1.609 0.656,2.275c1,1.487 3.094,1.59 4.875,1.628c8.5,0.172 16.937,2.34 24.437,6.275c-0.25,-3.86 -2.438,-7.41 -5.344,-9.966c-2.906,-2.553 -6.469,-4.209 -10.125,-5.497c-4.687,-1.653 -9.874,-2.74 -14.593,-1.106l-0.75,0.175Z" style="fill:#1a1a1a;fill-rule:nonzero;"></path>
      <path d="M206.563,177.038c-0.25,2.068 -0.531,4.14 -0.813,6.212c-0.094,0.791 -0.219,1.609 -0.625,2.275c-0.969,1.488 -2.999,1.594 -4.75,1.628c-8.25,0.172 -16.437,2.338 -23.75,6.275c0.25,-3.859 2.375,-7.409 5.188,-9.965c2.812,-2.554 6.312,-4.21 9.843,-5.497c4.563,-1.653 9.626,-2.741 14.188,-1.107l0.719,0.179Z" style="fill:#1a1a1a;fill-rule:nonzero;"></path>
      <path d="M157.094,141.766c7.031,13.606 20,24 34.813,27.893c3.28,0.854 7.218,1.219 9.53,-1.24c2.032,-2.181 1.782,-5.594 1.188,-8.516c-1.281,-6.24 -3.624,-12.259 -6.906,-17.719c6.407,13.741 17.844,25.057 31.656,31.3c5.563,2.504 13.406,3.55 16.563,-1.65c2.062,-3.44 0.843,-7.85 -0.406,-11.668c-1.282,-3.847 -2.594,-7.697 -3.875,-11.544c4.5,10.512 13.062,19.212 23.53,23.85c2.189,0.975 4.719,1.775 6.939,0.884c4.937,-1.972 3.718,-9.231 1.624,-14.112c1.282,6.422 3.688,12.622 7.031,18.256c1.313,2.203 2.844,4.4 5.094,5.622c2.281,1.222 5.406,1.162 7.094,-0.769c1.688,-1.928 0.75,-5.687 -1.813,-6.009c-0.374,8.712 3.282,17.519 9.688,23.425c3.375,-2.869 3.468,-7.919 3.313,-12.325c-0.438,-12.322 -0.875,-24.647 -1.313,-36.969c-0.063,-1.772 -0.125,-3.597 -0.907,-5.191c-1.03,-2.093 -3.062,-3.465 -5.093,-4.596c-11.562,-6.432 -25.031,-8.307 -38.187,-9.61c-27.063,-2.684 -54.282,-3.45 -81.438,-2.287c-4.094,0.175 -8.375,0.456 -11.813,2.656c-3.468,2.197 -5.594,6.987 -3.531,10.506l-2.781,-0.187Z" style="fill:#1a1a1a;fill-rule:nonzero;"></path>
      <path d="M159.5,136.041c-7.343,29.343 -10.344,59.756 -8.968,89.968c0.124,2.15 0.249,4.366 1.187,6.3c2.156,4.4 9.25,-18.534 9.406,-33.471c0.157,-18.022 0.781,-37.447 11.75,-51.757l-13.375,-11.04Z" style="fill:#1a1a1a;fill-rule:nonzero;"></path>
      <path d="M292.937,180.6c3.657,19.769 5.5,39.878 5.438,59.981c1.376,-0.231 2.75,-0.462 4.094,-0.693c1.781,-20.519 3.532,-41.035 5.312,-61.554c0.75,-8.653 1.438,-17.637 -1.562,-25.79c-3,-8.15 -10.844,-15.21 -19.5,-14.344l6.218,42.4Z" style="fill:#1a1a1a;fill-rule:nonzero;"></path>
      <path d="M222.469,86.972c0.437,-7.925 6.625,-14.85 13.469,-15.094c6.813,-0.25 13.375,6.213 14.218,14.091c-8.781,-0.716 -17.687,-0.21 -26.406,1.503l-1.281,-0.5Z" style="fill:#724328;fill-rule:nonzero;"></path>
      <path d="M156.813,143.203c4.968,-28.212 37.624,-62.903 76.843,-62.903c56.594,0 76.813,42.769 76.157,61.859l-153,1.044Z" style="fill:#a8734f;fill-rule:nonzero;"></path>
      <clipPath id="_clip4">
        <path d="M156.813,143.203c4.968,-28.212 37.624,-62.903 76.843,-62.903c56.594,0 76.813,42.769 76.157,61.863l-153,1.04Z"></path>
      </clipPath>
      <g clip-path="url(#_clip4)">
        <path d="M168.407,146.944c5.03,-24.322 16.312,-48.51 37.594,-62.647c5.593,-3.728 11.687,-6.594 18.155,-8.413c1.313,-0.362 0.75,-2.384 -0.531,-2.018c-24.531,6.875 -41.843,27.568 -50.844,50.59c-2.781,7.107 -4.844,14.466 -6.375,21.932c-0.281,1.315 1.75,1.878 2.001,0.556Z" style="fill:#724328;fill-rule:nonzero;"></path>
      </g>
      <clipPath id="_clip5">
        <path d="M156.813,143.203c4.968,-28.212 37.624,-62.903 76.843,-62.903c56.594,0 76.813,42.769 76.157,61.863l-153,1.04Z"></path>
      </clipPath>
      <g clip-path="url(#_clip5)">
        <path d="M222.031,75.763c-8.437,5.846 -14.031,14.703 -18.187,23.915c-4.531,10.038 -7.344,20.794 -8.375,31.753c-0.594,6.425 -0.531,12.891 0.125,19.307c0.125,1.328 2.219,1.343 2.094,-0c-2.157,-20.829 2.281,-43.147 13.813,-60.825c3.093,-4.769 6.906,-9.085 11.593,-12.338c1.093,-0.766 0.031,-2.584 -1.063,-1.812Z" style="fill:#724328;fill-rule:nonzero;"></path>
      </g>
      <clipPath id="_clip6">
        <path d="M156.813,143.203c4.968,-28.212 37.624,-62.903 76.843,-62.903c56.594,0 76.813,42.769 76.157,61.863l-153,1.04Z"></path>
      </clipPath>
      <g clip-path="url(#_clip6)">
        <path d="M229.719,71.897c-7.562,4.506 -7.781,15.159 -8.469,22.906c-1,11.391 -1.124,22.86 -0.313,34.269c0.438,6.306 1.157,12.591 2.157,18.834c0.187,1.328 2.219,0.766 2,-0.556c-2.094,-13.447 -2.937,-27.081 -2.469,-40.684c0.219,-6.603 0.656,-13.26 1.562,-19.807c0.719,-4.89 2.032,-10.44 6.563,-13.15c1.187,-0.693 0.125,-2.506 -1.031,-1.812Z" style="fill:#724328;fill-rule:nonzero;"></path>
      </g>
      <clipPath id="_clip7">
        <path d="M156.813,143.203c4.968,-28.212 37.624,-62.903 76.843,-62.903c56.594,0 76.813,42.769 76.157,61.863l-153,1.04Z"></path>
      </clipPath>
      <g clip-path="url(#_clip7)">
        <path d="M225.532,74.172c13.062,14.753 18.406,34.209 21.781,53.181c0.968,5.459 1.781,10.947 2.593,16.434c0.188,1.332 2.22,0.766 2.001,-0.556c-2.813,-19.44 -5.876,-39.562 -15.406,-57.025c-2.657,-4.84 -5.813,-9.378 -9.469,-13.515c-0.907,-1.01 -2.375,0.475 -1.5,1.481Z" style="fill:#724328;fill-rule:nonzero;"></path>
      </g>
      <clipPath id="_clip8">
        <path d="M156.813,143.203c4.968,-28.212 37.624,-62.903 76.843,-62.903c56.594,0 76.813,42.769 76.157,61.863l-153,1.04Z"></path>
      </clipPath>
      <g clip-path="url(#_clip8)">
        <path d="M232.313,75.866c20.625,9.409 36.969,27.409 44.687,48.709c2.219,6.056 3.719,12.359 4.438,18.766c0.156,1.325 2.25,1.34 2.093,-0c-2.624,-23.188 -15.03,-44.825 -33.437,-59.132c-5.187,-4.021 -10.781,-7.434 -16.718,-10.15c-1.22,-0.559 -2.313,1.247 -1.063,1.807Z" style="fill:#724328;fill-rule:nonzero;"></path>
      </g>
      <clipPath id="_clip9">
        <path d="M156.813,143.203c4.968,-28.212 37.624,-62.903 76.843,-62.903c56.594,0 76.813,42.769 76.157,61.863l-153,1.04Z"></path>
      </clipPath>
      <g clip-path="url(#_clip9)">
        <path d="M233.344,75.313c7.094,-0.838 13.781,1.831 19.875,5.243c5.781,3.244 11.407,6.925 16.813,10.741c5.343,3.741 10.405,7.865 14.75,12.719c4.562,5.081 8,10.984 10.531,17.3c2.875,7.187 4.75,14.731 6.594,22.237c0.312,1.31 2.343,0.753 2.031,-0.556c-3.344,-13.569 -6.938,-27.45 -15.969,-38.484c-8.594,-10.507 -20.75,-18.235 -32.344,-24.994c-6.781,-3.935 -14.313,-7.241 -22.281,-6.303c-1.344,0.153 -1.344,2.25 0,2.097Z" style="fill:#724328;fill-rule:nonzero;"></path>
      </g>
      <path d="M156.406,141.078c-1.249,0.525 -2.124,1.894 -2.656,3.7c-2.125,6.947 2.437,14.019 7.906,12.769c47.282,-10.788 95.813,-9.297 142.063,4.362c4.156,1.222 8.281,-2.565 9.031,-8.237l0.563,-4.316c0.656,-4.881 -1.469,-9.54 -4.969,-10.887c-19.282,-7.419 -81.907,-26.735 -151.938,2.609Z" style="fill:#724328;fill-rule:nonzero;"></path>
      <path d="M145.937,237.438c4.75,4.375 8.876,9.337 12.313,14.812c1.313,2.056 4.563,0.163 3.282,-1.909c-3.594,-5.735 -7.938,-10.994 -12.938,-15.578c-1.782,-1.644 -4.469,1.021 -2.657,2.675Z" style="fill:#a46e4a;fill-rule:nonzero;"></path>
      <path d="M151.437,247.981l0.344,-0.509l-0.281,0.384c0.438,-0.575 0.969,-1.09 1.531,-1.534l-0.374,0.297c0.562,-0.431 1.187,-0.788 1.812,-1.066l-0.438,0.191l0.157,-0.072l0.656,-0.338l0.5,-0.531c0.219,-0.406 0.312,-1.003 0.187,-1.456c-0.156,-0.456 -0.437,-0.9 -0.875,-1.131c-0.437,-0.222 -0.999,-0.375 -1.468,-0.188c-0.531,0.216 -1.062,0.441 -1.563,0.735c-0.5,0.296 -0.969,0.653 -1.437,1.021c-0.782,0.641 -1.469,1.438 -2.031,2.288c-0.251,0.397 -0.313,1.009 -0.188,1.456c0.125,0.438 0.468,0.913 0.875,1.131c0.437,0.232 0.969,0.347 1.469,0.191c0.468,-0.156 0.844,-0.444 1.124,-0.869Z" style="fill:#a46e4a;fill-rule:nonzero;"></path>
      <path d="M303.344,250.594c0.375,-0.506 0.656,-0.86 1.125,-1.428c0.437,-0.538 0.906,-1.069 1.344,-1.588c0.906,-1.015 1.843,-1.997 2.843,-2.94c0.969,-0.944 1.969,-1.85 3.031,-2.716c1.032,-0.866 1.938,-1.531 3.125,-2.356c0.813,-0.582 1.22,-1.653 0.657,-2.585c-0.469,-0.828 -1.75,-1.265 -2.594,-0.678c-4.906,3.431 -9.187,7.588 -12.781,12.381c-0.594,0.794 -0.157,2.147 0.656,2.588c1,0.525 1.969,0.169 2.594,-0.678Z" style="fill:#a46e4a;fill-rule:nonzero;"></path>
      <path d="M306.875,244.447l0.563,0.653l-0.094,-0.128l0.156,0.216l0.25,0.353c0.313,0.493 0.626,1.009 0.875,1.543l0.188,0.391l-0.063,-0.153l0.063,0.2l0.281,0.816c0.187,0.584 0.312,1.181 0.406,1.787c0.063,0.438 0.5,0.916 0.875,1.128c0.406,0.238 1,0.338 1.469,0.191c0.438,-0.147 0.875,-0.431 1.125,-0.869c0.25,-0.478 0.25,-0.925 0.187,-1.456c-0.406,-2.741 -1.749,-5.316 -3.625,-7.344c-0.656,-0.728 -1.999,-0.731 -2.656,0c-0.719,0.778 -0.719,1.897 -0,2.672Z" style="fill:#a46e4a;fill-rule:nonzero;"></path>
      <path d="M156.532,448.856c12.781,-16.447 33.687,-23.897 53.812,-26.015c22,-2.319 46.125,1.056 62.813,16.784c8.093,7.628 13.843,17.566 15.312,28.663c0.156,1.018 1.437,1.556 2.344,1.321c1.094,-0.29 1.437,-1.318 1.312,-2.325c-2.906,-21.571 -20.687,-37.965 -40.594,-44.593c-11.687,-3.888 -24.25,-4.866 -36.468,-4.041c-11,0.744 -21.969,2.819 -32.25,6.85c-11.187,4.397 -21.531,11.116 -28.969,20.684c-1.469,1.897 1.188,4.591 2.688,2.672Z" style="fill:#724328;fill-rule:nonzero;"></path>
      <path d="M176.844,455.534c4.688,-5.628 11.343,-8.859 18.312,-10.662c7.469,-1.928 15.344,-2.459 23,-1.903c15.251,1.103 30.001,7.162 41.063,17.806c5.719,5.516 10.406,12.144 13.469,19.503c0.906,2.216 4.562,1.244 3.625,-1.006c-5.813,-14.031 -16.75,-25.584 -30.251,-32.475c-15.093,-7.684 -32.968,-9.675 -49.499,-6.141c-8.407,1.803 -16.782,5.463 -22.407,12.203c-1.531,1.857 1.126,4.547 2.688,2.675Z" style="fill:#724328;fill-rule:nonzero;"></path>
      <path d="M321.25,384.913c-3.875,23.912 -7.125,47.928 -9.718,72.009c-0.751,6.803 -1.438,13.612 -2.063,20.425c-0.219,2.422 3.563,2.406 3.781,-0c2.219,-23.781 5.063,-47.506 8.531,-71.141c0.969,-6.768 2.032,-13.534 3.125,-20.287c0.376,-2.381 -3.28,-3.403 -3.656,-1.006Z" style="fill:#724328;fill-rule:nonzero;"></path>
      <path d="M326.25,402.334c-2.719,4.119 -5.437,8.238 -8.156,12.357c-0.562,0.85 -0.188,2.09 0.687,2.584c0.907,0.541 2.001,0.178 2.563,-0.678c2.718,-4.119 5.469,-8.238 8.187,-12.356c0.563,-0.85 0.156,-2.091 -0.687,-2.585c-0.937,-0.54 -2.031,-0.175 -2.594,0.678Z" style="fill:#724328;fill-rule:nonzero;"></path>
      <path d="M122.906,381.497c2.75,24.55 -3.312,48.766 -7.031,72.875c-0.344,2.378 3.282,3.403 3.656,1.003c3.75,-24.419 9.938,-49.009 7.157,-73.878c-0.282,-2.391 -4.063,-2.419 -3.782,-0Z" style="fill:#724328;fill-rule:nonzero;"></path>
      <path d="M113.469,392.128c2.312,3.675 4.625,7.35 6.937,11.025c0.531,0.838 1.719,1.244 2.594,0.678c0.844,-0.54 1.219,-1.69 0.656,-2.584c-2.312,-3.678 -4.624,-7.353 -6.937,-11.028c-0.531,-0.835 -1.688,-1.244 -2.563,-0.678c-0.843,0.54 -1.249,1.69 -0.687,2.587Z" style="fill:#724328;fill-rule:nonzero;"></path>
      <path d="M184.813,258.091c-9.406,-0 -17.031,-7.616 -17.031,-17.01c-0,-9.397 7.625,-17.012 17.031,-17.012c9.375,-0 17,7.615 17,17.012c-0,9.394 -7.625,17.01 -17,17.01Z" style="fill:#e4b79c;fill-rule:nonzero;"></path>
      <path d="M274.281,261.872c-9.406,-0 -17.031,-7.616 -17.031,-17.009c0,-9.397 7.625,-17.013 17.031,-17.013c9.095,0 16.5,7.125 16.969,16.097c-0.781,3.087 -1.5,6.187 -2.156,9.291c-2.938,5.156 -8.469,8.634 -14.813,8.634Z" style="fill:#e4b79c;fill-rule:nonzero;"></path>
      <path d="M289.094,253.238c0.656,-3.104 1.375,-6.204 2.156,-9.291c0.031,0.303 0.031,0.606 0.031,0.916c0,3.043 -0.781,5.903 -2.187,8.375Z" style="fill:#e4b79c;fill-rule:nonzero;"></path>
    </g>
  </g>
</svg>
