<?xml version="1.0" encoding="UTF-8" standalone="no"?>
<svg preserveAspectRatio="xMidYMid slice" width="34px" height="34px" xmlns="http://www.w3.org/2000/svg" xmlns:xlink="http://www.w3.org/1999/xlink" xmlns:serif="http://www.serif.com/"   viewBox="0 0 449 449" version="1.1" xml:space="preserve" style="fill-rule:evenodd;clip-rule:evenodd;stroke-linejoin:round;stroke-miterlimit:2;">
  <path d="M448.594,224.303c-0,123.878 -100.407,224.3 -224.281,224.3c-123.876,0 -224.313,-100.422 -224.313,-224.3c0,-123.878 100.437,-224.303 224.313,-224.303c123.874,0 224.281,100.425 224.281,224.303Z" style="fill:#fff;"></path>
  <clipPath id="_clip1">
    <path d="M448.594,224.303c-0,123.878 -100.407,224.3 -224.281,224.3c-123.876,0 -224.313,-100.422 -224.313,-224.3c0,-123.878 100.437,-224.303 224.313,-224.303c123.874,0 224.281,100.425 224.281,224.303Z"></path>
  </clipPath>
  <g clip-path="url(#_clip1)">
    <path d="M159.563,234.678c-2.001,17.009 -3.938,34.85 2.187,50.803c2.657,6.903 6.75,13.138 10.938,19.207c2.562,3.731 5.218,7.443 8.437,10.606c7.781,7.603 18.438,11.528 29.125,12.925c10.687,1.397 21.5,0.468 32.25,-0.463c4.843,-0.422 9.844,-0.878 14.218,-3.09c4.907,-2.485 8.532,-6.938 12.001,-11.272c11.593,-14.475 23.469,-30.222 25.219,-48.803c0.562,-5.741 0.094,-11.526 -0.407,-17.269c-0.719,-8.038 -1.5,-16.066 -2.375,-24.088c-0.375,-3.397 -0.813,-19.487 -2.499,-22.45c-2.001,-3.54 -5.594,-5.868 -9.251,-7.54c-10.969,-4.997 -23.438,-5.263 -35.374,-4.025c-11.938,1.24 -23.72,3.893 -35.72,4.431l-48.749,41.028Z" style="fill:#241e21;fill-rule:nonzero;"></path>
    <path d="M349.187,387.934c-23.562,-13.953 -52.03,-19.544 -79.812,-24.481c-1.719,-0.3 -3.468,-0.628 -4.844,-1.572c-2.313,-1.609 2.969,-55.922 -0,-79.669l-39.656,3.288l-39.687,-3.288c-2.969,23.747 2.343,78.06 -0,79.669c-1.375,0.944 -3.125,1.272 -4.813,1.572c-27.812,4.937 -56.281,10.528 -79.844,24.481c-23.562,13.96 -41.406,38.3 -37.624,63.157c23.655,-0.11 89.687,0.271 156.593,1.05l-0,0.125c1.781,-0.022 3.563,-0.044 5.375,-0.063c1.781,0.019 3.563,0.041 5.344,0.063l-0,-0.125c66.906,-0.779 132.937,-1.16 156.594,-1.05c3.781,-24.857 -14.063,-49.197 -37.626,-63.157Z" style="fill:#b77456;fill-rule:nonzero;"></path>
    <clipPath id="_clip2">
      <path d="M349.187,387.934c-23.562,-13.953 -52.03,-19.544 -79.812,-24.481c-1.719,-0.3 -3.468,-0.628 -4.844,-1.572c-2.313,-1.609 2.969,-55.922 -0,-79.669l-39.656,3.288l-39.687,-3.288c-2.969,23.747 2.343,78.06 -0,79.669c-1.375,0.944 -3.125,1.272 -4.813,1.572c-27.812,4.937 -56.281,10.528 -79.844,24.481c-23.562,13.96 -41.406,38.3 -37.624,63.157c23.655,-0.11 89.687,0.271 156.593,1.05l-0,0.125c1.781,-0.022 3.563,-0.044 5.375,-0.063c1.781,0.019 3.563,0.041 5.344,0.063l-0,-0.125c66.906,-0.779 132.937,-1.16 156.594,-1.05c3.781,-24.857 -14.063,-49.197 -37.626,-63.157Z"></path>
    </clipPath>
    <g clip-path="url(#_clip2)">
      <path d="M224.844,344.184c-13.625,0 -27.75,-8.043 -40.094,-19.05c-0.281,-7.512 -0.5,-15.356 -0.5,-22.653c-0,-7.7 0.25,-14.797 0.938,-20.269l39.687,3.288l39.656,-3.288c0.688,5.472 0.938,12.569 0.938,20.269c-0,6.972 -0.188,14.441 -0.469,21.644c-10.906,11.612 -24.344,20.059 -40.156,20.059Z" style="fill:#8d5239;fill-rule:nonzero;"></path>
    </g>
    <path d="M166,159.809c-9.125,26.219 -6.875,84.744 0,111.457l0.093,0.431c3.751,14.337 9.688,28.653 20.907,39.812c11.219,11.163 28.469,18.707 45.562,16.728c16.532,-1.912 30.406,-12.365 38.469,-24.8c8.063,-12.431 11.188,-26.712 13.438,-40.784c3.906,-24.503 2.875,-102.162 0.125,-102.359c-35.625,-2.566 -83.938,-8.772 -118.594,-1.338l0,0.853Z" style="fill:#b77456;fill-rule:nonzero;"></path>
    <path d="M283.031,249.509c0.876,-5.609 8.5,-9.115 14.625,-7.468c6.125,1.643 10.188,7.268 10.625,12.915c0.469,5.647 -2.125,11.203 -5.781,15.847c-6.125,7.744 -16.844,13.753 -27.187,11.359c1.656,-11.612 4,-23.147 7.062,-34.531l0.656,1.878Z" style="fill:#b77456;fill-rule:nonzero;"></path>
    <path d="M166.937,249.509c-0.875,-5.609 -8.5,-9.115 -14.625,-7.468c-6.124,1.643 -10.156,7.268 -10.624,12.915c-0.469,5.647 2.125,11.203 5.781,15.847c6.124,7.744 16.844,13.753 27.187,11.359c-1.656,-11.612 -3.999,-23.147 -7.062,-34.531l-0.657,1.878Z" style="fill:#b77456;fill-rule:nonzero;"></path>
    <path d="M286.625,243.509c-0.531,-19.262 -4,-51.49 -4.531,-70.753c-8.469,7.635 -22.688,7.738 -31.25,0.228c-2.094,-1.831 -4.251,-4.19 -7.031,-4.028c-2.375,0.138 -4.157,2.119 -5.938,3.722c-6.875,6.247 -17.406,8.153 -26.031,4.719c-3.781,-1.503 -7.469,-3.988 -11.531,-3.569c-3.25,0.334 -6.001,2.487 -8.938,3.894c-7.594,3.603 -17.344,1.878 -23.25,-4.1c-1.219,19.287 -2.437,51.156 -3.656,70.443c-2.344,-1.815 -5.376,-2.678 -8.313,-2.349c1.656,-19.369 1.688,-51.46 0.125,-70.838c-0.593,-7.394 -1.437,-14.919 0.157,-22.166c1.593,-7.246 6.093,-14.328 13.093,-16.809c7,-2.478 16.188,1.434 17.501,8.738c-5.063,-14.522 1.468,-32.885 15.625,-38.866c14.156,-5.981 33.312,4.337 34.062,19.694c3.718,-9.7 16.124,-14.991 25.687,-10.966c9.594,4.025 14.501,16.584 10.156,26.031c2.626,-3.422 5.375,-6.94 9.156,-9.006c3.782,-2.062 8.938,-2.278 12.095,0.669c4.906,4.606 2.062,12.747 -1.094,18.709c5.406,-4.309 13.875,2.288 13.875,9.213c0,6.922 -5,12.706 -9.688,17.787c5.375,2.16 3.438,10.103 1.063,15.391c-5.344,12.018 -5.375,37.281 -5.032,50.437c-2.062,-6.872 -0.75,-5.187 -5.03,2.519l-1.282,1.256Z" style="fill:#241e21;fill-rule:nonzero;"></path>
    <path d="M286.219,266.787c3.219,-3.384 6.437,-5.925 10.406,-8.262c0.844,-0.5 1.219,-1.725 0.657,-2.581c-0.532,-0.86 -1.657,-1.213 -2.563,-0.678c-4.094,2.409 -7.875,5.4 -11.157,8.853c-0.687,0.715 -0.75,1.965 0,2.668c0.75,0.675 1.938,0.766 2.657,0Z" style="fill:#66331f;fill-rule:nonzero;"></path>
    <path d="M289.656,264.978c1.313,1.578 2.625,3.159 3.938,4.741c0.312,0.35 0.906,0.553 1.344,0.553c0.468,-0 1.031,-0.207 1.343,-0.553c0.312,-0.36 0.563,-0.835 0.563,-1.335c-0.032,-0.528 -0.219,-0.931 -0.563,-1.337c-1.313,-1.578 -2.625,-3.16 -3.968,-4.741c-0.282,-0.35 -0.875,-0.553 -1.313,-0.553c-0.469,0 -1.031,0.206 -1.344,0.553c-0.312,0.36 -0.562,0.834 -0.562,1.335c0.031,0.528 0.219,0.931 0.562,1.337Z" style="fill:#66331f;fill-rule:nonzero;"></path>
    <path d="M150.25,256.54c4.344,2.519 7.469,6.685 8.688,11.547c0.249,0.988 1.343,1.585 2.312,1.319c1,-0.278 1.563,-1.331 1.313,-2.322c-1.438,-5.762 -5.282,-10.815 -10.407,-13.803c-0.875,-0.512 -2.062,-0.203 -2.562,0.675c-0.532,0.884 -0.219,2.069 0.656,2.584Z" style="fill:#66331f;fill-rule:nonzero;"></path>
    <path d="M154.656,264.659c0.157,-0.347 0.344,-0.672 0.563,-0.975l-0.281,0.382c0.249,-0.329 0.531,-0.625 0.875,-0.882l-0.376,0.294c0.345,-0.266 0.719,-0.487 1.126,-0.656l-0.469,0.191c0.375,-0.154 0.75,-0.26 1.156,-0.316l-0.5,0.065l0.156,-0.018l0.75,-0.163l0.594,-0.39c0.312,-0.329 0.563,-0.866 0.563,-1.335c-0.032,-0.487 -0.188,-0.993 -0.563,-1.334c-0.344,-0.319 -0.843,-0.606 -1.344,-0.553c-1.156,0.125 -2.312,0.459 -3.281,1.165c-0.937,0.688 -1.75,1.541 -2.25,2.622l-0.218,0.7l0.031,0.753c0.124,0.438 0.468,0.913 0.874,1.128c0.438,0.232 0.969,0.347 1.47,0.191c0.437,-0.141 0.937,-0.428 1.124,-0.869Z" style="fill:#66331f;fill-rule:nonzero;"></path>
    <path d="M229.188,234.741c-0.063,5.781 -0.094,11.562 -0.157,17.343c-0.031,1.554 1.594,2.191 2.844,1.632c4.188,-1.875 9.5,1.515 9.25,6.15c-0.125,2.15 -1.281,4.296 -3.063,5.493c-2.687,1.763 -6.156,0.991 -9.031,0.272c-2.343,-0.594 -3.344,3.047 -1,3.638c4.125,1.031 8.782,1.665 12.406,-0.994c2.782,-2.016 4.47,-5.388 4.47,-8.813c-0,-7.55 -8.407,-11.928 -14.938,-9.006c0.937,0.544 1.875,1.088 2.843,1.628c0.032,-5.781 0.094,-11.562 0.157,-17.343c-0,-2.429 -3.781,-2.432 -3.781,-0Z" style="fill:#66331f;fill-rule:nonzero;"></path>
    <path d="M199.781,234.322c0,4.653 -2.843,8.428 -6.344,8.428c-3.499,-0 -6.343,-3.775 -6.343,-8.428c0,-4.656 2.844,-8.428 6.343,-8.428c3.501,-0 6.344,3.772 6.344,8.428Z" style="fill:#1a1a1a;fill-rule:nonzero;"></path>
    <path d="M264.344,234.322c0,4.653 -2.844,8.428 -6.344,8.428c-3.5,-0 -6.344,-3.775 -6.344,-8.428c0,-4.656 2.844,-8.428 6.344,-8.428c3.5,-0 6.344,3.772 6.344,8.428Z" style="fill:#1a1a1a;fill-rule:nonzero;"></path>
    <path d="M207.438,278.294c5.718,4.362 12.937,6.647 20.125,6.472c2.437,-0.06 2.437,-3.835 -0,-3.775c-6.594,0.159 -12.969,-1.96 -18.219,-5.957c-0.813,-0.618 -2.125,-0.128 -2.594,0.675c-0.563,0.972 -0.125,1.963 0.688,2.585Z" style="fill:#66331f;fill-rule:nonzero;"></path>
    <path d="M250.063,214.791c0.499,-0.647 1.094,-1.175 1.656,-1.757c0.375,-0.365 -0.531,0.35 -0.094,0.06l0.469,-0.325c0.344,-0.238 0.718,-0.456 1.094,-0.654l0.531,-0.246c-0.032,-0.032 -0.688,0.256 -0.126,0.053c0.407,-0.144 0.813,-0.278 1.251,-0.381l0.531,-0.129c0.125,-0.018 0.75,-0.128 0.219,-0.046c-0.531,0.081 0.094,-0.004 0.188,-0.01l0.718,-0.028l1.156,0.05c-0.031,0.047 -0.812,-0.144 -0.156,-0.019l0.563,0.113c0.406,0.094 0.812,0.212 1.218,0.35c0.094,0.031 0.688,0.24 0.219,0.065c-0.469,-0.168 0.094,0.054 0.188,0.1c0.406,0.188 0.781,0.394 1.124,0.622l0.501,0.313c0.468,0.306 0.031,-0.078 -0.094,-0.075l0.968,0.862c0.282,0.307 0.563,0.628 0.844,0.966c1.219,1.547 4.063,1.387 5.313,-0c1.531,-1.647 1.344,-3.688 0,-5.341c-2.782,-3.497 -7.375,-5.587 -11.844,-5.556c-4.438,0.028 -9.031,2.138 -11.781,5.675c-0.656,0.825 -1.125,1.575 -1.125,2.669c-0,0.925 0.438,2.034 1.125,2.669c1.343,1.243 4.031,1.665 5.344,-0Z" style="fill:#1a1a1a;fill-rule:nonzero;"></path>
    <path d="M189.656,212.275c0.501,-0.647 1.094,-1.178 1.656,-1.756c0.376,-0.366 -0.531,0.35 -0.093,0.059l0.469,-0.328c0.343,-0.235 0.718,-0.453 1.124,-0.65l0.501,-0.25c-0.031,-0.028 -0.688,0.256 -0.125,0.053c0.406,-0.141 0.812,-0.275 1.249,-0.381l0.531,-0.125c0.126,-0.022 0.751,-0.128 0.219,-0.05c-0.531,0.081 0.094,-0 0.188,-0.009l0.719,-0.029l1.156,0.053c-0.031,0.047 -0.812,-0.143 -0.156,-0.018l0.562,0.109c0.407,0.094 0.813,0.213 1.219,0.353c0.094,0.031 0.688,0.238 0.219,0.066c-0.469,-0.172 0.125,0.053 0.219,0.097c0.374,0.187 0.75,0.397 1.124,0.622l0.469,0.315c0.469,0.306 0.032,-0.078 -0.093,-0.078l0.968,0.866c0.281,0.303 0.563,0.628 0.844,0.962c1.219,1.55 4.062,1.388 5.344,0c1.5,-1.644 1.312,-3.684 -0,-5.337c-2.813,-3.497 -7.407,-5.588 -11.875,-5.56c-4.438,0.028 -9.031,2.138 -11.782,5.678c-0.656,0.825 -1.093,1.575 -1.093,2.669c0,0.925 0.406,2.031 1.093,2.669c1.344,1.244 4.032,1.666 5.344,-0Z" style="fill:#1a1a1a;fill-rule:nonzero;"></path>
    <path d="M180.656,340.703c26.812,8.95 60.75,7.859 86.907,-3.031c-1.063,-1.175 0.187,17.534 -0,16.825c-0.157,-0.707 117.219,3.381 128.094,101.684l-168.157,41.528l-176.875,-41.528c-0,0 10.281,-50.815 44.719,-73.065c33.999,-21.944 86.687,-28.619 86.687,-28.619l-1.375,-13.794Z" style="fill:#e9a167;fill-rule:nonzero;"></path>
    <clipPath id="_clip3">
      <path d="M180.656,340.7c26.812,8.953 60.75,7.862 86.907,-3.025c-0.532,-0.597 -0.469,3.897 -0.313,8.394c0.156,4.387 0.406,8.778 0.313,8.428c-0.157,-0.707 117.219,3.381 128.094,101.684l-345.032,0c-0,0 10.281,-50.812 44.719,-73.065c33.999,-21.944 86.687,-28.619 86.687,-28.619l-1.375,-13.797Z"></path>
    </clipPath>
    <g clip-path="url(#_clip3)">
      <path d="M187.625,340.766c1,7.384 2,14.771 2.969,22.156c0.156,1.012 0.781,1.887 1.906,1.887c0.906,0 2.031,-0.868 1.875,-1.887c-0.969,-7.385 -1.969,-14.772 -2.969,-22.156c-0.125,-1.01 -0.781,-1.888 -1.875,-1.888c-0.937,0 -2.031,0.869 -1.906,1.888Z" style="fill:#aa6f48;fill-rule:nonzero;"></path>
    </g>
    <clipPath id="_clip4">
      <path d="M180.656,340.7c26.812,8.953 60.75,7.862 86.907,-3.025c-0.532,-0.597 -0.469,3.897 -0.313,8.394c0.156,4.387 0.406,8.778 0.313,8.428c-0.157,-0.707 117.219,3.381 128.094,101.684l-345.032,0c-0,0 10.281,-50.812 44.719,-73.065c33.999,-21.944 86.687,-28.619 86.687,-28.619l-1.375,-13.797Z"></path>
    </clipPath>
    <g clip-path="url(#_clip4)">
      <path d="M202.062,341.722c0.25,8.669 0.501,17.334 0.75,26.003c0.094,2.425 3.845,2.434 3.782,-0c-0.25,-8.669 -0.5,-17.334 -0.75,-26.003c-0.094,-2.425 -3.844,-2.435 -3.782,-0Z" style="fill:#aa6f48;fill-rule:nonzero;"></path>
    </g>
    <clipPath id="_clip5">
      <path d="M180.656,340.7c26.812,8.953 60.75,7.862 86.907,-3.025c-0.532,-0.597 -0.469,3.897 -0.313,8.394c0.156,4.387 0.406,8.778 0.313,8.428c-0.157,-0.707 117.219,3.381 128.094,101.684l-345.032,0c-0,0 10.281,-50.812 44.719,-73.065c33.999,-21.944 86.687,-28.619 86.687,-28.619l-1.375,-13.797Z"></path>
    </clipPath>
    <g clip-path="url(#_clip5)">
      <path d="M219.813,343.144c1.468,7.79 1.968,15.718 1.594,23.634c-0.126,2.431 3.656,2.425 3.781,-0c0.406,-8.256 -0.219,-16.519 -1.751,-24.641c-0.437,-2.384 -4.093,-1.374 -3.624,1.007Z" style="fill:#aa6f48;fill-rule:nonzero;"></path>
    </g>
    <clipPath id="_clip6">
      <path d="M180.656,340.7c26.812,8.953 60.75,7.862 86.907,-3.025c-0.532,-0.597 -0.469,3.897 -0.313,8.394c0.156,4.387 0.406,8.778 0.313,8.428c-0.157,-0.707 117.219,3.381 128.094,101.684l-345.032,0c-0,0 10.281,-50.812 44.719,-73.065c33.999,-21.944 86.687,-28.619 86.687,-28.619l-1.375,-13.797Z"></path>
    </clipPath>
    <g clip-path="url(#_clip6)">
      <path d="M239.344,341.675c0.594,7.387 0.719,14.806 0.343,22.209c-0.125,2.428 3.626,2.422 3.75,0c0.376,-7.403 0.282,-14.822 -0.312,-22.209c-0.188,-2.406 -3.969,-2.425 -3.781,-0Z" style="fill:#aa6f48;fill-rule:nonzero;"></path>
    </g>
    <clipPath id="_clip7">
      <path d="M180.656,340.7c26.812,8.953 60.75,7.862 86.907,-3.025c-0.532,-0.597 -0.469,3.897 -0.313,8.394c0.156,4.387 0.406,8.778 0.313,8.428c-0.157,-0.707 117.219,3.381 128.094,101.684l-345.032,0c-0,0 10.281,-50.812 44.719,-73.065c33.999,-21.944 86.687,-28.619 86.687,-28.619l-1.375,-13.797Z"></path>
    </clipPath>
    <g clip-path="url(#_clip7)">
      <path d="M253.469,338.797c1.093,8.475 1,17.081 -0.407,25.512c-0.374,2.378 3.251,3.397 3.656,1.003c1.439,-8.781 1.657,-17.681 0.532,-26.515c-0.125,-1.019 -0.781,-1.875 -1.875,-1.888c-0.938,-0.009 -2.031,0.878 -1.906,1.888Z" style="fill:#aa6f48;fill-rule:nonzero;"></path>
    </g>
    <clipPath id="_clip8">
      <path d="M180.656,340.7c26.812,8.953 60.75,7.862 86.907,-3.025c-0.532,-0.597 -0.469,3.897 -0.313,8.394c0.156,4.387 0.406,8.778 0.313,8.428c-0.157,-0.707 117.219,3.381 128.094,101.684l-345.032,0c-0,0 10.281,-50.812 44.719,-73.065c33.999,-21.944 86.687,-28.619 86.687,-28.619l-1.375,-13.797Z"></path>
    </clipPath>
    <g clip-path="url(#_clip8)">
      <path d="M111.282,408.2c-2.375,23.762 -4.782,47.525 -7.157,71.284c-0.25,2.416 3.531,2.4 3.781,0c2.375,-23.759 4.782,-47.522 7.157,-71.284c0.249,-2.416 -3.532,-2.397 -3.781,-0Z" style="fill:#aa6f48;fill-rule:nonzero;"></path>
    </g>
    <clipPath id="_clip9">
      <path d="M180.656,340.7c26.812,8.953 60.75,7.862 86.907,-3.025c-0.532,-0.597 -0.469,3.897 -0.313,8.394c0.156,4.387 0.406,8.778 0.313,8.428c-0.157,-0.707 117.219,3.381 128.094,101.684l-345.032,0c-0,0 10.281,-50.812 44.719,-73.065c33.999,-21.944 86.687,-28.619 86.687,-28.619l-1.375,-13.797Z"></path>
    </clipPath>
    <g clip-path="url(#_clip9)">
      <path d="M338.844,405.7c4.093,20.794 8.875,41.45 14.312,61.937c0.625,2.344 4.251,1.35 3.625,-1.003c-5.437,-20.487 -10.188,-41.143 -14.312,-61.937c-0.469,-2.381 -4.094,-1.375 -3.625,1.003Z" style="fill:#aa6f48;fill-rule:nonzero;"></path>
    </g>
    <path d="M313.469,367.712c0.343,-0.781 0.75,-1.534 1.187,-2.246l0.407,-0.572l0.156,-0.235l-0.031,0.06l0.437,-0.535l0.407,-0.471c0.312,-0.31 0.593,-0.607 0.905,-0.888l0.501,-0.416l0.249,-0.215l-0.062,0.047c0.719,-0.516 1.438,-0.966 2.219,-1.354c0.906,-0.443 1.218,-1.765 0.687,-2.584c-0.593,-0.903 -1.625,-1.15 -2.594,-0.675c-3.375,1.697 -6.218,4.675 -7.718,8.178c-0.188,0.488 -0.344,0.919 -0.188,1.453c0.125,0.441 0.469,0.913 0.875,1.128c0.813,0.429 2.156,0.294 2.563,-0.675Z" style="fill:#e9a167;fill-rule:nonzero;"></path>
    <path d="M320.75,370.409c2.282,-1.578 4.532,-3.156 6.813,-4.731c0.406,-0.287 0.718,-0.634 0.875,-1.128c0.124,-0.453 0.062,-1.056 -0.188,-1.456c-0.531,-0.803 -1.719,-1.278 -2.594,-0.678c-2.281,1.578 -4.531,3.156 -6.812,4.731c-0.407,0.287 -0.719,0.634 -0.875,1.128c-0.125,0.453 -0.063,1.056 0.219,1.456c0.499,0.803 1.687,1.278 2.562,0.678Z" style="fill:#e9a167;fill-rule:nonzero;"></path>
    <path d="M131.469,362.537c5.062,1.485 10.156,2.969 15.25,4.45c2.312,0.682 3.312,-2.959 1,-3.64c-5.094,-1.481 -10.188,-2.966 -15.251,-4.45c-2.343,-0.681 -3.343,2.962 -0.999,3.64Z" style="fill:#e9a167;fill-rule:nonzero;"></path>
    <path d="M106.344,369.487c4.156,1.328 8.312,2.66 12.469,3.988c0.968,0.303 2.124,-0.35 2.343,-1.316c0.219,-1.034 -0.312,-2.003 -1.312,-2.325c-4.188,-1.328 -8.344,-2.659 -12.5,-3.987c-0.938,-0.3 -2.094,0.35 -2.312,1.319c-0.251,1.031 0.312,2 1.312,2.321Z" style="fill:#e9a167;fill-rule:nonzero;"></path>
    <path d="M96.188,380.3c4.75,-0.119 9.406,0.503 13.968,1.859c2.313,0.7 3.313,-2.943 1,-3.64c-4.843,-1.444 -9.906,-2.122 -14.968,-1.994c-1.032,0.028 -1.876,0.85 -1.876,1.887c0,1.004 0.844,1.916 1.876,1.888Z" style="fill:#e9a167;fill-rule:nonzero;"></path>
    <path d="M287.437,404.884c0.625,2.572 1.251,5.15 1.876,7.725c0.218,0.96 1.375,1.625 2.312,1.316c1,-0.322 1.563,-1.291 1.312,-2.322c-0.624,-2.575 -1.218,-5.15 -1.844,-7.725c-0.249,-0.959 -1.374,-1.625 -2.343,-1.316c-1,0.322 -1.563,1.291 -1.313,2.322Z" style="fill:#aa6f48;fill-rule:nonzero;"></path>
    <path d="M297.656,407.859c0.407,2.56 0.813,5.116 1.219,7.675c0.062,0.435 0.5,0.913 0.843,1.128c0.407,0.235 1.032,0.335 1.47,0.188c1.062,-0.344 1.469,-1.272 1.312,-2.322c-0.406,-2.556 -0.781,-5.116 -1.188,-7.672c-0.094,-0.437 -0.499,-0.915 -0.875,-1.128c-0.406,-0.237 -0.999,-0.337 -1.468,-0.191c-1.063,0.344 -1.469,1.272 -1.313,2.322Z" style="fill:#aa6f48;fill-rule:nonzero;"></path>
    <path d="M268.969,421.816c0.188,0.29 0.343,0.581 0.5,0.881l0.219,0.422l0.093,0.243l-0.031,-0.081c0.063,0.291 0.25,0.6 0.344,0.881c0.093,0.297 0.187,0.597 0.25,0.9c0.094,0.304 0.156,0.61 0.219,0.919l0.094,0.528c0.062,0.391 -0.032,-0.397 -0,0.032c0.062,0.671 0.093,1.334 0.062,2.009c-0.031,0.987 0.906,1.934 1.906,1.887c1.031,-0.046 1.844,-0.828 1.875,-1.887c0.094,-3.013 -0.718,-6.056 -2.25,-8.638c-0.531,-0.846 -1.719,-1.234 -2.594,-0.678c-0.843,0.547 -1.219,1.678 -0.687,2.582Z" style="fill:#aa6f48;fill-rule:nonzero;"></path>
    <path d="M153.094,415.056l-0,9.638c-0,0.987 0.875,1.934 1.906,1.887c1,-0.044 1.875,-0.828 1.875,-1.887l-0,-9.638c-0,-0.987 -0.875,-1.934 -1.875,-1.887c-1.031,0.043 -1.906,0.828 -1.906,1.887Z" style="fill:#aa6f48;fill-rule:nonzero;"></path>
    <path d="M169.406,414.616c0.625,3.54 1.219,7.084 1.813,10.625c0.156,0.975 1.437,1.609 2.312,1.318c1.063,-0.343 1.5,-1.278 1.344,-2.325c-0.625,-3.54 -1.219,-7.081 -1.812,-10.622c-0.157,-0.975 -1.438,-1.609 -2.313,-1.318c-1.062,0.34 -1.5,1.275 -1.344,2.322Z" style="fill:#aa6f48;fill-rule:nonzero;"></path>
    <path d="M185.938,397.247c0.218,0.747 0.437,1.503 0.593,2.269c0.063,0.412 0.156,0.828 0.219,1.243c0.094,0.585 -0.031,-0.375 0.031,0.213l0.063,0.631c0.156,1.588 0.125,3.188 -0.031,4.775c-0.094,0.984 0.937,1.931 1.875,1.888c1.124,-0.05 1.781,-0.832 1.906,-1.888c0.344,-3.394 -0,-6.878 -1.032,-10.134c-0.281,-0.944 -1.312,-1.641 -2.312,-1.319c-0.937,0.306 -1.625,1.309 -1.312,2.322Z" style="fill:#aa6f48;fill-rule:nonzero;"></path>
    <path d="M203.031,171.216c0.25,6.103 0.75,12.618 5.126,17.331c3.593,3.894 9.437,5.259 13.906,1.972c2.062,-1.507 3.499,-3.85 3.468,-6.46c-0.063,-2.862 -2.094,-5.265 -5.062,-5.228c-2.782,0.038 -5.063,2.172 -5.657,4.853c-0.562,2.588 0.063,5.4 1.532,7.588c3,4.475 9.156,6.85 14.281,4.762c0.938,-0.384 1.625,-1.259 1.312,-2.322c-0.25,-0.893 -1.343,-1.706 -2.312,-1.318c-2.875,1.169 -6.125,0.581 -8.5,-1.397c-1.187,-0.988 -2.125,-2.275 -2.531,-3.775c-0.375,-1.381 -0.438,-3.575 1.031,-4.369c1.5,-0.809 2.313,0.456 2.094,1.897c-0.281,1.5 -1.469,2.65 -2.781,3.294c-3.188,1.553 -6.532,-0.172 -8.594,-2.725c-3.188,-3.91 -3.344,-9.319 -3.532,-14.103c-0.094,-2.422 -3.875,-2.435 -3.781,-0Z" style="fill:#241e21;fill-rule:nonzero;"></path>
  </g>
</svg>
