<?xml version="1.0" encoding="UTF-8" standalone="no"?>
<svg preserveAspectRatio="xMidYMid slice" width="34px" height="34px" xmlns="http://www.w3.org/2000/svg" xmlns:xlink="http://www.w3.org/1999/xlink" xmlns:serif="http://www.serif.com/"   viewBox="0 0 449 449" version="1.1" xml:space="preserve" style="fill-rule:evenodd;clip-rule:evenodd;stroke-linejoin:round;stroke-miterlimit:2;">
  <path d="M448.625,224.303c0,123.878 -100.438,224.3 -224.312,224.3c-123.875,0 -224.313,-100.422 -224.313,-224.3c0,-123.878 100.438,-224.303 224.313,-224.303c123.874,0 224.312,100.425 224.312,224.303Z" style="fill:#fff;"></path>
  <clipPath id="_clip1">
    <path d="M448.625,224.303c0,123.878 -100.438,224.3 -224.312,224.3c-123.875,0 -224.313,-100.422 -224.313,-224.3c0,-123.878 100.438,-224.303 224.313,-224.303c123.874,0 224.312,100.425 224.312,224.303Z"></path>
  </clipPath>
  <g clip-path="url(#_clip1)">
    <path d="M211.125,318.806c-2.563,11.822 -10.625,23.003 -22.219,26.553c-11.562,3.547 -26.062,-2.719 -29.124,-14.415c-1.5,5.443 -7.938,8.303 -13.563,7.678c-5.625,-0.625 -10.562,-3.847 -15.219,-7.053c-12.969,-8.928 -26.062,-19.104 -32.312,-33.547c-6.25,-14.441 -2.938,-34.169 11.031,-41.438c-14.156,-19.237 -19.625,-44.621 -14.625,-67.981c2.406,-11.365 7.469,-22.559 16.281,-30.122c8.844,-7.562 21.907,-10.794 32.5,-5.997c-1.031,-20.743 0.219,-45.878 18.344,-56.072c6.031,-3.39 13.063,-4.45 19.969,-4.949c19.812,-1.435 43.687,4.093 50.499,22.715c12.22,-13.787 30.469,-23.584 48.751,-21.097c18.281,2.488 34.531,20.235 31.218,38.36c12.156,-8.81 31.501,-2.61 37.938,10.953c6.437,13.562 0.469,31.097 -11.875,39.672c14.406,0.256 25.656,14.559 26.625,28.912c0.968,14.35 -6.032,28.116 -14.75,39.559c10.063,11.816 10.594,30.663 1.219,43.029c-4.438,5.89 -10.75,10.271 -14.781,16.456c-2.876,4.387 -4.5,9.519 -7.532,13.806c-6.906,9.809 -21.375,13.394 -32.063,7.947c-5.281,16.1 -26.999,24.172 -41.53,15.425c-7.188,6.662 -18.532,8.453 -27.438,4.341c-8.938,-4.11 -14.906,-13.878 -14.5,-23.682l-2.844,-9.053Z" style="fill:#f9e5cb;fill-rule:nonzero;"></path>
    <path d="M337.813,394.231c-20.876,-13.956 -46.094,-19.544 -70.688,-24.484c-1.5,-0.3 -3.063,-0.628 -4.281,-1.569c-2.063,-1.612 2.625,-55.925 0,-79.672l-35.125,3.288l-35.156,-3.288c-2.625,23.747 2.062,78.06 -0,79.672c-1.188,0.941 -2.751,1.269 -4.282,1.569c-24.593,4.94 -49.812,10.528 -70.687,24.484c-20.844,13.956 -36.656,38.297 -33.313,63.153c20.969,-0.106 79.438,0.272 138.657,1.05l-0,0.128c1.594,-0.021 3.187,-0.043 4.781,-0.065c1.563,0.022 3.156,0.044 4.75,0.065l0,-0.128c59.219,-0.778 117.719,-1.156 138.656,-1.05c3.344,-24.856 -12.469,-49.197 -33.312,-63.153Z" style="fill:#f0bf85;fill-rule:nonzero;"></path>
    <clipPath id="_clip2">
      <path d="M337.813,394.231c-20.876,-13.953 -46.094,-19.544 -70.688,-24.484c-1.5,-0.3 -3.063,-0.628 -4.281,-1.569c-2.063,-1.612 2.625,-55.925 0,-79.672l-35.125,3.288l-35.156,-3.288c-2.625,23.747 2.062,78.06 -0,79.672c-1.188,0.941 -2.751,1.269 -4.282,1.569c-24.593,4.94 -49.812,10.531 -70.687,24.484c-20.844,13.956 -36.656,38.297 -33.313,63.153c20.969,-0.109 79.438,0.272 138.657,1.047l-0,0.131c1.594,-0.021 3.187,-0.043 4.781,-0.065c1.563,0.022 3.156,0.044 4.75,0.065l0,-0.131c59.219,-0.775 117.719,-1.156 138.656,-1.047c3.344,-24.856 -12.469,-49.197 -33.312,-63.153Z"></path>
    </clipPath>
    <g clip-path="url(#_clip2)">
      <path d="M145.782,287.744c13.875,-8.919 14.468,-13.194 15.124,-8.919c3.282,21.019 36.531,71.653 66.782,71.653c39.125,-0 61.844,-65.987 65.5,-82.619c-45.219,6.46 -91.032,12.925 -136.407,7.491c1.25,1.175 2.5,2.35 3.751,3.525l-14.75,8.869Z" style="fill:#d3a06c;fill-rule:nonzero;"></path>
    </g>
    <path d="M301.594,261.25c-0.406,-5.647 -4,-11.272 -9.406,-12.916c-3.563,-1.081 -7.688,0.072 -10.344,2.572c1.781,-30.39 0.812,-77.691 -1.25,-77.862c-31.532,-2.669 -74.344,-9.119 -105.032,-1.388l0,0.884c-5.906,19.922 -6.405,50.794 -3.875,76.81c-2.468,-1.372 -5.531,-1.838 -8.249,-1.016c-5.407,1.644 -9.001,7.269 -9.407,12.916c-0.406,5.647 1.907,11.203 5.156,15.847c4.595,6.612 12.22,11.941 20.032,11.875c3.313,10.253 7.969,20.018 14.938,28.162c9.937,11.6 25.218,19.444 40.374,17.388c14.625,-1.991 26.907,-12.856 34.063,-25.778c3.437,-6.222 5.844,-12.894 7.656,-19.772c7.875,0.137 15.563,-5.222 20.219,-11.875c3.219,-4.644 5.531,-10.2 5.125,-15.847Z" style="fill:#f0bf85;fill-rule:nonzero;"></path>
    <path d="M164.563,248.491c12.718,-20.6 19.156,-45.032 18.187,-69.222c2.156,6.49 10,9.803 16.719,8.606c6.75,-1.197 12.344,-5.878 16.718,-11.141c11.125,8.953 27.594,10.635 40.282,4.11c-5.25,5.59 -6.25,14.697 -2.406,21.315c3.875,6.619 12.343,10.194 19.781,8.372c-2.094,5.238 -3.969,10.75 -3.657,16.385c0.313,5.634 3.25,11.45 8.469,13.646c-3.625,1.625 -2.969,7.744 0.594,9.513c3.563,1.769 8.062,-0.094 10.562,-3.188c2.469,-3.09 3.438,-7.106 4.313,-10.974c4.25,-18.422 8.5,-37.351 5.844,-56.066c-0.75,-5.319 -2.125,-10.697 -5.219,-15.085c-7.531,-10.615 -22.344,-12.312 -35.344,-13.053c-20.968,-1.19 -41.937,-2.384 -62.906,-3.578c-10.031,-0.569 -21.156,-0.772 -28.688,5.835c-4.625,4.043 -7.031,9.993 -8.905,15.821c-8.157,24.972 -9.782,52.032 -4.719,77.8c2.406,0.507 4.844,1.013 7.25,1.519l3.125,-0.615Z" style="fill:#f9e5cb;fill-rule:nonzero;"></path>
    <path d="M223.219,172.522c-7.906,2.8 -10.469,12.175 -8.313,19.694c1.25,4.35 4.251,8.415 8.375,10.434c4.031,1.984 8.938,1.659 11.75,-2.106c2.594,-3.41 2.688,-8.525 -1.124,-11.05c-0.501,-0.35 -1.375,-0.353 -1.907,-0c-3.75,2.522 -5.75,6.618 -6.25,11.043c-0.625,5.429 1.282,10.741 3.125,15.753c0.844,2.26 4.5,1.282 3.657,-1.006c-2.5,-6.74 -6.157,-17.465 1.375,-22.531l-1.907,0c2.563,1.687 0.562,5.919 -1.625,6.963c-4.156,1.984 -8.812,-2.328 -10.656,-5.641c-3.156,-5.625 -2.438,-15.45 4.5,-17.913c2.281,-0.806 1.312,-4.456 -1,-3.64Z" style="fill:#f9e5cb;fill-rule:nonzero;"></path>
    <path d="M200.094,247.128c-0,3.547 -2.812,6.422 -6.281,6.422c-3.469,-0 -6.282,-2.875 -6.282,-6.422c0,-3.547 2.813,-6.422 6.282,-6.422c3.469,0 6.281,2.875 6.281,6.422Z" style="fill:#1a1a1a;fill-rule:nonzero;"></path>
    <path d="M264.219,247.128c-0,3.547 -2.812,6.422 -6.281,6.422c-3.469,-0 -6.282,-2.875 -6.282,-6.422c0,-3.547 2.813,-6.422 6.282,-6.422c3.469,0 6.281,2.875 6.281,6.422Z" style="fill:#1a1a1a;fill-rule:nonzero;"></path>
    <path d="M224.532,240.309c-0.188,7.988 -0.282,17.044 4.937,23.647c4.25,5.413 11.906,8.51 18.375,5.153c-0.875,-0.862 -1.719,-1.722 -2.594,-2.584c-3.125,5.203 -7.219,9.753 -12.125,13.334c-1.969,1.419 -0.062,4.694 1.906,3.26c5.438,-3.975 10.001,-8.907 13.469,-14.688c1.032,-1.681 -0.938,-3.425 -2.563,-2.581c-5.124,2.672 -11.406,-0.806 -14.28,-5.25c-3.813,-5.913 -3.501,-13.544 -3.344,-20.291c0.062,-2.431 -3.719,-2.431 -3.781,0Z" style="fill:#a46e4a;fill-rule:nonzero;"></path>
    <path d="M212.719,293.566c6.438,5.759 16.718,6.515 23.812,1.406c0.813,-0.597 1.219,-1.641 0.657,-2.581c-0.469,-0.816 -1.75,-1.278 -2.563,-0.679c-5.656,4.088 -13.968,3.888 -19.25,-0.815c-1.812,-1.616 -4.469,1.047 -2.656,2.669Z" style="fill:#a46e4a;fill-rule:nonzero;"></path>
    <path d="M280.625,270.753c0.313,-0.487 0.625,-0.969 0.938,-1.431l0.249,-0.331l0.157,-0.2l0.156,-0.191l0.313,-0.378c0.719,-0.85 1.5,-1.647 2.344,-2.378l0.624,-0.525l0.344,-0.256c-0.312,0.228 -0,-0.007 0.062,-0.051c0.47,-0.34 0.938,-0.662 1.407,-0.965c0.968,-0.61 2,-1.138 3.063,-1.594c0.905,-0.394 1.156,-1.797 0.656,-2.581c-0.594,-0.944 -1.594,-1.1 -2.563,-0.678c-4.562,1.968 -8.437,5.425 -11,9.653c-0.5,0.847 -0.219,2.112 0.687,2.584c0.907,0.485 2.032,0.225 2.563,-0.678Z" style="fill:#a46e4a;fill-rule:nonzero;"></path>
    <path d="M283.344,267.369c0.312,0.193 0.625,0.406 0.937,0.628l-0.062,-0.035l0.25,0.194l0.375,0.366c0.281,0.281 0.562,0.578 0.813,0.887l-0.063,-0.1l0.156,0.244l0.344,0.5c0.188,0.322 0.375,0.656 0.531,1l0.125,0.216c0.156,0.372 -0.125,-0.291 -0.031,-0.063l0.187,0.563c0.126,0.359 0.219,0.725 0.313,1.096l0.093,0.591l-0.031,-0.147l0.031,0.36c0.063,0.981 0.813,1.934 1.876,1.887c0.969,-0.043 1.968,-0.834 1.906,-1.887c-0.281,-3.925 -2.437,-7.56 -5.844,-9.56c-0.875,-0.5 -2.125,-0.222 -2.594,0.678c-0.468,0.907 -0.249,2.051 0.688,2.582Z" style="fill:#a46e4a;fill-rule:nonzero;"></path>
    <path d="M164,259.281c2.594,4.285 5.157,8.566 7.75,12.847c0.5,0.875 1.688,1.197 2.563,0.678c0.875,-0.512 1.218,-1.706 0.687,-2.581c-2.563,-4.285 -5.156,-8.566 -7.719,-12.85c-0.531,-0.872 -1.719,-1.194 -2.594,-0.675c-0.875,0.509 -1.187,1.706 -0.687,2.581Z" style="fill:#a46e4a;fill-rule:nonzero;"></path>
    <path d="M164.125,271.353c1.719,-1.281 3.407,-2.562 5.125,-3.844c0.438,-0.306 0.75,-0.618 0.875,-1.128c0.125,-0.453 0.062,-1.053 -0.187,-1.456c-0.25,-0.403 -0.657,-0.756 -1.125,-0.869c-0.469,-0.103 -1.063,-0.106 -1.469,0.191c-1.688,1.284 -3.407,2.566 -5.125,3.847c-0.438,0.306 -0.75,0.618 -0.875,1.128c-0.125,0.453 -0.062,1.053 0.187,1.453c0.25,0.403 0.657,0.759 1.125,0.869c0.469,0.106 1.063,0.106 1.469,-0.191Z" style="fill:#a46e4a;fill-rule:nonzero;"></path>
    <path d="M283.031,286.131c7.219,-1.806 14.282,2.488 18.032,8.531c3.499,5.713 4.781,12.669 4.187,19.304c-0.594,6.293 -3.125,12.587 -7.625,17.103c-4.063,4.087 -9.5,6.212 -15.25,6.137c-6.156,-0.081 -12.343,-2.762 -15.625,-8.137c-1.281,-2.069 -4.562,-0.175 -3.281,1.903c7.344,11.959 24.969,12.859 35.187,4.272c11.719,-9.828 13.469,-28.713 6.157,-41.616c-4.5,-7.966 -13.501,-13.456 -22.782,-11.137c-2.375,0.587 -1.375,4.228 1,3.64Z" style="fill:#a46e4a;fill-rule:nonzero;"></path>
    <path d="M176.063,281.406c-13.563,1.553 -23.281,13.353 -25.688,26.278c-1.188,6.488 -0.563,13.01 2.313,18.981c3.156,6.569 8.656,11.976 15.031,15.426c7.406,3.993 16,5.456 24.25,3.64c2.375,-0.525 1.344,-4.165 -1.031,-3.64c-12.844,2.834 -26.938,-3.669 -33.657,-14.869c-6.093,-10.147 -4.219,-23.153 2.781,-32.388c3.875,-5.103 9.532,-8.912 16.001,-9.653c2.375,-0.272 2.406,-4.053 -0,-3.775Z" style="fill:#a46e4a;fill-rule:nonzero;"></path>
    <path d="M185.75,227.213c1.219,-2.51 3.062,-4.36 5.5,-5.657c2.25,-1.187 5.094,-1.728 7.5,-1.344c1,0.163 2.031,-0.259 2.313,-1.318c0.249,-0.9 -0.313,-2.157 -1.313,-2.322c-6.875,-1.106 -14.187,2.384 -17.25,8.737c-0.437,0.916 -0.25,2.038 0.657,2.582c0.843,0.484 2.156,0.243 2.593,-0.678Z" style="fill:#f9e5cb;fill-rule:nonzero;"></path>
    <path d="M251.563,224.969c0.375,-0.178 0.843,-0.354 1.437,-0.516c0.281,-0.081 0.563,-0.15 0.875,-0.206l0.375,-0.069c0.187,-0.031 -0.094,0.003 0.219,-0.022c1.25,-0.103 2.281,-0.065 3.281,0.141c2.312,0.481 4.156,1.49 5.688,3.219c0.687,0.759 1.999,0.693 2.687,-0c0.75,-0.757 0.688,-1.91 0,-2.669c-4.093,-4.55 -11,-5.725 -16.468,-3.138c-0.907,0.435 -1.157,1.757 -0.688,2.581c0.563,0.944 1.656,1.116 2.593,0.679Z" style="fill:#f9e5cb;fill-rule:nonzero;"></path>
    <path d="M286.219,170.347c-0.594,-3.753 2.531,-7.213 5.906,-8.316c3.812,-1.24 7.719,0.522 10.344,3.288c6.281,6.581 4.656,17.634 0.562,24.95c-1.594,2.825 -4.874,5.962 -8.156,3.503c-1.062,-0.8 -1.531,-2.128 -0.563,-3.213c1,-1.159 2.876,-1.434 4.313,-1.437c7.531,-0.013 14.5,6.747 16.563,13.634c2.531,8.572 -1.907,18.069 -9.688,22.184c-2.156,1.135 -0.25,4.394 1.907,3.26c9.187,-4.847 14.343,-16.156 11.468,-26.231c-1.406,-4.953 -4.562,-9.26 -8.656,-12.332c-3.844,-2.893 -9,-4.918 -13.875,-4.074c-2.187,0.378 -4.407,1.481 -5.563,3.453c-1.156,1.937 -1,4.381 0.282,6.2c2.969,4.187 8.749,3.9 12.312,0.728c4.094,-3.647 5.969,-10.2 6.687,-15.422c0.813,-5.703 -0.031,-11.644 -3.593,-16.307c-3.438,-4.478 -9.219,-7.543 -14.906,-5.953c-5.719,1.597 -9.969,7.088 -8.969,13.088c0.375,2.391 4.031,1.375 3.625,-1.003Z" style="fill:#f4d1a6;fill-rule:nonzero;"></path>
    <path d="M223.813,136.622c1.562,-5.085 -1.188,-10.375 -5.5,-13.15c-5.126,-3.303 -11.75,-2.228 -16.876,0.394c-9.218,4.69 -16.718,16.396 -12.343,26.74c3.906,9.25 15.375,12.016 24.406,9.738c2.25,-0.569 4.844,-1.413 6.5,-3.11c1.781,-1.834 2,-4.9 -0.031,-6.675c-2,-1.787 -4.812,-0.572 -5.781,1.675c-0.938,2.197 -0.376,4.782 0.781,6.781c2.75,4.654 8.781,6.629 13.906,5.869c6.719,-1 11.969,-6.165 16.531,-10.797c1.688,-1.731 -0.969,-4.4 -2.687,-2.668c-5.282,5.359 -12.906,12.822 -21.063,8.703c-1.437,-0.722 -2.718,-1.75 -3.5,-3.178c-0.344,-0.61 -0.593,-1.307 -0.656,-2.003c-0.031,-0.319 -0.031,-0.635 0.063,-0.944l0.187,-0.491c0.125,-0.303 -0.093,0.1 -0.125,-0.047c0.5,2.51 -6.281,3.591 -8.031,3.769c-6.563,0.666 -14.469,-1.612 -17.125,-8.266c-2.937,-7.387 1.906,-15.875 7.938,-20.093c4,-2.772 9.312,-4.772 14.093,-3.094c3.907,1.366 6.938,5.712 5.656,9.844c-0.719,2.325 2.938,3.318 3.657,1.003Z" style="fill:#f4d1a6;fill-rule:nonzero;"></path>
    <path d="M145.906,179.353c-2.156,-5.375 -8.469,-6.906 -13.468,-4.687c-5,2.209 -8.563,7.234 -10.594,12.159c-3.562,8.791 -2.781,20.837 6,26.281c4.25,2.631 11.906,2.56 12.406,-3.803c0.156,-2.116 -0.75,-4.394 -2.719,-5.381c-2.594,-1.306 -5.312,0.465 -7.312,2.04c-8.313,6.591 -10.063,18.772 -7.281,28.513c1.687,5.841 5.25,12.222 11.562,13.841c7.188,1.84 13.969,-2.947 19.312,-7.122c1.938,-1.494 -0.75,-4.147 -2.655,-2.669c-3.688,2.869 -8.126,6.187 -12.97,6.403c-4.781,0.216 -7.999,-3.203 -9.968,-7.172c-3.438,-6.947 -3.875,-16.084 -0.282,-23.065c0.844,-1.682 1.938,-3.222 3.282,-4.56c0.812,-0.828 3.312,-3.393 4.625,-2.837c0.906,0.384 0.75,2.153 0.344,2.803c-1.126,1.659 -3.938,0.99 -5.406,0.312c-6.907,-3.209 -8.126,-12.072 -6.532,-18.703c1.032,-4.309 3.188,-8.353 6.469,-11.387c1.75,-1.65 4.063,-3.003 6.562,-2.925c1.938,0.062 4.219,1.028 4.969,2.962c0.906,2.225 4.562,1.253 3.656,-1.003Z" style="fill:#f4d1a6;fill-rule:nonzero;"></path>
    <path d="M155.375,164.609c-3.375,-3.643 -2.094,-10.134 1.594,-13.081c1.656,-1.331 3.812,-1.791 5.562,-0.772c0.875,0.506 1.594,1.225 2.032,2.135c0.437,0.881 0.437,1.609 -0,2.624c-0.344,0.854 0.312,1.916 1.093,2.229c0.907,0.359 1.844,0.031 2.375,-0.772c0.688,-1.041 1.344,-2.078 2.031,-3.116c0.563,-0.85 0.188,-2.087 -0.656,-2.581c-0.937,-0.541 -2.031,-0.178 -2.593,0.678c-0.688,1.038 -1.376,2.075 -2.063,3.113c1.157,0.484 2.312,0.968 3.469,1.453c2.187,-5.2 -3.5,-10.66 -8.594,-10.06c-5.813,0.688 -9.531,6.394 -9.906,11.885c-0.219,3.25 0.75,6.525 2.969,8.934c1.656,1.794 4.312,-0.881 2.687,-2.669Z" style="fill:#f4d1a6;fill-rule:nonzero;"></path>
    <path d="M133.938,384.456c25.562,21.816 62.656,38.866 96.906,38.197c34.25,-0.669 68.063,-14.147 92.656,-36.941c41,7.041 47.125,55.404 48.75,70.035c-95.406,11.619 -189.594,13.603 -285.437,5.909c-2.094,-0.172 -4.406,-0.419 -5.938,-1.812c-2.219,-2.007 -2.063,-5.422 -1.468,-8.285c12.406,-58.806 54.531,-67.103 54.531,-67.103Z" style="fill:#ef6a55;fill-rule:nonzero;"></path>
    <clipPath id="_clip3">
      <path d="M133.938,384.456c25.562,21.813 62.656,38.869 96.906,38.197c34.25,-0.669 68.063,-14.144 92.656,-36.941c41,7.041 47.125,55.404 48.75,70.035c-95.406,11.619 -189.594,13.6 -285.437,5.909c-2.094,-0.172 -4.406,-0.419 -5.938,-1.812c-2.219,-2.007 -2.063,-5.422 -1.468,-8.285c12.406,-58.806 54.531,-67.103 54.531,-67.103Z"></path>
    </clipPath>
    <g clip-path="url(#_clip3)">
      <path d="M133.406,383.894c-7.5,0.309 -13,8.5 -11.281,15.5c1.688,7 9.156,11.89 16.657,12.212c7.499,0.322 14.781,-3.272 20.062,-8.384c-6.688,9.181 -1.594,23.959 9.5,27.512c11.125,3.553 24.5,-5.315 24.906,-16.509c0.344,7.959 0.969,16.609 6.5,22.566c6.75,7.271 19.469,7.693 27.781,2.112c8.344,-5.578 12.313,-15.884 11.657,-25.587c0.406,12.081 13.687,22.196 26.094,19.881c12.375,-2.316 20.718,-16.46 16.343,-27.8c4.969,9.078 17.063,14.659 27.063,10.981c9.999,-3.678 14.718,-17.497 7.593,-25.172c1.656,3.772 3.594,7.86 7.438,9.638c7.938,3.672 16.563,-6.507 14.531,-14.713c-2.031,-8.209 -9.937,-13.647 -17.281,-18.325l-187.563,16.088Z" style="fill:#fff;fill-rule:nonzero;"></path>
    </g>
    <clipPath id="_clip4">
      <path d="M133.938,384.456c25.562,21.813 62.656,38.869 96.906,38.197c34.25,-0.669 68.063,-14.144 92.656,-36.941c41,7.041 47.125,55.404 48.75,70.035c-95.406,11.619 -189.594,13.6 -285.437,5.909c-2.094,-0.172 -4.406,-0.419 -5.938,-1.812c-2.219,-2.007 -2.063,-5.422 -1.468,-8.285c12.406,-58.806 54.531,-67.103 54.531,-67.103Z"></path>
    </clipPath>
    <g clip-path="url(#_clip4)">
      <path d="M311.531,431.759c0.532,8.991 1.094,17.978 1.625,26.969c0.157,2.413 3.938,2.428 3.781,0c-0.531,-8.991 -1.093,-17.978 -1.624,-26.969c-0.156,-2.412 -3.938,-2.431 -3.782,0Z" style="fill:#a3362b;fill-rule:nonzero;"></path>
    </g>
    <clipPath id="_clip5">
      <path d="M133.938,384.456c25.562,21.813 62.656,38.869 96.906,38.197c34.25,-0.669 68.063,-14.144 92.656,-36.941c41,7.041 47.125,55.404 48.75,70.035c-95.406,11.619 -189.594,13.6 -285.437,5.909c-2.094,-0.172 -4.406,-0.419 -5.938,-1.812c-2.219,-2.007 -2.063,-5.422 -1.468,-8.285c12.406,-58.806 54.531,-67.103 54.531,-67.103Z"></path>
    </clipPath>
    <g clip-path="url(#_clip5)">
      <path d="M321.219,429.578c-4.875,6.491 -8.094,14.191 -9.281,22.222c-0.157,1.006 0.25,2.028 1.312,2.322c0.875,0.244 2.156,-0.306 2.312,-1.319c1.157,-7.766 4.219,-15.044 8.938,-21.319c0.594,-0.815 0.125,-2.109 -0.687,-2.584c-0.969,-0.563 -1.969,-0.138 -2.594,0.678Z" style="fill:#a3362b;fill-rule:nonzero;"></path>
    </g>
    <clipPath id="_clip6">
      <path d="M133.938,384.456c25.562,21.813 62.656,38.869 96.906,38.197c34.25,-0.669 68.063,-14.144 92.656,-36.941c41,7.041 47.125,55.404 48.75,70.035c-95.406,11.619 -189.594,13.6 -285.437,5.909c-2.094,-0.172 -4.406,-0.419 -5.938,-1.812c-2.219,-2.007 -2.063,-5.422 -1.468,-8.285c12.406,-58.806 54.531,-67.103 54.531,-67.103Z"></path>
    </clipPath>
    <g clip-path="url(#_clip6)">
      <path d="M141.844,432.3c2.062,9.437 4.156,18.878 6.219,28.316c0.531,2.371 4.187,1.368 3.656,-1.004c-2.094,-9.437 -4.157,-18.878 -6.25,-28.315c-0.531,-2.372 -4.157,-1.369 -3.625,1.003Z" style="fill:#a3362b;fill-rule:nonzero;"></path>
    </g>
    <clipPath id="_clip7">
      <path d="M133.938,384.456c25.562,21.813 62.656,38.869 96.906,38.197c34.25,-0.669 68.063,-14.144 92.656,-36.941c41,7.041 47.125,55.404 48.75,70.035c-95.406,11.619 -189.594,13.6 -285.437,5.909c-2.094,-0.172 -4.406,-0.419 -5.938,-1.812c-2.219,-2.007 -2.063,-5.422 -1.468,-8.285c12.406,-58.806 54.531,-67.103 54.531,-67.103Z"></path>
    </clipPath>
    <g clip-path="url(#_clip7)">
      <path d="M138.782,439.447c2.562,3.003 5.124,6.009 7.718,9.012c0.625,0.753 2,0.71 2.656,0c0.75,-0.803 0.688,-1.865 0,-2.672c-2.562,-3.003 -5.124,-6.006 -7.687,-9.009c-0.656,-0.753 -2.031,-0.712 -2.687,0c-0.72,0.803 -0.688,1.866 -0,2.669Z" style="fill:#a3362b;fill-rule:nonzero;"></path>
    </g>
    <path d="M177.688,369.366c12.562,10.303 26.531,20.953 43.374,21.921c14.094,0.81 28.563,-3.859 40.376,-11.403c6.499,-4.159 12.375,-9.368 16.812,-15.715c0.719,-1 -0.938,-1.944 -1.625,-0.953c-7.75,11.071 -20.093,18.762 -32.781,22.921c-6.532,2.141 -13.407,3.403 -20.281,3.344c-7.125,-0.062 -13.844,-1.809 -20.282,-4.881c-8.875,-4.247 -16.687,-10.356 -24.25,-16.569c-0.937,-0.765 -2.281,0.563 -1.343,1.335Z" style="fill:#ef6a55;fill-rule:nonzero;"></path>
    <path d="M193.656,373.759c0,4.516 -3.656,8.178 -8.187,8.178c-4.5,0 -8.188,-3.662 -8.188,-8.178c0,-4.518 3.688,-8.181 8.188,-8.181c4.531,0 8.187,3.663 8.187,8.181Z" style="fill:#f9e5cb;fill-rule:nonzero;"></path>
    <path d="M208.781,385.084c0,4.519 -3.656,8.182 -8.187,8.182c-4.532,-0 -8.188,-3.663 -8.188,-8.182c0,-4.518 3.656,-8.181 8.188,-8.181c4.531,-0 8.187,3.663 8.187,8.181Z" style="fill:#f9e5cb;fill-rule:nonzero;"></path>
    <path d="M226.437,390.119c0,4.515 -3.687,8.178 -8.187,8.178c-4.531,-0 -8.188,-3.663 -8.188,-8.178c0,-4.519 3.657,-8.182 8.188,-8.182c4.5,0 8.187,3.663 8.187,8.182Z" style="fill:#f9e5cb;fill-rule:nonzero;"></path>
    <path d="M244.063,391.375c-0,4.519 -3.657,8.181 -8.188,8.181c-4.531,0 -8.187,-3.662 -8.187,-8.181c-0,-4.516 3.656,-8.178 8.187,-8.178c4.531,-0 8.188,3.662 8.188,8.178Z" style="fill:#f9e5cb;fill-rule:nonzero;"></path>
    <path d="M262.969,382.569c0,4.515 -3.688,8.178 -8.188,8.178c-4.531,-0 -8.187,-3.663 -8.187,-8.178c0,-4.519 3.656,-8.182 8.187,-8.182c4.5,0 8.188,3.663 8.188,8.182Z" style="fill:#f9e5cb;fill-rule:nonzero;"></path>
    <path d="M279.344,371.241c0,4.518 -3.688,8.181 -8.188,8.181c-4.531,-0 -8.187,-3.663 -8.187,-8.181c0,-4.516 3.656,-8.179 8.187,-8.179c4.5,0 8.188,3.663 8.188,8.179Z" style="fill:#f9e5cb;fill-rule:nonzero;"></path>
  </g>
</svg>
