<?xml version="1.0" encoding="UTF-8" standalone="no"?>
<svg preserveAspectRatio="xMidYMid slice" width="34px" height="34px" xmlns="http://www.w3.org/2000/svg" xmlns:xlink="http://www.w3.org/1999/xlink" xmlns:serif="http://www.serif.com/"   viewBox="0 0 449 449" version="1.1" xml:space="preserve" style="fill-rule:evenodd;clip-rule:evenodd;stroke-linejoin:round;stroke-miterlimit:2;">
  <path d="M448.625,224.3c0,123.881 -100.438,224.303 -224.312,224.303c-123.875,0 -224.313,-100.422 -224.313,-224.303c0,-123.878 100.438,-224.3 224.313,-224.3c123.874,0 224.312,100.422 224.312,224.3Z" style="fill:#fff;"></path>
  <clipPath id="_clip1">
    <path d="M448.625,224.3c0,123.881 -100.438,224.303 -224.312,224.303c-123.875,0 -224.313,-100.422 -224.313,-224.303c0,-123.878 100.438,-224.3 224.313,-224.3c123.874,0 224.312,100.422 224.312,224.3Z"></path>
  </clipPath>
  <g clip-path="url(#_clip1)">
    <path d="M336.375,378.422c-20.844,-13.956 -46.031,-19.547 -70.625,-24.484c-1.5,-0.3 -3.062,-0.629 -4.25,-1.572c-2.062,-1.61 2.625,-55.922 -0,-79.669l-35.094,3.287l-35.094,-3.287c-2.624,23.747 2.063,78.059 0,79.669c-1.218,0.943 -2.781,1.272 -4.28,1.572c-24.595,4.937 -49.782,10.528 -70.626,24.484c-20.812,13.953 -36.625,38.294 -33.249,63.153c20.906,-0.109 79.312,0.269 138.499,1.047l0,0.128c1.563,-0.022 3.156,-0.044 4.75,-0.062c1.563,0.018 3.156,0.04 4.75,0.062l0,-0.128c59.157,-0.778 117.563,-1.156 138.5,-1.047c3.344,-24.859 -12.437,-49.2 -33.281,-63.153Z" style="fill:#fbd1b9;fill-rule:nonzero;"></path>
    <clipPath id="_clip2">
      <path d="M336.375,378.422c-20.844,-13.956 -46.031,-19.547 -70.625,-24.484c-1.5,-0.3 -3.062,-0.629 -4.25,-1.572c-2.062,-1.61 2.625,-55.925 -0,-79.669l-35.094,3.287l-35.094,-3.287c-2.624,23.744 2.032,78.059 0,79.669c-1.218,0.943 -2.781,1.272 -4.28,1.572c-24.595,4.937 -49.782,10.528 -70.626,24.484c-20.812,13.953 -36.625,38.297 -33.281,63.15c20.938,-0.106 79.344,0.272 138.531,1.05l0,0.131c1.563,-0.022 3.156,-0.044 4.75,-0.065c1.563,0.021 3.156,0.043 4.75,0.065l0,-0.131c59.157,-0.778 117.563,-1.156 138.5,-1.05c3.344,-24.853 -12.437,-49.197 -33.281,-63.15Z"></path>
    </clipPath>
    <g clip-path="url(#_clip2)">
      <path d="M144.594,271.931c13.843,-8.915 14.406,-13.194 15.094,-8.915c3.25,21.018 36.5,71.65 66.687,71.65c39.094,-0 61.781,-65.985 65.438,-82.616c-45.188,6.456 -90.938,12.925 -136.25,7.491c1.249,1.172 2.468,2.347 3.718,3.521l-14.687,8.869Z" style="fill:#dba78a;fill-rule:nonzero;"></path>
    </g>
    <path d="M174.313,259.494l0.093,0.447c3.313,14.903 8.563,29.784 18.5,41.384c9.907,11.597 25.188,19.441 40.313,17.384c14.625,-1.99 26.875,-12.853 34.031,-25.775c7.125,-12.921 9.875,-27.765 11.875,-42.393c1.657,-12.338 1.469,-40.532 0.781,-66.319c-0.75,-29.131 -24.375,-52.456 -53.531,-52.841c-29.937,-0.397 -54.5,23.56 -54.968,53.513c-0.438,28.678 -0.126,60.753 2.906,74.6Z" style="fill:#fbd1b9;fill-rule:nonzero;"></path>
    <path d="M277.844,239.994c0.781,-5.61 7.531,-9.116 12.969,-7.472c5.406,1.647 8.968,7.272 9.375,12.919c0.406,5.646 -1.876,11.203 -5.126,15.846c-5.406,7.744 -14.905,13.754 -24.031,11.36c1.438,-11.613 3.532,-23.147 6.219,-34.531l0.594,1.878Z" style="fill:#fbd1b9;fill-rule:nonzero;"></path>
    <path d="M175.156,239.994c-0.781,-5.61 -7.531,-9.116 -12.937,-7.472c-5.438,1.647 -9,7.272 -9.406,12.919c-0.407,5.646 1.875,11.203 5.125,15.846c5.406,7.744 14.906,13.754 24.031,11.36c-1.438,-11.613 -3.531,-23.147 -6.219,-34.531l-0.594,1.878Z" style="fill:#fbd1b9;fill-rule:nonzero;"></path>
    <path d="M248.875,234.153c0,3.469 2.844,6.281 6.375,6.281c3.531,0 6.375,-2.812 6.375,-6.281c-0,-3.469 -2.844,-6.281 -6.375,-6.281c-3.531,-0 -6.375,2.812 -6.375,6.281Z" style="fill:#1a1a1a;fill-rule:nonzero;"></path>
    <path d="M190.531,234.153c0,3.469 2.844,6.281 6.375,6.281c3.532,0 6.375,-2.812 6.375,-6.281c0,-3.469 -2.843,-6.281 -6.375,-6.281c-3.531,-0 -6.375,2.812 -6.375,6.281Z" style="fill:#1a1a1a;fill-rule:nonzero;"></path>
    <path d="M218.531,228.634c-3.999,13.157 -6.718,26.657 -8.218,40.328c-0.125,1.154 1.312,2.238 2.406,1.822c5.062,-1.965 9.281,-5.178 12.531,-9.525c1.469,-1.943 -1.813,-3.828 -3.25,-1.906c-2.625,3.488 -6.219,6.213 -10.281,7.791c0.781,0.606 1.594,1.212 2.375,1.818c1.437,-13.331 4.188,-26.496 8.094,-39.324c0.718,-2.329 -2.938,-3.322 -3.657,-1.004Z" style="fill:#a46e4a;fill-rule:nonzero;"></path>
    <path d="M234.312,282.294c-4.374,5.206 -11.624,7.447 -18.156,5.487c-2.344,-0.697 -3.343,2.944 -0.999,3.641c7.718,2.312 16.624,-0.275 21.843,-6.456c0.656,-0.782 0.75,-1.907 0,-2.672c-0.687,-0.672 -2.031,-0.785 -2.688,-0Z" style="fill:#a46e4a;fill-rule:nonzero;"></path>
    <path d="M263.344,217.369c-0.125,-0.316 -0.313,-0.625 -0.469,-0.922l-0.312,-0.478c-0.313,-0.516 0.031,0.094 0.187,0.237l-0.687,-0.768l-0.75,-0.691c0.625,0.691 0.468,0.353 0.156,0.134l-0.406,-0.262c-0.282,-0.188 -0.594,-0.36 -0.907,-0.516l-0.406,-0.209c-0.344,-0.181 0.969,0.359 0.187,0.087c-0.312,-0.118 -0.656,-0.234 -0.999,-0.328c-0.282,-0.087 -0.594,-0.159 -0.907,-0.222l-0.562,-0.093c1.156,0.24 0.562,0.074 0.25,0.053c-0.563,-0.044 -1.532,-0.185 -2.063,0.037c0.126,-0.059 0.969,-0.172 0.344,-0.037l-0.469,0.097c-0.343,0.078 -0.656,0.171 -1,0.287l-0.437,0.166c1.094,-0.335 0.5,-0.213 0.219,-0.069c-0.344,0.172 -0.657,0.369 -0.969,0.578c-1.656,1.1 -4.25,0.375 -5.157,-1.353c-0.999,-1.9 -0.406,-3.991 1.345,-5.166c6.593,-4.409 16.968,-1.634 20.343,5.628c0.438,0.944 0.656,1.872 0.375,2.91c-0.25,0.875 -0.906,1.825 -1.719,2.256c-1.687,0.878 -4.281,0.559 -5.187,-1.356Z" style="fill:#1a1a1a;fill-rule:nonzero;"></path>
    <path d="M199.688,212.281c-0.282,-0.209 -0.563,-0.409 -0.875,-0.59l-0.469,-0.278c-0.531,-0.307 0.062,0.062 0.281,0.115c-0.344,-0.087 -0.656,-0.256 -0.969,-0.359c-0.343,-0.1 -0.687,-0.144 -1,-0.256c0.875,0.312 0.563,0.093 0.188,0.046l-0.469,-0.05c-0.344,-0.028 -0.687,-0.04 -1.031,-0.037l-0.469,0.016c-0.406,-0 1.031,-0.132 0.219,-0.019c-0.344,0.05 -0.688,0.1 -1.031,0.172c-0.313,0.065 -0.625,0.143 -0.938,0.237l-0.531,0.175c1.156,-0.325 0.531,-0.194 0.25,-0.069c-0.531,0.229 -1.438,0.55 -1.812,1.003c0.093,-0.124 0.781,-0.618 0.28,-0.2l-0.343,0.301l-0.75,0.715l-0.313,0.35c0.782,-0.794 0.344,-0.419 0.157,-0.159c-0.219,0.309 -0.407,0.634 -0.594,0.969c-0.938,1.737 -3.594,2.312 -5.219,1.206c-1.75,-1.213 -2.187,-3.347 -1.187,-5.2c3.781,-6.981 14.25,-9.356 20.624,-4.494c0.813,0.631 1.438,1.344 1.688,2.397c0.188,0.887 0.031,2.04 -0.5,2.803c-1.063,1.556 -3.531,2.487 -5.187,1.206Z" style="fill:#1a1a1a;fill-rule:nonzero;"></path>
    <path d="M279.844,255.587c4.063,-4.737 8.719,-8.915 13.937,-12.368c0.844,-0.566 1.219,-1.669 0.688,-2.585c-0.5,-0.84 -1.75,-1.243 -2.594,-0.678c-5.468,3.631 -10.437,7.981 -14.719,12.963c-0.656,0.772 -0.75,1.909 0,2.668c0.688,0.679 2,0.779 2.688,0Z" style="fill:#a46e4a;fill-rule:nonzero;"></path>
    <path d="M284.5,249.775c0.562,1.956 1.125,3.912 1.656,5.866c0.063,-0.485 0.126,-0.969 0.188,-1.454c-0.188,0.363 -0.438,0.704 -0.657,1.05l0,-0.012l-0.218,0.241l-0.469,0.515l-0.469,0.432l-0.219,0.206l-0.125,0.097l-0.124,0.087l-0.25,0.178l-0.594,0.372c-0.844,0.5 -1.219,1.725 -0.687,2.584c0.562,0.857 1.687,1.21 2.593,0.675c1.781,-1.043 3.406,-2.571 4.407,-4.384c0.28,-0.509 0.406,-1.012 0.28,-1.59l-0.249,-0.825c-0.156,-0.55 -0.313,-1.1 -0.438,-1.651c-0.343,-1.128 -0.656,-2.259 -0.969,-3.39c-0.281,-0.95 -1.343,-1.634 -2.312,-1.319c-0.969,0.313 -1.625,1.306 -1.344,2.322Z" style="fill:#a46e4a;fill-rule:nonzero;"></path>
    <path d="M162.5,243.703l0.25,0.106l0.531,0.244c0.313,0.141 0.594,0.288 0.875,0.444c0.625,0.344 1.219,0.725 1.813,1.141c0.406,0.284 0.875,0.69 1.406,1.184c0.562,0.509 1.063,1.05 1.563,1.619c0.718,0.859 1.531,2.109 2.124,3.35c0.345,0.709 0.438,0.906 0.719,1.7c0.219,0.709 0.407,1.428 0.563,2.159c0.218,1 1.406,1.575 2.344,1.319c1.031,-0.288 1.5,-1.322 1.312,-2.322c-1.375,-6.631 -6.25,-12.141 -12.5,-14.584c-0.937,-0.369 -2.062,0.409 -2.312,1.318c-0.313,1.069 0.343,1.95 1.312,2.322Z" style="fill:#a46e4a;fill-rule:nonzero;"></path>
    <path d="M166.032,246.906c-1.751,2.228 -2.657,5.022 -2.407,7.882c0.25,2.815 1.406,5.553 3.563,7.44c0.781,0.669 1.906,0.753 2.656,0c0.687,-0.687 0.781,-1.997 0,-2.672l-0.594,-0.581l-0.218,-0.247l-0.188,-0.2l-0.125,-0.215l-0.25,-0.354l-0.344,-0.659l-0.188,-0.378c-0.093,-0.197 0.063,0.24 -0.031,-0.094l-0.249,-0.803l-0.188,-0.738l-0.063,-0.415l0,-0.084c-0.062,-0.535 -0.062,-1.069 -0.031,-1.604l0.031,-0.334c0.063,-0.513 -0.062,0.197 0.032,-0.081l0.156,-0.822l0.218,-0.722l0.094,-0.244l0.125,-0.231l0.376,-0.734l0.187,-0.282c0.031,-0.028 0.375,-0.462 0.125,-0.159c0.625,-0.797 0.781,-1.891 -0,-2.669c-0.656,-0.659 -2.031,-0.803 -2.687,0Z" style="fill:#a46e4a;fill-rule:nonzero;"></path>
    <path d="M244.531,312.866c-1.531,0.406 -3.187,0.568 -4.687,0.081c-1.594,-0.516 -2.844,-1.719 -4.25,-2.678c-5.25,-3.669 -12.813,-3.597 -18,0.175c-1.125,0.812 -2,2.403 -3.375,2.422c-1.5,0.018 -3.125,-0.432 -4.813,-1.272c-8.625,-4.278 -9.625,-15.513 -2.187,-21.435c5.375,-4.296 11.437,-8.087 16.156,-11.771c1.907,-1.497 4.656,-1.594 6.625,-0.191c3.219,2.256 8.875,5.994 17.656,11.122c9.594,5.619 8.594,19.49 -2.031,23.209c-0.344,0.125 -0.718,0.241 -1.094,0.338Zm31.969,-56.204c-0.469,-1.818 -2.875,-2.778 -4.437,-1.778c-0.313,4.003 -1.375,11.082 -3.344,18.966c-1.906,7.659 -11.438,11.2 -18.312,6.719c-6.501,-4.222 -14.75,-7.86 -24.438,-7.86c-9.375,0 -16.531,4.022 -21.938,9.016c-6.281,5.825 -16.874,3.328 -19.656,-4.544c-2.094,-5.875 -3.188,-11.568 -2.812,-16.25c0.094,-1.456 -1.032,-2.703 -2.469,-2.697c-1.375,0.003 -2.5,1.141 -2.438,2.525c0.407,16.413 2.719,20.007 8.313,35.413c5.906,16.197 18.969,30.85 35.844,33.419c18.312,2.793 36.437,-9.6 45.468,-25.966c9.063,-16.362 10.657,-28.209 10.219,-46.963Z" style="fill:#1a1a1a;fill-rule:nonzero;"></path>
    <path d="M296,361.094c-16.344,22.362 -40.312,30.89 -68.125,29.94l-0,-0.178c-0.625,0.038 -1.25,0.069 -1.875,0.103c-0.625,-0.034 -1.25,-0.065 -1.875,-0.103l-0,0.178c-27.812,0.95 -50.531,-7.578 -66.844,-29.94c0,-0 -85.062,16.359 -76.25,84.975c0.063,0.468 91.438,156.99 153.156,55.659l0,0.025c0.626,-0.003 1.251,-0.006 1.876,-0.012c0.624,0.006 1.875,-0.013 1.875,-0.013c72.594,-0.487 132.999,-55.187 133.062,-55.659c5.75,-67.357 -75,-84.975 -75,-84.975Z" style="fill:#8a8297;fill-rule:nonzero;"></path>
    <clipPath id="_clip3">
      <path d="M296,361.094c-16.344,22.359 -40.312,30.89 -68.125,29.94l-0,-0.178c-0.625,0.038 -1.25,0.069 -1.875,0.103c-0.625,-0.034 -1.25,-0.065 -1.875,-0.103l-0,0.178c-27.812,0.95 -50.531,-7.581 -66.844,-29.94c0,-0 -54,10.387 -71.5,49.331c-4.468,9.925 -7.5,21.863 -4.75,35.644c27.251,136.856 294.032,21.081 289.969,-0c-1.875,-9.603 -0.156,-18.453 -2.438,-26.213c-1.093,-3.687 -2.468,-7.165 -4.093,-10.434c-18.5,-37.428 -68.469,-48.328 -68.469,-48.328Z"></path>
    </clipPath>
    <g clip-path="url(#_clip3)">
      <path d="M119.25,357.222c1.344,35.591 3.688,71.137 7,106.6c0.937,10.034 1.938,20.062 3.032,30.084c0.249,2.388 4.031,2.416 3.781,0c-3.875,-35.412 -6.751,-70.928 -8.657,-106.5c-0.562,-10.056 -1,-20.118 -1.406,-30.184c-0.062,-2.422 -3.843,-2.431 -3.75,-0Z" style="fill:#39354c;fill-rule:nonzero;"></path>
    </g>
    <clipPath id="_clip4">
      <path d="M296,361.094c-16.344,22.359 -40.312,30.89 -68.125,29.94l-0,-0.178c-0.625,0.038 -1.25,0.069 -1.875,0.103c-0.625,-0.034 -1.25,-0.065 -1.875,-0.103l-0,0.178c-27.812,0.95 -50.531,-7.581 -66.844,-29.94c0,-0 -54,10.387 -71.5,49.331c-4.468,9.925 -7.5,21.863 -4.75,35.644c27.251,136.856 294.032,21.081 289.969,-0c-1.875,-9.603 -0.156,-18.453 -2.438,-26.213c-1.093,-3.687 -2.468,-7.165 -4.093,-10.434c-18.5,-37.428 -68.469,-48.328 -68.469,-48.328Z"></path>
    </clipPath>
    <g clip-path="url(#_clip4)">
      <path d="M167.969,361.044c-0.094,32.322 1.75,64.644 5.5,96.747c1.031,9.015 2.25,18.015 3.594,26.99c0.375,2.397 3.999,1.378 3.656,-1.003c-4.75,-31.59 -7.625,-63.462 -8.594,-95.391c-0.281,-9.112 -0.406,-18.228 -0.375,-27.343c-0,-2.431 -3.781,-2.435 -3.781,-0Z" style="fill:#39354c;fill-rule:nonzero;"></path>
    </g>
    <clipPath id="_clip5">
      <path d="M296,361.094c-16.344,22.359 -40.312,30.89 -68.125,29.94l-0,-0.178c-0.625,0.038 -1.25,0.069 -1.875,0.103c-0.625,-0.034 -1.25,-0.065 -1.875,-0.103l-0,0.178c-27.812,0.95 -50.531,-7.581 -66.844,-29.94c0,-0 -54,10.387 -71.5,49.331c-4.468,9.925 -7.5,21.863 -4.75,35.644c27.251,136.856 294.032,21.081 289.969,-0c-1.875,-9.603 -0.156,-18.453 -2.438,-26.213c-1.093,-3.687 -2.468,-7.165 -4.093,-10.434c-18.5,-37.428 -68.469,-48.328 -68.469,-48.328Z"></path>
    </clipPath>
    <g clip-path="url(#_clip5)">
      <path d="M220.782,359.069c3.875,32.64 7.781,65.281 11.656,97.922c1.093,9.147 2.187,18.297 3.281,27.443c0.281,2.382 4.062,2.41 3.781,0c-3.906,-32.64 -7.781,-65.281 -11.687,-97.922c-1.063,-9.146 -2.157,-18.293 -3.25,-27.443c-0.282,-2.381 -4.063,-2.41 -3.781,-0Z" style="fill:#39354c;fill-rule:nonzero;"></path>
    </g>
    <clipPath id="_clip6">
      <path d="M296,361.094c-16.344,22.359 -40.312,30.89 -68.125,29.94l-0,-0.178c-0.625,0.038 -1.25,0.069 -1.875,0.103c-0.625,-0.034 -1.25,-0.065 -1.875,-0.103l-0,0.178c-27.812,0.95 -50.531,-7.581 -66.844,-29.94c0,-0 -54,10.387 -71.5,49.331c-4.468,9.925 -7.5,21.863 -4.75,35.644c27.251,136.856 294.032,21.081 289.969,-0c-1.875,-9.603 -0.156,-18.453 -2.438,-26.213c-1.093,-3.687 -2.468,-7.165 -4.093,-10.434c-18.5,-37.428 -68.469,-48.328 -68.469,-48.328Z"></path>
    </clipPath>
    <g clip-path="url(#_clip6)">
      <path d="M267.75,361.091c1,17.85 3.531,35.621 5.969,53.318c2.75,19.803 5.718,39.579 8.093,59.432c1.126,9.278 2.126,18.584 2.657,27.915c0.125,2.419 3.906,2.435 3.781,0c-1,-17.85 -3.531,-35.618 -5.969,-53.319c-2.75,-19.803 -5.719,-39.578 -8.125,-59.428c-1.093,-9.281 -2.125,-18.584 -2.624,-27.918c-0.157,-2.416 -3.907,-2.432 -3.782,-0Z" style="fill:#39354c;fill-rule:nonzero;"></path>
    </g>
    <clipPath id="_clip7">
      <path d="M296,361.094c-16.344,22.359 -40.312,30.89 -68.125,29.94l-0,-0.178c-0.625,0.038 -1.25,0.069 -1.875,0.103c-0.625,-0.034 -1.25,-0.065 -1.875,-0.103l-0,0.178c-27.812,0.95 -50.531,-7.581 -66.844,-29.94c0,-0 -54,10.387 -71.5,49.331c-4.468,9.925 -7.5,21.863 -4.75,35.644c27.251,136.856 294.032,21.081 289.969,-0c-1.875,-9.603 -0.156,-18.453 -2.438,-26.213c-1.093,-3.687 -2.468,-7.165 -4.093,-10.434c-18.5,-37.428 -68.469,-48.328 -68.469,-48.328Z"></path>
    </clipPath>
    <g clip-path="url(#_clip7)">
      <path d="M311.063,359.113c2.187,30.559 4.812,61.09 7.843,91.578c0.875,8.712 1.751,17.418 2.688,26.125c0.281,2.387 4.031,2.415 3.781,-0c-3.281,-30.466 -6.125,-60.975 -8.562,-91.516c-0.688,-8.728 -1.344,-17.456 -1.969,-26.187c-0.188,-2.41 -3.969,-2.429 -3.781,-0Z" style="fill:#39354c;fill-rule:nonzero;"></path>
    </g>
    <clipPath id="_clip8">
      <path d="M296,361.094c-16.344,22.359 -40.312,30.89 -68.125,29.94l-0,-0.178c-0.625,0.038 -1.25,0.069 -1.875,0.103c-0.625,-0.034 -1.25,-0.065 -1.875,-0.103l-0,0.178c-27.812,0.95 -50.531,-7.581 -66.844,-29.94c0,-0 -54,10.387 -71.5,49.331c-4.468,9.925 -7.5,21.863 -4.75,35.644c27.251,136.856 294.032,21.081 289.969,-0c-1.875,-9.603 -0.156,-18.453 -2.438,-26.213c-1.093,-3.687 -2.468,-7.165 -4.093,-10.434c-18.5,-37.428 -68.469,-48.328 -68.469,-48.328Z"></path>
    </clipPath>
    <g clip-path="url(#_clip8)">
      <path d="M343.188,367.484c6.469,27.266 11.969,54.76 16.437,82.422c1.25,7.803 2.438,15.619 3.531,23.444c0.344,2.397 4,1.378 3.657,-1.003c-3.906,-27.747 -8.813,-55.353 -14.75,-82.744c-1.656,-7.725 -3.407,-15.431 -5.219,-23.122c-0.563,-2.362 -4.219,-1.362 -3.656,1.003Z" style="fill:#39354c;fill-rule:nonzero;"></path>
    </g>
    <clipPath id="_clip9">
      <path d="M296,361.094c-16.344,22.359 -40.312,30.89 -68.125,29.94l-0,-0.178c-0.625,0.038 -1.25,0.069 -1.875,0.103c-0.625,-0.034 -1.25,-0.065 -1.875,-0.103l-0,0.178c-27.812,0.95 -50.531,-7.581 -66.844,-29.94c0,-0 -54,10.387 -71.5,49.331c-4.468,9.925 -7.5,21.863 -4.75,35.644c27.251,136.856 294.032,21.081 289.969,-0c-1.875,-9.603 -0.156,-18.453 -2.438,-26.213c-1.093,-3.687 -2.468,-7.165 -4.093,-10.434c-18.5,-37.428 -68.469,-48.328 -68.469,-48.328Z"></path>
    </clipPath>
    <g clip-path="url(#_clip9)">
      <path d="M76.813,390.694c5.375,23.015 9.718,46.265 12.999,69.669c0.969,6.753 1.813,13.515 2.563,20.29c0.282,2.388 4.063,2.416 3.781,0c-2.687,-23.853 -6.469,-47.584 -11.312,-71.094c-1.375,-6.64 -2.844,-13.265 -4.375,-19.868c-0.563,-2.366 -4.219,-1.363 -3.656,1.003Z" style="fill:#39354c;fill-rule:nonzero;"></path>
    </g>
    <clipPath id="_clip10">
      <path d="M296,361.094c-16.344,22.359 -40.312,30.89 -68.125,29.94l-0,-0.178c-0.625,0.038 -1.25,0.069 -1.875,0.103c-0.625,-0.034 -1.25,-0.065 -1.875,-0.103l-0,0.178c-27.812,0.95 -50.531,-7.581 -66.844,-29.94c0,-0 -54,10.387 -71.5,49.331c-4.468,9.925 -7.5,21.863 -4.75,35.644c27.251,136.856 294.032,21.081 289.969,-0c-1.875,-9.603 -0.156,-18.453 -2.438,-26.213c-1.093,-3.687 -2.468,-7.165 -4.093,-10.434c-18.5,-37.428 -68.469,-48.328 -68.469,-48.328Z"></path>
    </clipPath>
    <g clip-path="url(#_clip10)">
      <path d="M120.844,354.756c11.25,17.525 27.468,31.157 45.844,38.506c11.562,4.635 23.812,6.797 36.031,8.469c22.344,3.063 45.5,4.497 67,-2.818c21.531,-7.316 41.281,-24.947 46.844,-48.888c-63.594,-10.531 -128.688,-10.119 -192.157,1.219l-3.562,3.512Z" style="fill:#fff;fill-rule:nonzero;"></path>
    </g>
  </g>
</svg>
