<?xml version="1.0" encoding="UTF-8" standalone="no"?>
<svg preserveAspectRatio="xMidYMid slice" width="34px" height="34px" xmlns="http://www.w3.org/2000/svg" xmlns:xlink="http://www.w3.org/1999/xlink" xmlns:serif="http://www.serif.com/"   viewBox="0 0 449 449" version="1.1" xml:space="preserve" style="fill-rule:evenodd;clip-rule:evenodd;stroke-linejoin:round;stroke-miterlimit:2;">
  <path d="M448.594,224.3c-0,123.881 -100.406,224.303 -224.281,224.303c-123.907,0 -224.313,-100.422 -224.313,-224.303c0,-123.878 100.406,-224.3 224.313,-224.3c123.875,0 224.281,100.422 224.281,224.3Z" style="fill:#fff;"></path>
  <clipPath id="_clip1">
    <path d="M448.594,224.3c-0,123.881 -100.406,224.303 -224.281,224.303c-123.907,0 -224.313,-100.422 -224.313,-224.303c0,-123.878 100.406,-224.3 224.313,-224.3c123.875,0 224.281,100.422 224.281,224.3Z"></path>
  </clipPath>
  <g clip-path="url(#_clip1)">
    <path d="M142.437,364.856c23.594,-1.134 47.157,-7.759 67.563,-20.94c19.313,-12.457 35.313,-30.3 51.063,-47.935c9.375,-10.475 18.812,-21.065 25.874,-33.581c12.625,-22.356 16.844,-49.194 20.813,-75.259c2.031,-13.416 4.063,-27.2 1.625,-40.535c-6.875,-37.722 -47.031,-56.831 -81.375,-53.359c-29.344,2.969 -59.438,20.194 -70.906,50.484c-8.969,23.619 -5.5,51.3 -14.282,74.997c-12.218,32.994 -46.718,54.71 -49.031,90.325c-0.531,8.369 0.844,16.884 -0.562,25.131c-1.563,9.244 -6.532,17.425 -8.157,26.657c-2.593,14.515 3.875,29.937 14.407,38.915c10.531,8.978 24.469,12.016 37.656,10.538c0.031,-17.125 6.5,-34.119 17.531,-46.028l-12.219,0.59Z" style="fill:#ef6a55;fill-rule:nonzero;"></path>
    <path d="M338.281,348.384c-20.875,-13.975 -46.062,-19.571 -70.687,-24.515c-1.5,-0.303 -3.063,-0.631 -4.281,-1.575c-2.063,-1.613 2.624,-56 -0,-79.778l-35.157,3.29l-35.156,-3.29c-2.625,23.778 2.094,78.165 0,79.778c-1.187,0.944 -2.75,1.272 -4.25,1.575c-24.625,4.944 -49.844,10.54 -70.719,24.515c-20.875,13.975 -36.656,38.347 -33.312,63.238c20.937,-0.106 79.437,0.272 138.687,1.05l0,0.131c1.594,-0.022 3.157,-0.044 4.75,-0.066c1.594,0.022 3.188,0.044 4.75,0.066l0,-0.131c59.25,-0.778 117.75,-1.156 138.719,-1.05c3.344,-24.891 -12.469,-49.263 -33.344,-63.238Z" style="fill:#fbd1b9;fill-rule:nonzero;"></path>
    <clipPath id="_clip2">
      <path d="M338.281,348.384c-20.875,-13.975 -46.062,-19.571 -70.687,-24.515c-1.5,-0.303 -3.094,-0.631 -4.281,-1.575c-2.063,-1.613 2.624,-56 -0,-79.778l-35.157,3.29l-35.156,-3.29c-2.625,23.778 2.094,78.165 0,79.778c-1.187,0.944 -2.75,1.272 -4.25,1.575c-24.625,4.944 -49.844,10.54 -70.719,24.515c-20.875,13.975 -36.687,38.35 -33.312,63.238c20.937,-0.106 79.437,0.272 138.687,1.05l0,0.128c1.594,-0.022 3.157,-0.044 4.75,-0.066c1.594,0.022 3.188,0.044 4.75,0.066l0,-0.128c59.25,-0.778 117.75,-1.156 138.719,-1.05c3.344,-24.888 -12.469,-49.263 -33.344,-63.238Z"></path>
    </clipPath>
    <g clip-path="url(#_clip2)">
      <path d="M146.219,241.75c13.875,-8.928 14.469,-13.213 15.125,-8.928c3.281,21.047 36.562,71.75 66.781,71.75c39.156,-0 61.875,-66.078 65.531,-82.731c-45.219,6.465 -91.062,12.943 -136.437,7.5c1.25,1.175 2.5,2.353 3.75,3.528l-14.75,8.881Z" style="fill:#dba78a;fill-rule:nonzero;"></path>
    </g>
    <path d="M176,126.391c-8.063,27.287 -6.062,75.103 -0,102.906l0.125,0.447c3.281,14.922 8.562,29.822 18.5,41.437c9.937,11.616 25.219,19.469 40.344,17.41c14.656,-1.991 26.937,-12.872 34.093,-25.81c7.157,-12.94 9.907,-27.803 11.876,-42.45c3.5,-25.5 2.593,-93.231 0.124,-93.437c-31.531,-2.669 -74.343,-9.128 -105.062,-1.391l-0,0.888Z" style="fill:#fbd1b9;fill-rule:nonzero;"></path>
    <path d="M279.688,209.769c0.781,-5.616 7.531,-9.128 12.968,-7.482c5.407,1.647 9,7.282 9.407,12.935c0.406,5.656 -1.876,11.219 -5.125,15.869c-5.407,7.753 -14.938,13.775 -24.094,11.375c1.469,-11.628 3.562,-23.179 6.25,-34.579l0.594,1.882Z" style="fill:#fbd1b9;fill-rule:nonzero;"></path>
    <path d="M176.844,209.769c-0.782,-5.616 -7.531,-9.128 -12.969,-7.482c-5.406,1.647 -9,7.282 -9.406,12.935c-0.406,5.656 1.906,11.219 5.156,15.869c5.406,7.753 14.906,13.775 24.063,11.375c-1.469,-11.628 -3.532,-23.179 -6.25,-34.579l-0.594,1.882Z" style="fill:#fbd1b9;fill-rule:nonzero;"></path>
    <path d="M167.656,188.197c13.969,1.175 27.656,-4.331 38,-12.903c10.344,-8.575 18.688,-18.972 29.344,-27.256c10.875,-8.482 24.031,-14.582 38,-17.635c-3.719,20.813 3.125,41.847 9.906,62.016c3.656,-19.266 7.344,-38.897 4.406,-58.263c-0.874,-5.819 -2.687,-12.056 -7.874,-15.612c-4.157,-2.857 -9.657,-3.403 -14.875,-3.757c-28.188,-1.912 -56.625,-1.118 -84.657,2.363c-2.156,0.269 -4.406,0.584 -6.219,1.709c-2.437,1.547 -3.562,4.297 -4.374,6.9c-6.344,20.288 -3.844,41.869 -1.25,62.825l-0.407,-0.387Z" style="fill:#ef6a55;fill-rule:nonzero;"></path>
    <path d="M279.219,128.106c0.531,-0.94 1.093,-1.865 1.687,-2.765c0.313,-0.45 0.625,-0.897 0.938,-1.338l0.5,-0.653l0.219,-0.291c0.187,-0.265 -0.282,0.338 0.093,-0.115c1.344,-1.707 2.781,-3.313 4.344,-4.816c0.719,-0.684 0.75,-1.994 -0,-2.672c-0.75,-0.706 -1.906,-0.731 -2.656,0c-3.282,3.15 -6.125,6.788 -8.406,10.744c-0.5,0.856 -0.219,2.106 0.687,2.584c0.906,0.475 2.063,0.238 2.594,-0.678Z" style="fill:#a3362b;fill-rule:nonzero;"></path>
    <path d="M281.375,146.644c-0.344,13.031 2.531,25.968 8.344,37.634c1.093,2.178 4.343,0.263 3.25,-1.909c-5.5,-11.072 -8.156,-23.369 -7.813,-35.725c0.094,-2.431 -3.687,-2.431 -3.781,-0Z" style="fill:#a3362b;fill-rule:nonzero;"></path>
    <path d="M294.938,158.247c0.656,5.472 1.281,10.944 1.906,16.412c0.125,1.016 0.781,1.891 1.906,1.891c0.938,0 2,-0.869 1.875,-1.891c-0.625,-5.468 -1.25,-10.94 -1.906,-16.412c-0.094,-1.013 -0.782,-1.888 -1.875,-1.888c-0.938,0 -2,0.869 -1.906,1.888Z" style="fill:#a3362b;fill-rule:nonzero;"></path>
    <path d="M136.469,245.35c-2.969,7.453 -6.688,14.594 -11.125,21.275c-4.219,6.384 -9.469,12.163 -12.875,19.075c-6.75,13.756 -4.656,29.419 -7.875,44.009c-1.625,7.328 -4.594,14.419 -10.344,19.441c-1.844,1.6 0.844,4.266 2.656,2.672c10.969,-9.531 12.438,-24.916 13.531,-38.463c0.626,-7.809 1.282,-15.768 4.157,-23.134c2.875,-7.381 8.312,-13.362 12.75,-19.803c5.187,-7.5 9.406,-15.594 12.75,-24.069c0.906,-2.262 -2.75,-3.244 -3.625,-1.003Z" style="fill:#a3362b;fill-rule:nonzero;"></path>
    <path d="M122.219,297.759c2.156,13.944 -1.031,28.432 -8.625,40.291c-1.313,2.056 1.968,3.953 3.25,1.909c8.187,-12.768 11.344,-28.247 9.031,-43.206c-0.375,-2.397 -4.031,-1.378 -3.656,1.006Z" style="fill:#a3362b;fill-rule:nonzero;"></path>
    <path d="M146.687,293.334c0.188,5.069 -0.499,10.069 -2.031,14.897c-0.75,2.325 2.906,3.319 3.625,1.006c1.656,-5.121 2.375,-10.531 2.188,-15.903c-0.031,-1.018 -0.844,-1.89 -1.875,-1.89c-1,-0 -1.938,0.865 -1.907,1.89Z" style="fill:#a3362b;fill-rule:nonzero;"></path>
    <path d="M163.875,218.147c4.125,3.734 7.875,7.915 11.062,12.403c0.594,0.831 1.657,1.228 2.594,0.678c0.813,-0.478 1.281,-1.75 0.688,-2.584c-3.438,-4.794 -7.313,-9.222 -11.688,-13.172c-0.75,-0.685 -1.937,-0.747 -2.656,-0c-0.719,0.697 -0.781,1.987 -0,2.675Z" style="fill:#a46e4a;fill-rule:nonzero;"></path>
    <path d="M167.688,231.022c2.281,-1.238 4.562,-2.475 6.843,-3.71c0.875,-0.471 1.219,-1.746 0.688,-2.587c-0.563,-0.884 -1.656,-1.181 -2.594,-0.678c-2.281,1.237 -4.562,2.472 -6.844,3.709c-0.875,0.472 -1.218,1.747 -0.656,2.588c0.563,0.881 1.656,1.181 2.563,0.678Z" style="fill:#a46e4a;fill-rule:nonzero;"></path>
    <path d="M283.406,223.844c0.188,-0.435 0.438,-0.86 0.688,-1.272l0.406,-0.606l0.406,-0.591l0,0.019l0.219,-0.253l0.469,-0.544c0.344,-0.356 0.687,-0.697 1.031,-1.022l0.563,-0.472l0.124,-0.1l0.125,-0.09c0.375,-0.288 0.782,-0.557 1.219,-0.81c0.406,-0.25 0.813,-0.478 1.25,-0.687l0.625,-0.275c-0.5,0.162 -0.062,0.025 0.031,-0.01l0.375,-0.137c0.907,-0.335 1.657,-1.3 1.313,-2.325c-0.281,-0.913 -1.344,-1.681 -2.312,-1.319c-4.219,1.516 -7.813,4.569 -9.813,8.584c-0.438,0.885 -0.25,2.088 0.687,2.588c0.844,0.45 2.094,0.266 2.594,-0.678Z" style="fill:#a46e4a;fill-rule:nonzero;"></path>
    <path d="M281.969,223.875c0.969,1.284 1.937,2.566 2.906,3.85l0.5,0.531l0.656,0.338c0.438,0.125 1.031,0.068 1.438,-0.191c0.406,-0.259 0.75,-0.647 0.875,-1.128c0.094,-0.463 0.094,-1.062 -0.188,-1.459c-0.968,-1.282 -1.937,-2.566 -2.906,-3.847l-0.5,-0.531l-0.625,-0.338c-0.469,-0.125 -1.063,-0.069 -1.469,0.188c-0.406,0.262 -0.75,0.649 -0.875,1.131c-0.093,0.462 -0.093,1.059 0.188,1.456Z" style="fill:#a46e4a;fill-rule:nonzero;"></path>
    <path d="M201.281,201.991c0,3.94 -2.937,7.131 -6.5,7.131c-3.593,-0 -6.5,-3.191 -6.5,-7.131c0,-3.938 2.907,-7.132 6.5,-7.132c3.563,0 6.5,3.194 6.5,7.132Z" style="fill:#1a1a1a;fill-rule:nonzero;"></path>
    <path d="M265.75,201.991c0,3.94 -2.906,7.131 -6.5,7.131c-3.594,-0 -6.5,-3.191 -6.5,-7.131c0,-3.938 2.906,-7.132 6.5,-7.132c3.594,0 6.5,3.194 6.5,7.132Z" style="fill:#1a1a1a;fill-rule:nonzero;"></path>
    <path d="M214.219,256.681c1.406,-4.053 4.75,-7.531 8.906,-8.497c4.187,-0.962 9.031,0.963 10.906,4.81c2.5,5.084 -1.437,11.968 -7.062,12.731c-5.625,0.763 -11.125,-4.363 -11.188,-10.025l-1.562,0.981Z" style="fill:#ef6a55;fill-rule:nonzero;"></path>
    <path d="M208.062,254.969c10.438,8.325 26.657,7.444 35.907,-2.335c1.687,-1.765 -1,-4.443 -2.657,-2.671c-7.718,8.159 -21.718,9.4 -30.593,2.331c-1.875,-1.503 -4.563,1.156 -2.657,2.675Z" style="fill:#a46e4a;fill-rule:nonzero;"></path>
    <path d="M217.562,196.419c-1.781,9.103 -3.25,18.269 -4.375,27.478c-0.468,3.869 -0.968,8.319 1.407,11.719c1.875,2.7 5.469,4.503 8.687,3.175c2.219,-0.91 1.25,-4.569 -1,-3.644c-2.75,1.128 -4.937,-1.438 -5.5,-3.916c-0.75,-3.5 0.188,-7.5 0.656,-10.99c1.001,-7.644 2.282,-15.253 3.782,-22.816c0.468,-2.378 -3.188,-3.394 -3.657,-1.006Z" style="fill:#a46e4a;fill-rule:nonzero;"></path>
    <path d="M247.531,176.522c-0.844,0.544 -0.406,2.003 0.5,2.409c0.938,0.41 2,0.131 2.969,-0.1c7.688,-1.806 16.062,-0.268 22.625,4.138c-2.844,-5.025 -7.75,-8.828 -13.344,-10.306c-4.594,-1.222 -10.406,-0.407 -12.75,3.743l0,0.116Z" style="fill:#ef6a55;fill-rule:nonzero;"></path>
    <path d="M162,182.941c6.063,-3.382 13.281,-3.229 19.719,-5.447c5.531,-1.894 10.375,-5.156 14.718,-9c9.157,-8.113 16.063,-18.519 25.938,-25.869c6.156,-4.572 13.031,-8.063 20.344,-10.334c2.312,-0.722 1.343,-4.372 -1,-3.647c-12.907,4.006 -23.719,11.537 -32.875,21.347c-7.938,8.509 -15.469,18.8 -26.625,23.296c-7.156,2.907 -15.25,2.557 -22.125,6.391c-2.125,1.185 -0.219,4.453 1.906,3.263Z" style="fill:#a3362b;fill-rule:nonzero;"></path>
    <path d="M220.094,127.778c-9.844,4.819 -18.125,11.894 -24.813,20.528c-6.219,8.032 -13.625,19.041 -25.312,17.66c-2.407,-0.285 -2.375,3.496 -0,3.781c11.844,1.4 20.218,-8.56 26.625,-16.972c3.406,-4.463 6.969,-8.7 11.187,-12.387c4.313,-3.735 9.094,-6.841 14.219,-9.344c2.187,-1.072 0.281,-4.335 -1.906,-3.266Z" style="fill:#a3362b;fill-rule:nonzero;"></path>
    <path d="M192.844,305.831c39.062,21.422 64.281,1.26 70.594,0c1.218,-0.247 3.312,19.985 0.781,22.4c-1.844,1.75 -72.219,3.66 -73.906,1.506c-1.657,-2.134 -1.625,-26.193 2.531,-23.906Z" style="fill:#ffb753;fill-rule:nonzero;"></path>
    <path d="M76.469,416.956c-1.938,-29.503 17.406,-57.3 42.468,-73.003c25.032,-15.703 55.001,-21.344 84.344,-24.922c38.532,-4.697 78.782,-6.165 114.938,7.894c36.156,14.056 67.312,46.981 68.75,85.756l-152.531,53.185l-157.969,-48.91Z" style="fill:#ffb753;fill-rule:nonzero;"></path>
    <path d="M197.75,316.084c1.375,3.816 1.5,7.713 0.281,11.553c-0.281,0.944 0.375,2.104 1.344,2.326c1,0.234 2,-0.31 2.313,-1.322c1.374,-4.394 1.281,-9.235 -0.282,-13.563c-0.344,-0.959 -1.281,-1.606 -2.344,-1.319c-0.906,0.254 -1.656,1.36 -1.312,2.325Z" style="fill:#724328;fill-rule:nonzero;"></path>
    <path d="M206.906,320.809c0.563,3.553 1.125,7.104 1.688,10.653c0.187,0.979 1.437,1.61 2.344,1.322c1.062,-0.343 1.499,-1.278 1.312,-2.328c-0.563,-3.55 -1.125,-7.1 -1.719,-10.65c-0.156,-0.981 -1.406,-1.612 -2.312,-1.322c-1.063,0.344 -1.5,1.275 -1.313,2.325Z" style="fill:#724328;fill-rule:nonzero;"></path>
    <path d="M222.406,321.3c0.156,2.903 0.344,5.809 0.531,8.713c0.063,0.984 0.813,1.937 1.875,1.89c0.969,-0.044 1.969,-0.834 1.907,-1.89c-0.188,-2.904 -0.375,-5.81 -0.531,-8.713c-0.063,-0.984 -0.844,-1.937 -1.907,-1.891c-0.969,0.044 -1.937,0.835 -1.875,1.891Z" style="fill:#724328;fill-rule:nonzero;"></path>
    <path d="M237.375,320.362l-0,8.688c-0,0.987 0.875,1.934 1.906,1.891c1,-0.047 1.875,-0.832 1.875,-1.891l0,-8.688c0,-0.987 -0.875,-1.934 -1.875,-1.89c-1.031,0.047 -1.906,0.831 -1.906,1.89Z" style="fill:#724328;fill-rule:nonzero;"></path>
    <path d="M252.813,314.572l-0,10.615c-0,0.991 0.875,1.938 1.906,1.891c1,-0.044 1.875,-0.831 1.875,-1.891l-0,-10.615c-0,-0.991 -0.875,-1.938 -1.875,-1.891c-1.031,0.047 -1.906,0.832 -1.906,1.891Z" style="fill:#724328;fill-rule:nonzero;"></path>
    <path d="M117.469,371.534c1.062,13.829 2.125,27.657 3.187,41.482c0.188,2.412 3.969,2.431 3.781,-0c-1.062,-13.825 -2.124,-27.653 -3.187,-41.482c-0.188,-2.409 -3.969,-2.431 -3.781,0Z" style="fill:#724328;fill-rule:nonzero;"></path>
    <path d="M111,378.403c2.562,3.85 5.156,7.7 7.75,11.553c0.563,0.819 1.688,1.253 2.594,0.678c0.812,-0.528 1.25,-1.709 0.687,-2.587c-2.594,-3.85 -5.187,-7.7 -7.781,-11.553c-0.562,-0.819 -1.687,-1.253 -2.594,-0.678c-0.812,0.528 -1.25,1.709 -0.656,2.587Z" style="fill:#724328;fill-rule:nonzero;"></path>
    <path d="M340.156,367.128c2.157,12.634 3.531,25.381 4.188,38.181c0.125,2.422 3.906,2.435 3.781,0c-0.687,-13.137 -2.125,-26.221 -4.344,-39.187c-0.406,-2.394 -4.031,-1.378 -3.625,1.006Z" style="fill:#724328;fill-rule:nonzero;"></path>
    <path d="M350.563,371.525c-2.532,3.578 -4.251,7.731 -5.001,12.041c-0.187,0.968 0.251,2.081 1.313,2.322c0.906,0.212 2.125,-0.279 2.312,-1.319c0.75,-4.175 2.188,-7.672 4.625,-11.135c0.594,-0.812 0.188,-2.137 -0.656,-2.587c-0.969,-0.51 -2,-0.188 -2.593,0.678Z" style="fill:#724328;fill-rule:nonzero;"></path>
    <path d="M308.406,332.856c2.969,-5 6.813,-9.365 11.375,-13.056c0.781,-0.644 0.657,-2.006 0,-2.675c-0.781,-0.784 -1.875,-0.644 -2.687,0c-4.75,3.856 -8.813,8.569 -11.969,13.822c-0.531,0.878 -0.188,2.078 0.687,2.587c0.876,0.522 2.063,0.2 2.594,-0.678Z" style="fill:#ffb753;fill-rule:nonzero;"></path>
    <path d="M317.219,333.903l0.406,-0.559l0,-0.003l0.219,-0.269c0.281,-0.341 0.594,-0.669 0.875,-0.988c0.625,-0.659 1.312,-1.271 2,-1.84l0.218,-0.172l-0.093,0.084l0.093,-0.084l0.594,-0.406c0.344,-0.25 0.719,-0.488 1.094,-0.716c0.813,-0.475 1.625,-0.894 2.5,-1.256c0.406,-0.172 0.75,-0.728 0.875,-1.128c0.125,-0.454 0.062,-1.057 -0.187,-1.457c-0.626,-0.953 -1.626,-1.093 -2.594,-0.678c-3.75,1.585 -6.938,4.269 -9.282,7.566c-0.562,0.806 -0.156,2.137 0.688,2.584c0.969,0.516 1.969,0.185 2.594,-0.678Z" style="fill:#ffb753;fill-rule:nonzero;"></path>
    <path d="M152.656,319.422c1.969,2.547 3.938,5.094 5.906,7.641c0.313,0.406 0.594,0.724 1.125,0.868c0.438,0.122 1.032,0.066 1.438,-0.19c0.781,-0.497 1.344,-1.75 0.688,-2.588c-1.969,-2.547 -3.938,-5.09 -5.907,-7.637c-0.312,-0.41 -0.594,-0.725 -1.125,-0.869c-0.437,-0.125 -1.062,-0.069 -1.469,0.191c-0.75,0.496 -1.312,1.749 -0.656,2.584Z" style="fill:#ffb753;fill-rule:nonzero;"></path>
    <path d="M162.094,318.547c1.781,3.775 3.562,7.553 5.343,11.328c0.438,0.897 1.782,1.197 2.594,0.678c0.938,-0.594 1.125,-1.628 0.688,-2.587c-1.782,-3.775 -3.594,-7.55 -5.375,-11.325c-0.438,-0.897 -1.782,-1.2 -2.594,-0.678c-0.906,0.593 -1.125,1.628 -0.656,2.584Z" style="fill:#ffb753;fill-rule:nonzero;"></path>
    <path d="M173.781,319.459c1.375,2.857 2.75,5.713 4.094,8.569c0.437,0.894 1.781,1.2 2.594,0.678c0.937,-0.593 1.156,-1.631 0.687,-2.587c-1.375,-2.856 -2.75,-5.713 -4.125,-8.566c-0.406,-0.894 -1.781,-1.2 -2.562,-0.678c-0.938,0.591 -1.157,1.628 -0.688,2.584Z" style="fill:#ffb753;fill-rule:nonzero;"></path>
  </g>
</svg>
