<?xml version="1.0" encoding="UTF-8" standalone="no"?>
<svg preserveAspectRatio="xMidYMid slice" width="34px" height="34px" xmlns="http://www.w3.org/2000/svg" xmlns:xlink="http://www.w3.org/1999/xlink" xmlns:serif="http://www.serif.com/"   viewBox="0 0 449 449" version="1.1" xml:space="preserve" style="fill-rule:evenodd;clip-rule:evenodd;stroke-linejoin:round;stroke-miterlimit:2;">
  <path d="M448.594,224.303c-0,123.878 -100.438,224.3 -224.313,224.3c-123.875,0 -224.281,-100.422 -224.281,-224.3c0,-123.878 100.406,-224.303 224.281,-224.303c123.875,0 224.313,100.425 224.313,224.303Z" style="fill:#fff;"></path>
  <clipPath id="_clip1">
    <path d="M448.594,224.303c-0,123.878 -100.438,224.3 -224.313,224.3c-123.875,0 -224.281,-100.422 -224.281,-224.3c0,-123.878 100.406,-224.303 224.281,-224.303c123.875,0 224.313,100.425 224.313,224.303Z"></path>
  </clipPath>
  <g clip-path="url(#_clip1)">
    <path d="M176.281,110.534c9.031,-16.375 19.219,-33.265 35.5,-42.481c10.063,-5.712 25.375,-6.603 30.969,3.556c2.937,5.344 3.468,13.591 9.469,14.65c2.218,0.391 4.437,-0.503 6.531,-1.318c15.344,-5.95 35.344,-7.357 45.781,5.365c7.153,8.722 7.216,21.144 6.125,32.369c-1.284,13.053 -3.722,25.997 -7.219,38.637c-8.222,-9.503 -20.562,-14.147 -32.406,-18.428c-14.969,-5.428 -29.937,-10.856 -44.937,-16.284c-11.594,-4.209 -24.344,-8.444 -36.032,-4.381l-13.781,-11.685Z" style="fill:#ffb753;fill-rule:nonzero;"></path>
    <path d="M182.75,99.181c40.531,-6.347 83.437,4.488 116.094,29.3c6,4.56 12.25,12.156 8.656,18.781c-14.219,-9.465 -28.625,-19.021 -44.719,-24.756c-8.625,-3.075 -17.625,-5.003 -26.625,-6.681c-19.718,-3.678 -39.687,-6.197 -59.719,-7.541c1.5,-3.131 3.657,-5.931 6.344,-8.137l-0.031,-0.966Z" style="fill:#4f657f;fill-rule:nonzero;"></path>
    <path d="M161.469,233.553c-27.25,-11.472 -48.719,-35.828 -56.719,-64.294c-2,-7.162 -3.219,-14.693 -2.094,-22.047c2.375,-15.59 15.094,-28.106 29.625,-34.253c14.531,-6.147 30.719,-6.925 46.5,-6.831c33.125,0.206 66.875,4.088 96.938,18.006c30.062,13.922 56.125,39.072 65.125,70.95c2.656,9.388 3.684,19.882 -0.782,28.55c-2.031,3.941 -5.093,7.266 -8.437,10.185c-15.469,13.534 -36.906,18.64 -57.438,18.168c-20.562,-0.471 -40.593,-5.996 -60.406,-11.481l-52.312,-6.953Z" style="fill:#ffb753;fill-rule:nonzero;"></path>
    <path d="M334.531,349.547c-20.875,-13.975 -46.094,-19.572 -70.719,-24.519c-1.5,-0.3 -3.062,-0.628 -4.281,-1.572c-2.062,-1.612 2.625,-42.137 0,-65.915l-35.125,3.29l-35.156,-3.29c-2.625,23.778 2.062,64.303 -0,65.915c-1.219,0.944 -2.781,1.272 -4.281,1.572c-24.625,4.947 -49.844,10.544 -70.688,24.519c-20.875,13.975 -36.687,92.534 -33.343,117.425c20.968,-0.11 79.437,2.79 138.687,3.569l-0,0.128c1.593,-0.022 3.187,-0.044 4.781,-0.066c1.594,0.022 3.156,0.044 4.75,0.066l0,-0.128c59.25,-0.779 117.747,-3.679 138.688,-3.569c3.343,-24.891 -12.441,-103.45 -33.313,-117.425Z" style="fill:#f0bf85;fill-rule:nonzero;"></path>
    <path d="M156.781,194.037c-9.156,-7.656 -17.875,-18.296 -17.906,-30.243c-0.125,-24.76 10.562,-25.172 15.969,-27.422c9.219,-3.838 19.093,-6.86 29.031,-6.06c-12.375,17.513 -21.219,37.522 -25.813,58.472l-1.281,5.253Z" style="fill:#ce7d1d;fill-rule:nonzero;"></path>
    <path d="M235.781,138.25c14.938,4.853 29.469,11.566 41.344,21.784c11.906,10.222 21,24.25 23.156,39.785c0.969,6.984 0.403,14.518 -3.503,20.39c-3.591,5.428 -9.684,8.822 -15.997,10.479c-6.281,1.656 -12.875,1.762 -19.406,1.859c-3.219,-29.666 -11.469,-58.778 -24.25,-85.744l-1.344,-8.553Z" style="fill:#ce7d1d;fill-rule:nonzero;"></path>
    <clipPath id="_clip2">
      <path d="M334.531,349.547c-20.875,-13.975 -46.094,-19.572 -70.719,-24.519c-1.5,-0.3 -3.062,-0.628 -4.281,-1.572c-2.062,-1.612 2.625,-42.137 0,-65.915l-35.125,3.29l-35.156,-3.29c-2.625,23.778 2.062,64.303 -0,65.915c-1.219,0.944 -2.781,1.272 -4.281,1.572c-24.625,4.947 -49.844,10.544 -70.688,24.519c-20.875,13.975 -36.687,92.534 -33.343,117.422c20.968,-0.107 79.437,2.793 138.718,3.572l-0,0.128c1.562,-0.022 3.156,-0.044 4.75,-0.066c1.594,0.022 3.156,0.044 4.75,0.066l0,-0.128c59.25,-0.779 117.747,-3.679 138.688,-3.572c3.343,-24.888 -12.441,-103.447 -33.313,-117.422Z"></path>
    </clipPath>
    <g clip-path="url(#_clip2)">
      <path d="M142.469,256.772c13.874,-8.925 14.468,-13.209 15.125,-8.925c3.281,21.044 36.531,71.747 66.781,71.747c39.156,-0 61.875,-66.075 65.531,-82.728c-45.25,6.465 -91.062,12.94 -136.437,7.5c1.25,1.175 2.469,2.35 3.718,3.528l-14.718,8.878Z" style="fill:#d3a06c;fill-rule:nonzero;"></path>
    </g>
    <path d="M172.812,141.412c-8.062,27.288 -6.062,75.107 0,102.907l0.094,0.446c3.313,14.925 8.594,29.825 18.532,41.441c9.906,11.616 25.218,19.469 40.343,17.41c14.656,-1.994 26.937,-12.872 34.094,-25.813c7.156,-12.938 9.875,-27.803 11.875,-42.447c3.469,-25.503 2.562,-93.231 0.125,-93.437c-31.531,-2.672 -74.375,-9.131 -105.063,-1.391l0,0.884Z" style="fill:#f0bf85;fill-rule:nonzero;"></path>
    <path d="M276.5,224.791c0.781,-5.616 7.531,-9.125 12.969,-7.479c5.406,1.647 8.996,7.278 9.406,12.935c0.403,5.653 -1.907,11.219 -5.125,15.868c-5.437,7.754 -14.938,13.773 -24.094,11.376c1.469,-11.629 3.531,-23.179 6.25,-34.582l0.594,1.882Z" style="fill:#f0bf85;fill-rule:nonzero;"></path>
    <path d="M173.656,224.791c-0.781,-5.616 -7.531,-9.125 -12.969,-7.479c-5.406,1.647 -9,7.278 -9.406,12.935c-0.406,5.653 1.907,11.219 5.125,15.868c5.437,7.754 14.938,13.773 24.094,11.376c-1.469,-11.629 -3.531,-23.179 -6.25,-34.582l-0.594,1.882Z" style="fill:#f0bf85;fill-rule:nonzero;"></path>
    <path d="M258.781,218.066c0,3.937 -2.906,7.131 -6.5,7.131c-3.594,-0 -6.5,-3.194 -6.5,-7.131c0,-3.941 2.906,-7.135 6.5,-7.135c3.594,0 6.5,3.194 6.5,7.135Z" style="fill:#1a1a1a;fill-rule:nonzero;"></path>
    <path d="M207.125,218.066c-0,3.937 -2.906,7.131 -6.5,7.131c-3.594,-0 -6.5,-3.194 -6.5,-7.131c-0,-3.941 2.906,-7.135 6.5,-7.135c3.594,0 6.5,3.194 6.5,7.135Z" style="fill:#1a1a1a;fill-rule:nonzero;"></path>
    <path d="M277.312,241.544c3.438,-3.432 6.844,-6.863 10.281,-10.294c0.72,-0.7 0.751,-1.984 0,-2.675c-0.75,-0.691 -1.906,-0.747 -2.656,-0c-3.437,3.434 -6.875,6.866 -10.312,10.297c-0.688,0.7 -0.75,1.981 0,2.672c0.75,0.693 1.938,0.746 2.687,-0Z" style="fill:#a46e4a;fill-rule:nonzero;"></path>
    <path d="M279.781,237.691c2.563,2.143 5.156,4.287 7.719,6.431c0.406,0.328 0.813,0.556 1.344,0.556c0.468,0 1,-0.206 1.343,-0.556c0.625,-0.697 0.782,-1.997 0,-2.672c-2.594,-2.144 -5.156,-4.288 -7.749,-6.435c-0.375,-0.328 -0.782,-0.553 -1.313,-0.553c-0.469,0 -1.031,0.207 -1.344,0.553c-0.656,0.7 -0.812,2.001 -0,2.676Z" style="fill:#a46e4a;fill-rule:nonzero;"></path>
    <path d="M157.531,232.525c3.875,4.712 7.75,9.428 11.594,14.144c0.656,0.787 2,0.672 2.687,-0c0.782,-0.782 0.657,-1.882 0,-2.675c-3.875,-4.713 -7.75,-9.428 -11.593,-14.144c-0.657,-0.788 -2,-0.672 -2.688,0c-0.781,0.781 -0.656,1.881 -0,2.675Z" style="fill:#a46e4a;fill-rule:nonzero;"></path>
    <path d="M162.375,243.128c1.313,-0.859 2.593,-1.716 3.875,-2.575c0.406,-0.272 0.719,-0.644 0.875,-1.128c0.125,-0.453 0.063,-1.056 -0.188,-1.456c-0.281,-0.407 -0.656,-0.76 -1.156,-0.869c-0.468,-0.109 -1.031,-0.094 -1.437,0.191c-1.282,0.856 -2.563,1.715 -3.875,2.571c-0.407,0.275 -0.719,0.644 -0.844,1.132c-0.125,0.453 -0.094,1.053 0.188,1.456c0.249,0.403 0.624,0.759 1.125,0.869c0.468,0.109 1.031,0.09 1.437,-0.191Z" style="fill:#a46e4a;fill-rule:nonzero;"></path>
    <path d="M198.687,263.562c-0.375,1.172 -0.75,2.347 -1.125,3.522c2,-1.847 5.5,-1.715 7.375,0.278c1.438,-1.353 3.282,-2.25 5.219,-2.528c-0.156,1.838 0.344,3.719 1.406,5.231c1.688,-2.143 4.25,-3.559 6.969,-3.828c0.813,1.213 1.656,2.425 2.469,3.638c0.656,-3.622 5.875,-5.388 8.562,-2.897c1.344,1.228 2.938,3.334 4.407,2.253c0.687,-0.519 0.781,-1.541 1.312,-2.222c2.5,-3.153 7.844,4.56 10.781,1.832c-0.031,-2.135 0.313,-4.276 1.063,-6.275c3.281,2.978 7.656,4.712 12.094,4.787c-4.157,-12.094 -16.344,-21.219 -29.125,-21.216c-29.594,0.01 -31.407,17.425 -31.407,17.425Z" style="fill:#7c7a79;fill-rule:nonzero;"></path>
    <path d="M225.687,206.344c5.844,13.059 10.125,26.762 12.938,40.781c0.594,-0.797 1.187,-1.594 1.812,-2.394c-4.812,0.306 -9.281,-1.594 -12.406,-5.237c-1.594,-1.85 -4.25,0.834 -2.687,2.672c3.718,4.328 9.406,6.709 15.093,6.346c1.282,-0.081 2.063,-1.137 1.813,-2.393c-2.844,-14.356 -7.344,-28.316 -13.281,-41.685c-1,-2.215 -4.251,-0.297 -3.282,1.91Z" style="fill:#a46e4a;fill-rule:nonzero;"></path>
    <path d="M213.594,180.022c1.468,3.39 2.906,7.412 1.031,10.6c-1.375,2.378 -4.188,3.475 -6.781,4.403c-8.282,2.959 -16.563,5.922 -24.844,8.881c2.031,-12.394 13.469,-22.581 26.031,-23.131l4.563,-0.753Z" style="fill:#7c7a79;fill-rule:nonzero;"></path>
    <path d="M246.344,180.794c-1.282,4.356 -2.563,9.518 -0.907,13.612c1.219,3.056 3.688,4.463 6,5.653c7.281,3.803 14.594,7.607 21.907,11.41c-1.781,-15.919 -11.907,-29 -22.969,-29.706l-4.031,-0.969Z" style="fill:#7c7a79;fill-rule:nonzero;"></path>
    <path d="M223.094,275.059c3.656,4.582 12.062,3.538 14.562,-1.747c0.406,-0.893 0.282,-2.081 -0.687,-2.587c-0.844,-0.444 -2.125,-0.275 -2.594,0.678l-0.375,0.7l-0.219,0.325c0.282,-0.397 0.031,-0.065 -0.031,0.022l-0.563,0.547l-0.031,0.031l-0.312,0.222l-0.688,0.387l-0.031,0.029l-0.375,0.14l-0.75,0.222l-0.407,0.085l-0.249,0.043l0.156,-0.025c-0.531,0.003 -1.063,0.047 -1.594,0.016c-0.437,-0.028 0.125,0.044 -0.031,-0l-0.375,-0.075l-0.75,-0.213c-0.063,-0.018 -0.5,-0.175 -0.219,-0.068c0.282,0.106 -0.125,-0.066 -0.187,-0.094l-0.657,-0.397c-0.375,-0.216 0.063,0.087 -0.062,-0.016l-0.281,-0.259l-0.594,-0.637c-0.625,-0.776 -2.031,-0.694 -2.656,-0c-0.75,0.821 -0.657,1.846 -0,2.671Z" style="fill:#a46e4a;fill-rule:nonzero;"></path>
    <path d="M188.625,322.284c21.5,7.91 45.813,15.76 66.625,6.156c2.937,-1.359 5.812,-3.062 8.969,-3.699c3.625,-0.722 7.344,-0.007 10.937,0.896c10.094,2.572 19.813,6.7 28.684,12.203c-9.153,15.319 -20.028,30.438 -35.621,39.116c-20.906,11.638 -46.407,9.756 -70.25,7.547c-11.938,-1.106 -23.844,-2.209 -35.781,-3.316c-4.063,-0.375 -8.282,-0.815 -11.688,-3.072c-2.938,-1.959 -4.875,-5.062 -6.687,-8.106c-5.563,-9.478 -10.501,-19.334 -14.782,-29.475c19.625,-6.128 39.531,-11.431 59.594,-15.89l-0,-2.36Z" style="fill:#fff;fill-rule:nonzero;"></path>
    <path d="M336.187,347.884c-12.753,-8.531 -27.062,-13.984 -41.906,-18.075c-2.375,4.253 -37.281,30.31 -57.25,45.025c-8.219,6.047 -19.469,5.672 -27.281,-0.9c-12.906,-10.868 -32.313,-28.184 -45.75,-44.444c-10.875,3.663 -42.281,11.994 -51.844,18.394c-21.219,14.216 -37.312,93.194 -33.906,118.513c21.312,-0.11 80.813,2.797 141.094,3.587l-0,0.132c1.593,-0.022 3.218,-0.044 4.843,-0.066c1.594,0.022 3.219,0.044 4.813,0.066l-0,-0.132c60.281,-0.79 120.247,5.569 141.562,5.678c3.407,-25.318 -13.124,-113.562 -34.375,-127.778Z" style="fill:#8ca3c3;fill-rule:nonzero;"></path>
    <clipPath id="_clip3">
      <path d="M336.187,347.887c-12.753,-8.534 -27.062,-13.987 -41.906,-18.078c-2.375,4.25 -37.281,30.31 -57.25,45.025c-8.219,6.047 -19.469,5.672 -27.281,-0.9c-12.906,-10.868 -32.313,-28.184 -45.75,-44.444c-10.875,3.66 -42.281,11.994 -51.844,18.397c-21.219,14.213 -37.312,93.191 -33.906,118.51c21.312,-0.113 80.813,2.797 141.094,3.587l-0,0.132c1.593,-0.022 3.218,-0.044 4.843,-0.066c1.594,0.022 3.219,0.044 4.813,0.066l-0,-0.132c60.281,-0.79 120.247,5.569 141.562,5.678c3.407,-25.318 -13.156,-113.562 -34.375,-127.775Z"></path>
    </clipPath>
    <g clip-path="url(#_clip3)">
      <path d="M150.656,330.647c18.375,20.459 39.031,38.897 61.406,54.872c2.719,1.953 5.563,3.9 8.782,4.815c4.187,1.185 8.687,0.528 12.874,-0.643c19.344,-5.425 33.907,-20.991 47.407,-35.879c7.531,-8.29 15.028,-16.578 22.563,-24.865c-4.251,-3.4 -10.501,-3.253 -15.532,-1.175c-5.031,2.078 -9.187,5.781 -13.375,9.228c-11.437,9.359 -24.062,17.281 -37.469,23.522c-3.625,1.694 -7.468,3.297 -11.468,3.047c-7.594,-0.472 -13.063,-7.207 -17.532,-13.36c-4.749,-6.509 -9.468,-13.022 -14.187,-19.534c-6.094,-8.391 -15.063,-17.841 -24.969,-14.828l-18.5,14.8Z" style="fill:#4f657f;fill-rule:nonzero;"></path>
    </g>
    <clipPath id="_clip4">
      <path d="M336.187,347.887c-12.753,-8.534 -27.062,-13.987 -41.906,-18.078c-2.375,4.25 -37.281,30.31 -57.25,45.025c-8.219,6.047 -19.469,5.672 -27.281,-0.9c-12.906,-10.868 -32.313,-28.184 -45.75,-44.444c-10.875,3.66 -42.281,11.994 -51.844,18.397c-21.219,14.213 -37.312,93.191 -33.906,118.51c21.312,-0.113 80.813,2.797 141.094,3.587l-0,0.132c1.593,-0.022 3.218,-0.044 4.843,-0.066c1.594,0.022 3.219,0.044 4.813,0.066l-0,-0.132c60.281,-0.79 120.247,5.569 141.562,5.678c3.407,-25.318 -13.156,-113.562 -34.375,-127.775Z"></path>
    </clipPath>
    <g clip-path="url(#_clip4)">
      <path d="M310.312,409.278c3.594,21.997 5.372,44.288 5.278,66.581c0,6.388 -0.184,12.772 -0.528,19.153c-0.125,2.432 3.653,2.425 3.781,0c1.157,-22.64 0.438,-45.362 -2.218,-67.878c-0.75,-6.306 -1.657,-12.593 -2.687,-18.859c-0.376,-2.397 -4.032,-1.378 -3.626,1.003Z" style="fill:#4f657f;fill-rule:nonzero;"></path>
    </g>
    <clipPath id="_clip5">
      <path d="M336.187,347.887c-12.753,-8.534 -27.062,-13.987 -41.906,-18.078c-2.375,4.25 -37.281,30.31 -57.25,45.025c-8.219,6.047 -19.469,5.672 -27.281,-0.9c-12.906,-10.868 -32.313,-28.184 -45.75,-44.444c-10.875,3.66 -42.281,11.994 -51.844,18.397c-21.219,14.213 -37.312,93.191 -33.906,118.51c21.312,-0.113 80.813,2.797 141.094,3.587l-0,0.132c1.593,-0.022 3.218,-0.044 4.843,-0.066c1.594,0.022 3.219,0.044 4.813,0.066l-0,-0.132c60.281,-0.79 120.247,5.569 141.562,5.678c3.407,-25.318 -13.156,-113.562 -34.375,-127.775Z"></path>
    </clipPath>
    <g clip-path="url(#_clip5)">
      <path d="M125.5,402.294c2.343,23.965 3.312,48.062 2.875,72.14c-0.125,6.847 -0.375,13.694 -0.719,20.538c-0.125,2.431 3.657,2.425 3.781,-0c1.219,-24.053 1.063,-48.166 -0.499,-72.197c-0.438,-6.838 -1.001,-13.663 -1.657,-20.481c-0.25,-2.4 -4.031,-2.425 -3.781,-0Z" style="fill:#4f657f;fill-rule:nonzero;"></path>
    </g>
    <clipPath id="_clip6">
      <path d="M336.187,347.887c-12.753,-8.534 -27.062,-13.987 -41.906,-18.078c-2.375,4.25 -37.281,30.31 -57.25,45.025c-8.219,6.047 -19.469,5.672 -27.281,-0.9c-12.906,-10.868 -32.313,-28.184 -45.75,-44.444c-10.875,3.66 -42.281,11.994 -51.844,18.397c-21.219,14.213 -37.312,93.191 -33.906,118.51c21.312,-0.113 80.813,2.797 141.094,3.587l-0,0.132c1.593,-0.022 3.218,-0.044 4.843,-0.066c1.594,0.022 3.219,0.044 4.813,0.066l-0,-0.132c60.281,-0.79 120.247,5.569 141.562,5.678c3.407,-25.318 -13.156,-113.562 -34.375,-127.775Z"></path>
    </clipPath>
    <g clip-path="url(#_clip6)">
      <path d="M185.406,456.55c19.063,-13.006 41.75,-20.163 64.813,-20.347c2.437,-0.019 2.437,-3.8 -0,-3.781c-18.375,0.147 -36.625,4.572 -53.094,12.819c-4.719,2.371 -9.25,5.065 -13.625,8.046c-2,1.363 -0.094,4.641 1.906,3.263Z" style="fill:#4f657f;fill-rule:nonzero;"></path>
    </g>
    <clipPath id="_clip7">
      <path d="M336.187,347.887c-12.753,-8.534 -27.062,-13.987 -41.906,-18.078c-2.375,4.25 -37.281,30.31 -57.25,45.025c-8.219,6.047 -19.469,5.672 -27.281,-0.9c-12.906,-10.868 -32.313,-28.184 -45.75,-44.444c-10.875,3.66 -42.281,11.994 -51.844,18.397c-21.219,14.213 -37.312,93.191 -33.906,118.51c21.312,-0.113 80.813,2.797 141.094,3.587l-0,0.132c1.593,-0.022 3.218,-0.044 4.843,-0.066c1.594,0.022 3.219,0.044 4.813,0.066l-0,-0.132c60.281,-0.79 120.247,5.569 141.562,5.678c3.407,-25.318 -13.156,-113.562 -34.375,-127.775Z"></path>
    </clipPath>
    <g clip-path="url(#_clip7)">
      <path d="M210,459.322c8.5,-4.225 17.437,-7.441 26.687,-9.647c2.375,-0.566 1.375,-4.213 -1,-3.647c-9.562,2.281 -18.812,5.663 -27.593,10.028c-2.188,1.081 -0.282,4.344 1.906,3.266Z" style="fill:#4f657f;fill-rule:nonzero;"></path>
    </g>
    <clipPath id="_clip8">
      <path d="M336.187,347.887c-12.753,-8.534 -27.062,-13.987 -41.906,-18.078c-2.375,4.25 -37.281,30.31 -57.25,45.025c-8.219,6.047 -19.469,5.672 -27.281,-0.9c-12.906,-10.868 -32.313,-28.184 -45.75,-44.444c-10.875,3.66 -42.281,11.994 -51.844,18.397c-21.219,14.213 -37.312,93.191 -33.906,118.51c21.312,-0.113 80.813,2.797 141.094,3.587l-0,0.132c1.593,-0.022 3.218,-0.044 4.843,-0.066c1.594,0.022 3.219,0.044 4.813,0.066l-0,-0.132c60.281,-0.79 120.247,5.569 141.562,5.678c3.407,-25.318 -13.156,-113.562 -34.375,-127.775Z"></path>
    </clipPath>
    <g clip-path="url(#_clip8)">
      <path d="M336.125,392.494c1.75,4.828 2.531,9.884 2.312,15.015c-0.062,1.022 0.907,1.891 1.876,1.891c1.059,-0 1.84,-0.866 1.902,-1.891c0.254,-5.431 -0.59,-10.912 -2.469,-16.018c-0.34,-0.96 -1.277,-1.607 -2.312,-1.322c-0.903,0.256 -1.653,1.362 -1.309,2.325Z" style="fill:#4f657f;fill-rule:nonzero;"></path>
    </g>
    <clipPath id="_clip9">
      <path d="M336.187,347.887c-12.753,-8.534 -27.062,-13.987 -41.906,-18.078c-2.375,4.25 -37.281,30.31 -57.25,45.025c-8.219,6.047 -19.469,5.672 -27.281,-0.9c-12.906,-10.868 -32.313,-28.184 -45.75,-44.444c-10.875,3.66 -42.281,11.994 -51.844,18.397c-21.219,14.213 -37.312,93.191 -33.906,118.51c21.312,-0.113 80.813,2.797 141.094,3.587l-0,0.132c1.593,-0.022 3.218,-0.044 4.843,-0.066c1.594,0.022 3.219,0.044 4.813,0.066l-0,-0.132c60.281,-0.79 120.247,5.569 141.562,5.678c3.407,-25.318 -13.156,-113.562 -34.375,-127.775Z"></path>
    </clipPath>
    <g clip-path="url(#_clip9)">
      <path d="M346.5,402.784c0.75,2.6 1.531,5.2 2.281,7.803c0.282,0.947 1.344,1.638 2.344,1.319c0.938,-0.309 1.594,-1.309 1.312,-2.325c-0.781,-2.6 -1.531,-5.2 -2.312,-7.803c-0.281,-0.947 -1.344,-1.637 -2.313,-1.319c-0.972,0.31 -1.625,1.31 -1.312,2.325Z" style="fill:#4f657f;fill-rule:nonzero;"></path>
    </g>
    <clipPath id="_clip10">
      <path d="M336.187,347.887c-12.753,-8.534 -27.062,-13.987 -41.906,-18.078c-2.375,4.25 -37.281,30.31 -57.25,45.025c-8.219,6.047 -19.469,5.672 -27.281,-0.9c-12.906,-10.868 -32.313,-28.184 -45.75,-44.444c-10.875,3.66 -42.281,11.994 -51.844,18.397c-21.219,14.213 -37.312,93.191 -33.906,118.51c21.312,-0.113 80.813,2.797 141.094,3.587l-0,0.132c1.593,-0.022 3.218,-0.044 4.843,-0.066c1.594,0.022 3.219,0.044 4.813,0.066l-0,-0.132c60.281,-0.79 120.247,5.569 141.562,5.678c3.407,-25.318 -13.156,-113.562 -34.375,-127.775Z"></path>
    </clipPath>
    <g clip-path="url(#_clip10)">
      <path d="M355.497,428.528c0.718,2.616 1.41,5.228 2.128,7.841c0.281,0.953 1.375,1.634 2.344,1.322c0.965,-0.316 1.594,-1.304 1.312,-2.325c-0.718,-2.616 -1.437,-5.229 -2.156,-7.841c-0.25,-0.953 -1.347,-1.634 -2.312,-1.322c-0.969,0.319 -1.594,1.303 -1.316,2.325Z" style="fill:#4f657f;fill-rule:nonzero;"></path>
    </g>
    <clipPath id="_clip11">
      <path d="M336.187,347.887c-12.753,-8.534 -27.062,-13.987 -41.906,-18.078c-2.375,4.25 -37.281,30.31 -57.25,45.025c-8.219,6.047 -19.469,5.672 -27.281,-0.9c-12.906,-10.868 -32.313,-28.184 -45.75,-44.444c-10.875,3.66 -42.281,11.994 -51.844,18.397c-21.219,14.213 -37.312,93.191 -33.906,118.51c21.312,-0.113 80.813,2.797 141.094,3.587l-0,0.132c1.593,-0.022 3.218,-0.044 4.843,-0.066c1.594,0.022 3.219,0.044 4.813,0.066l-0,-0.132c60.281,-0.79 120.247,5.569 141.562,5.678c3.407,-25.318 -13.156,-113.562 -34.375,-127.775Z"></path>
    </clipPath>
    <g clip-path="url(#_clip11)">
      <path d="M342.09,433.791c0.535,3.415 1.066,6.834 1.563,10.253c0.156,0.978 1.441,1.609 2.343,1.318c1.066,-0.343 1.473,-1.275 1.317,-2.325c-0.535,-3.418 -1.063,-6.834 -1.563,-10.253c-0.156,-0.978 -1.437,-1.609 -2.344,-1.318c-1.062,0.343 -1.468,1.275 -1.316,2.325Z" style="fill:#4f657f;fill-rule:nonzero;"></path>
    </g>
    <clipPath id="_clip12">
      <path d="M336.187,347.887c-12.753,-8.534 -27.062,-13.987 -41.906,-18.078c-2.375,4.25 -37.281,30.31 -57.25,45.025c-8.219,6.047 -19.469,5.672 -27.281,-0.9c-12.906,-10.868 -32.313,-28.184 -45.75,-44.444c-10.875,3.66 -42.281,11.994 -51.844,18.397c-21.219,14.213 -37.312,93.191 -33.906,118.51c21.312,-0.113 80.813,2.797 141.094,3.587l-0,0.132c1.593,-0.022 3.218,-0.044 4.843,-0.066c1.594,0.022 3.219,0.044 4.813,0.066l-0,-0.132c60.281,-0.79 120.247,5.569 141.562,5.678c3.407,-25.318 -13.156,-113.562 -34.375,-127.775Z"></path>
    </clipPath>
    <g clip-path="url(#_clip12)">
      <path d="M90,433.769c0.625,4.825 0.343,9.784 -0.781,14.512c-0.563,2.366 3.062,3.375 3.625,1.006c1.312,-5.44 1.531,-10.99 0.781,-16.525c-0.125,-1.012 -1.438,-1.562 -2.313,-1.318c-1.093,0.3 -1.468,1.309 -1.312,2.325Z" style="fill:#4f657f;fill-rule:nonzero;"></path>
    </g>
    <clipPath id="_clip13">
      <path d="M336.187,347.887c-12.753,-8.534 -27.062,-13.987 -41.906,-18.078c-2.375,4.25 -37.281,30.31 -57.25,45.025c-8.219,6.047 -19.469,5.672 -27.281,-0.9c-12.906,-10.868 -32.313,-28.184 -45.75,-44.444c-10.875,3.66 -42.281,11.994 -51.844,18.397c-21.219,14.213 -37.312,93.191 -33.906,118.51c21.312,-0.113 80.813,2.797 141.094,3.587l-0,0.132c1.593,-0.022 3.218,-0.044 4.843,-0.066c1.594,0.022 3.219,0.044 4.813,0.066l-0,-0.132c60.281,-0.79 120.247,5.569 141.562,5.678c3.407,-25.318 -13.156,-113.562 -34.375,-127.775Z"></path>
    </clipPath>
    <g clip-path="url(#_clip13)">
      <path d="M99.343,423.769c-0.468,3 -0.937,5.997 -1.374,8.997c-0.157,0.971 0.25,2.081 1.312,2.325c0.906,0.203 2.156,-0.275 2.344,-1.322c0.437,-2.997 0.906,-5.997 1.344,-8.994c0.156,-0.975 -0.25,-2.081 -1.313,-2.328c-0.906,-0.203 -2.156,0.275 -2.313,1.322Z" style="fill:#4f657f;fill-rule:nonzero;"></path>
    </g>
    <clipPath id="_clip14">
      <path d="M336.187,347.887c-12.753,-8.534 -27.062,-13.987 -41.906,-18.078c-2.375,4.25 -37.281,30.31 -57.25,45.025c-8.219,6.047 -19.469,5.672 -27.281,-0.9c-12.906,-10.868 -32.313,-28.184 -45.75,-44.444c-10.875,3.66 -42.281,11.994 -51.844,18.397c-21.219,14.213 -37.312,93.191 -33.906,118.51c21.312,-0.113 80.813,2.797 141.094,3.587l-0,0.132c1.593,-0.022 3.218,-0.044 4.843,-0.066c1.594,0.022 3.219,0.044 4.813,0.066l-0,-0.132c60.281,-0.79 120.247,5.569 141.562,5.678c3.407,-25.318 -13.156,-113.562 -34.375,-127.775Z"></path>
    </clipPath>
    <g clip-path="url(#_clip14)">
      <path d="M98.812,397.922c-0.749,3.034 -1.468,6.069 -2.187,9.103c-0.25,0.959 0.313,2.094 1.312,2.325c0.969,0.219 2.094,-0.294 2.313,-1.322c0.75,-3.034 1.469,-6.069 2.187,-9.103c0.25,-0.959 -0.281,-2.091 -1.312,-2.325c-0.969,-0.219 -2.063,0.294 -2.313,1.322Z" style="fill:#4f657f;fill-rule:nonzero;"></path>
    </g>
    <path d="M230.625,334.787c-10.219,4.769 -18.281,13.988 -21.625,24.757c-6.281,-5.325 -12.469,-10.944 -16.906,-17.882c-4.438,-6.94 -6.969,-15.421 -5.344,-23.496c21.25,16.293 53.062,17.103 75.125,1.906c2.719,12.009 0.343,25.094 -6.438,35.372c-7.781,-8.403 -17.531,-15 -28.218,-19.128l3.406,-1.529Z" style="fill:#8ca3c3;fill-rule:nonzero;"></path>
    <path d="M224.875,346.291c1.219,8.59 2.469,17.178 3.688,25.765c0.156,1.019 1.437,1.556 2.312,1.319c1.094,-0.284 1.469,-1.319 1.312,-2.325c-1.219,-8.588 -2.437,-17.175 -3.656,-25.762c-0.156,-1.019 -1.437,-1.557 -2.343,-1.322c-1.095,0.287 -1.47,1.322 -1.313,2.325Z" style="fill:#8ca3c3;fill-rule:nonzero;"></path>
    <path d="M232.562,143.225c-6.281,-0.466 -10.812,5.581 -12.125,11.094c-1.343,5.572 -0.218,12.206 4.594,15.834c4.063,3.072 10.281,3.391 14.313,0.063c2,-1.663 3.5,-4.472 2.625,-7.097c-0.75,-2.253 -3.063,-3.372 -5.313,-3.447c-2.687,-0.088 -5.25,1.297 -6.469,3.697c-1.781,3.403 -1.093,7.368 -0.343,10.943c0.5,2.378 4.156,1.372 3.656,-1.003c-0.625,-2.869 -1.938,-9.119 2.344,-9.812c0.781,-0.128 2.218,-0.081 2.562,0.84c0.531,1.41 -1.437,3.085 -2.5,3.657c-2.719,1.475 -6.5,0.919 -8.875,-1.035c-3.125,-2.575 -3.844,-7.222 -3.094,-11.006c0.844,-4.122 3.782,-9.309 8.625,-8.947c2.438,0.181 2.438,-3.6 0,-3.781Z" style="fill:#7c7a79;fill-rule:nonzero;"></path>
    <path d="M195.844,236.694c2.562,-1.716 5.156,-3.432 7.719,-5.15c0.812,-0.547 1.249,-1.691 0.687,-2.585c-0.531,-0.818 -1.719,-1.265 -2.594,-0.678c-2.562,1.716 -5.156,3.431 -7.719,5.147c-0.812,0.547 -1.25,1.694 -0.687,2.588c0.531,0.818 1.719,1.262 2.594,0.678Z" style="fill:#a46e4a;fill-rule:nonzero;"></path>
    <path d="M245.906,231.497c2.157,0.45 4.281,0.9 6.438,1.353c0.968,0.203 2.093,-0.285 2.312,-1.322c0.219,-0.947 -0.281,-2.106 -1.312,-2.325c-2.125,-0.45 -4.282,-0.9 -6.406,-1.35c-0.969,-0.203 -2.094,0.281 -2.344,1.319c-0.219,0.947 0.281,2.106 1.312,2.325Z" style="fill:#a46e4a;fill-rule:nonzero;"></path>
    <path d="M302.813,174.788c-2.313,-10.71 -12.845,-26.626 -27.969,-37.344c-17.657,-12.51 -37.938,-26.591 -59.813,-28.725c-2.562,-0.25 -5.156,0.472 -7.062,2.097l-0.032,0.025c-15.656,-9.96 -40.187,-2.844 -47.25,13.7c-0.937,2.156 -1.594,4.434 -2.874,6.409c-1.969,2.95 -5.126,4.95 -7.657,7.466c-9.5,9.424 -7.719,26.734 3.5,34.268c-7.281,6.663 -6.531,19.447 1.5,25.303c-1.031,6.979 3.031,14.372 9.656,17.578l-2.156,3.129c9.969,0.219 17.25,-10.107 16.938,-19.532c-0.313,-9.424 -5.907,-17.868 -11.313,-25.787c10.875,1.175 20.375,-11.5 15.563,-20.806c5.375,1.715 11.094,3.45 16.656,2.34c5.562,-1.106 10.625,-6.215 9.313,-11.44c6.656,10.512 24.124,12.834 33.593,4.462c0.782,8.025 11.188,13.706 18.938,10.341c-6.25,3.522 -8.781,11.853 -5.469,17.965c3.281,6.11 11.906,9.063 18.594,6.366c-5.282,7.719 -3.25,19.109 4.437,24.759c-3.687,2.007 -1.531,8.235 2.656,8.832c4.188,0.6 8.032,-2.95 9.063,-6.841c1,-3.891 -0.063,-7.962 -1.125,-11.841c9.875,-0.912 16.062,-13.446 10.437,-21.19c0.653,-0.481 1.282,-0.997 1.876,-1.534Z" style="fill:#7c7a79;fill-rule:nonzero;"></path>
    <path d="M138.75,151.637c12.594,-21.421 32.562,-29.915 51.844,-28.228c19.281,1.691 38.906,6.925 55.718,17.044c56.25,33.866 64.063,64.391 63.81,84.272c5.347,-27.231 5.284,-59.45 -12.778,-80.122c-18.063,-20.669 -43.125,-33.359 -68.875,-39.866c-38.126,-9.634 -90.407,-7.593 -116.188,22.957l26.469,23.943Z" style="fill:#ffb753;fill-rule:nonzero;"></path>
  </g>
</svg>
