<?xml version="1.0" encoding="UTF-8" standalone="no"?>
<svg preserveAspectRatio="xMidYMid slice" width="34px" height="34px" xmlns="http://www.w3.org/2000/svg" xmlns:xlink="http://www.w3.org/1999/xlink" xmlns:serif="http://www.serif.com/"   viewBox="0 0 449 449" version="1.1" xml:space="preserve" style="fill-rule:evenodd;clip-rule:evenodd;stroke-linejoin:round;stroke-miterlimit:2;">
  <path d="M448.594,224.303c-0,123.878 -100.406,224.3 -224.281,224.3c-123.875,0 -224.313,-100.422 -224.313,-224.3c0,-123.878 100.438,-224.303 224.313,-224.303c123.875,0 224.281,100.425 224.281,224.303Z" style="fill:#fff;"></path>
  <clipPath id="_clip1">
    <path d="M448.594,224.303c-0,123.878 -100.406,224.3 -224.281,224.3c-123.875,0 -224.313,-100.422 -224.313,-224.3c0,-123.878 100.438,-224.303 224.313,-224.303c123.875,0 224.281,100.425 224.281,224.303Z"></path>
  </clipPath>
  <g clip-path="url(#_clip1)">
    <path d="M211.312,301.291c-2.562,11.837 -10.655,23.034 -22.218,26.587c-11.594,3.556 -26.094,-2.719 -29.188,-14.431c-1.5,5.453 -7.937,8.312 -13.562,7.687c-5.625,-0.628 -10.594,-3.853 -15.25,-7.062c-13,-8.941 -26.094,-19.131 -32.375,-33.594c-6.25,-14.459 -2.906,-34.212 11.062,-41.491c-14.187,-19.265 -19.656,-44.687 -14.656,-68.075c2.437,-11.381 7.469,-22.59 16.313,-30.165c8.843,-7.572 21.937,-10.806 32.562,-6c-1.031,-20.778 0.188,-45.944 18.344,-56.153c6.031,-3.394 13.094,-4.457 20,-4.957c19.844,-1.437 43.75,4.097 50.562,22.747c12.25,-13.806 30.5,-23.615 48.813,-21.125c18.312,2.491 34.593,20.263 31.281,38.413c12.156,-8.822 31.531,-2.616 38,10.965c6.438,13.582 0.438,31.141 -11.906,39.729c14.437,0.256 25.687,14.578 26.656,28.95c0.969,14.368 -6.031,28.153 -14.75,39.612c10.063,11.831 10.594,30.706 1.219,43.087c-4.469,5.9 -10.781,10.288 -14.813,16.479c-2.875,4.397 -4.5,9.534 -7.531,13.825c-6.938,9.825 -21.406,13.412 -32.125,7.959c-5.281,16.122 -27.031,24.206 -41.563,15.444c-7.218,6.675 -18.562,8.465 -27.499,4.35c-8.938,-4.116 -14.907,-13.897 -14.532,-23.716l-2.844,-9.065Z" style="fill:#7c7a79;fill-rule:nonzero;"></path>
    <path d="M338.187,376.822c-20.906,-13.975 -46.156,-19.572 -70.812,-24.519c-1.5,-0.303 -3.062,-0.628 -4.25,-1.572c-2.094,-1.615 2.625,-56 0,-79.778l-35.187,3.291l-35.188,-3.291c-2.625,23.778 2.062,78.163 0,79.778c-1.219,0.944 -2.781,1.269 -4.281,1.572c-24.656,4.947 -49.907,10.544 -70.781,24.519c-20.907,13.972 -36.719,38.347 -33.376,63.237c20.969,-0.109 79.532,0.272 138.844,1.05l0,0.128c1.594,-0.021 3.188,-0.043 4.782,-0.065c1.562,0.022 3.156,0.044 4.75,0.065l-0,-0.128c59.312,-0.778 117.875,-1.159 138.843,-1.05c3.375,-24.89 -12.468,-49.265 -33.344,-63.237Z" style="fill:#f0bf85;fill-rule:nonzero;"></path>
    <clipPath id="_clip2">
      <path d="M338.187,376.822c-20.906,-13.978 -46.156,-19.572 -70.812,-24.519c-1.5,-0.3 -3.062,-0.628 -4.25,-1.572c-2.094,-1.615 2.625,-56.003 0,-79.781l-35.187,3.29l-35.188,-3.29c-2.625,23.778 2.062,78.166 0,79.781c-1.219,0.944 -2.781,1.272 -4.281,1.572c-24.656,4.947 -49.907,10.541 -70.781,24.519c-20.907,13.972 -36.719,38.347 -33.376,63.237c20.969,-0.109 79.532,0.269 138.844,1.05l0,0.128c1.594,-0.021 3.188,-0.043 4.782,-0.065c1.562,0.022 3.156,0.044 4.75,0.065l-0,-0.128c59.312,-0.781 117.875,-1.159 138.843,-1.05c3.375,-24.89 -12.468,-49.265 -33.344,-63.237Z"></path>
    </clipPath>
    <g clip-path="url(#_clip2)">
      <path d="M145.906,270.184c13.875,-8.928 14.469,-13.209 15.125,-8.928c3.282,21.047 36.594,71.75 66.875,71.75c39.188,0 61.938,-66.075 65.594,-82.731c-45.281,6.469 -91.156,12.944 -136.593,7.503c1.249,1.175 2.499,2.35 3.749,3.525l-14.75,8.881Z" style="fill:#d3a06c;fill-rule:nonzero;"></path>
    </g>
    <path d="M301.906,243.656c-0.406,-5.653 -4,-11.284 -9.406,-12.931c-3.562,-1.081 -7.719,0.069 -10.344,2.572c1.75,-30.428 0.782,-77.794 -1.281,-77.969c-31.562,-2.669 -74.437,-9.128 -105.156,-1.391l-0,0.888c-5.907,19.95 -6.438,50.866 -3.907,76.916c-2.468,-1.375 -5.5,-1.841 -8.218,-1.016c-5.438,1.647 -9.031,7.278 -9.438,12.931c-0.406,5.656 1.907,11.222 5.156,15.869c4.626,6.622 12.219,11.959 20.063,11.891c3.313,10.265 8,20.043 14.969,28.203c9.937,11.612 25.25,19.468 40.406,17.406c14.656,-1.991 26.969,-12.869 34.125,-25.806c3.438,-6.235 5.875,-12.916 7.656,-19.803c7.907,0.137 15.594,-5.225 20.25,-11.891c3.25,-4.647 5.531,-10.213 5.125,-15.869Z" style="fill:#f0bf85;fill-rule:nonzero;"></path>
    <path d="M159,230.881c14.812,-20.631 22.281,-45.094 21.188,-69.315c2.468,6.496 11.593,9.815 19.437,8.615c7.844,-1.197 14.375,-5.887 19.437,-11.153c12.938,8.966 32.094,10.647 46.875,4.116c-6.124,5.596 -7.312,14.715 -2.812,21.343c4.5,6.626 14.344,10.21 23,8.382c-2.437,5.243 -4.625,10.765 -4.25,16.406c0.344,5.64 3.781,11.466 9.844,13.666c-4.219,1.625 -3.438,7.756 0.687,9.525c4.157,1.771 9.375,-0.091 12.281,-3.188c2.907,-3.1 4.001,-7.119 5.032,-10.994c4.937,-18.447 9.906,-37.4 6.812,-56.14c-0.875,-5.328 -2.469,-10.713 -6.094,-15.103c-8.749,-10.635 -25.968,-12.332 -41.093,-13.072c-24.406,-1.194 -48.813,-2.391 -73.188,-3.585c-11.656,-0.569 -24.593,-0.772 -33.375,5.841c-5.343,4.05 -8.156,10.009 -10.375,15.844c-9.469,25.009 -11.343,52.103 -5.437,77.906c2.781,0.509 5.594,1.016 8.406,1.522l3.625,-0.616Z" style="fill:#7c7a79;fill-rule:nonzero;"></path>
    <path d="M223.438,154.806c-7.938,2.806 -10.5,12.194 -8.344,19.722c1.25,4.356 4.281,8.428 8.406,10.447c4.031,1.988 8.938,1.666 11.781,-2.106c2.563,-3.413 2.657,-8.538 -1.125,-11.066c-0.531,-0.35 -1.375,-0.353 -1.906,0c-3.781,2.525 -5.781,6.625 -6.281,11.059c-0.625,5.435 1.281,10.754 3.125,15.772c0.844,2.266 4.5,1.285 3.656,-1.006c-2.5,-6.75 -6.156,-17.488 1.406,-22.559l-1.906,-0c2.531,1.69 0.531,5.922 -1.656,6.968c-4.156,1.991 -8.813,-2.328 -10.656,-5.646c-3.157,-5.632 -2.469,-15.472 4.5,-17.938c2.281,-0.806 1.312,-4.459 -1.001,-3.647Z" style="fill:#7c7a79;fill-rule:nonzero;"></path>
    <path d="M288.844,355.225c-25.531,-3.969 -24.75,-24.341 -25.531,-31.694c-22.875,-0.406 -49.219,-0.959 -72.063,-1.366c0.219,31.61 -29.031,35.922 -29.687,35.391c-0,0 -77.907,17.784 -90.657,76.669c-0.625,2.866 -0.781,6.287 1.5,8.297c1.594,1.397 3.938,1.644 6.125,1.812c98.75,7.707 202.407,8.025 300.719,-3.609c-1.656,-14.456 -11.344,-74.347 -90.406,-85.5Z" style="fill:#ef6a55;fill-rule:nonzero;"></path>
    <path d="M202.156,229.819c0,4.081 -3.25,7.384 -7.218,7.384c-4.001,0 -7.25,-3.303 -7.25,-7.384c-0,-4.078 3.249,-7.385 7.25,-7.385c3.968,0 7.218,3.307 7.218,7.385Z" style="fill:#1a1a1a;fill-rule:nonzero;"></path>
    <path d="M263.313,229.819c-0,4.081 -3.251,7.384 -7.25,7.384c-3.969,0 -7.219,-3.303 -7.219,-7.384c-0,-4.078 3.25,-7.385 7.219,-7.385c3.999,0 7.25,3.307 7.25,7.385Z" style="fill:#1a1a1a;fill-rule:nonzero;"></path>
    <path d="M217.937,269.715c6.469,5.766 16.782,6.526 23.844,1.41c0.844,-0.597 1.25,-1.644 0.688,-2.587c-0.469,-0.816 -1.75,-1.279 -2.594,-0.679c-5.656,4.097 -13.969,3.894 -19.25,-0.815c-1.812,-1.616 -4.5,1.047 -2.688,2.671Z" style="fill:#a46e4a;fill-rule:nonzero;"></path>
    <path d="M280.938,253.175c0.281,-0.491 0.593,-0.972 0.937,-1.438l0.25,-0.328l0.125,-0.2l0.156,-0.194l0.313,-0.375c0.75,-0.852 1.531,-1.649 2.375,-2.384l0.625,-0.528l0.312,-0.253c-0.281,0.228 0.032,-0.006 0.094,-0.05c0.438,-0.341 0.906,-0.663 1.406,-0.969c0.969,-0.609 2,-1.14 3.031,-1.594c0.907,-0.393 1.188,-1.8 0.688,-2.587c-0.594,-0.944 -1.625,-1.097 -2.594,-0.675c-4.562,1.969 -8.406,5.428 -11,9.666c-0.5,0.846 -0.218,2.115 0.688,2.584c0.906,0.484 2.031,0.225 2.594,-0.675Z" style="fill:#a46e4a;fill-rule:nonzero;"></path>
    <path d="M283.625,249.784c0.344,0.194 0.656,0.407 0.938,0.632l-0.032,-0.038l0.219,0.194l0.406,0.365c0.281,0.282 0.532,0.582 0.813,0.888l-0.094,-0.097l0.188,0.244l0.312,0.5c0.219,0.322 0.406,0.656 0.563,1l0.093,0.219c0.188,0.371 -0.093,-0.291 -0.031,-0.066l0.219,0.562c0.125,0.363 0.218,0.729 0.281,1.1l0.125,0.591l-0.031,-0.144l0.031,0.36c0.063,0.984 0.813,1.937 1.875,1.887c0.969,-0.041 1.969,-0.831 1.906,-1.887c-0.281,-3.932 -2.468,-7.569 -5.875,-9.572c-0.844,-0.5 -2.093,-0.225 -2.593,0.678c-0.469,0.906 -0.219,2.05 0.687,2.584Z" style="fill:#a46e4a;fill-rule:nonzero;"></path>
    <path d="M164.156,241.687c2.563,4.288 5.157,8.575 7.719,12.863c0.531,0.875 1.719,1.2 2.594,0.678c0.875,-0.512 1.218,-1.706 0.687,-2.584c-2.594,-4.288 -5.156,-8.579 -7.75,-12.866c-0.531,-0.875 -1.687,-1.197 -2.594,-0.678c-0.874,0.512 -1.187,1.709 -0.656,2.587Z" style="fill:#a46e4a;fill-rule:nonzero;"></path>
    <path d="M164.25,253.775c1.719,-1.284 3.438,-2.569 5.157,-3.85c0.405,-0.306 0.718,-0.619 0.874,-1.131c0.125,-0.453 0.063,-1.056 -0.187,-1.457c-0.282,-0.403 -0.657,-0.759 -1.125,-0.868c-0.469,-0.107 -1.063,-0.107 -1.469,0.19c-1.719,1.285 -3.438,2.566 -5.156,3.85c-0.406,0.307 -0.75,0.619 -0.875,1.132c-0.125,0.453 -0.063,1.053 0.187,1.456c0.25,0.403 0.657,0.759 1.125,0.869c0.469,0.106 1.063,0.106 1.469,-0.191Z" style="fill:#a46e4a;fill-rule:nonzero;"></path>
    <path d="M311.844,414.4c0.562,9 1.125,18.003 1.656,27.003c0.156,2.416 3.938,2.434 3.781,0c-0.531,-9 -1.093,-18.003 -1.656,-27.003c-0.125,-2.419 -3.906,-2.434 -3.781,-0Z" style="fill:#a3362b;fill-rule:nonzero;"></path>
    <path d="M321.594,412.216c-4.907,6.5 -8.125,14.209 -9.344,22.25c-0.125,1.009 0.25,2.031 1.344,2.325c0.875,0.243 2.156,-0.304 2.312,-1.319c1.157,-7.775 4.219,-15.066 8.938,-21.35c0.625,-0.816 0.125,-2.113 -0.688,-2.585c-0.968,-0.565 -1.969,-0.14 -2.562,0.679Z" style="fill:#a3362b;fill-rule:nonzero;"></path>
    <path d="M141.938,414.941c2.093,9.45 4.156,18.903 6.25,28.353c0.531,2.375 4.156,1.372 3.656,-1.003c-2.094,-9.454 -4.188,-18.904 -6.25,-28.357c-0.531,-2.375 -4.188,-1.368 -3.656,1.007Z" style="fill:#a3362b;fill-rule:nonzero;"></path>
    <path d="M138.875,422.097c2.594,3.009 5.156,6.015 7.719,9.025c0.656,0.753 2.031,0.709 2.687,-0c0.719,-0.803 0.688,-1.869 0,-2.675c-2.593,-3.006 -5.156,-6.016 -7.718,-9.022c-0.657,-0.753 -2.032,-0.713 -2.688,-0c-0.718,0.803 -0.688,1.869 0,2.672Z" style="fill:#a3362b;fill-rule:nonzero;"></path>
    <path d="M194.656,325.625c-1.062,8.103 -1.281,16.278 -0.687,24.428c0.187,2.413 3.968,2.431 3.781,0c-0.594,-8.15 -0.375,-16.325 0.688,-24.428c0.125,-1.016 -0.969,-1.891 -1.907,-1.891c-1.125,0 -1.75,0.872 -1.875,1.891Z" style="fill:#a3362b;fill-rule:nonzero;"></path>
    <path d="M205.406,326.891c-0.218,7.012 -0.062,14.028 0.469,21.025c0.094,1.015 0.813,1.887 1.906,1.887c0.969,-0 1.969,-0.866 1.875,-1.887c-0.531,-6.997 -0.687,-14.013 -0.468,-21.025c0.062,-2.432 -3.719,-2.432 -3.782,-0Z" style="fill:#a3362b;fill-rule:nonzero;"></path>
    <path d="M215.656,326.478c-1,7.897 -0.844,15.837 0.344,23.7c0.156,1.013 1.438,1.569 2.344,1.322c1.063,-0.297 1.468,-1.313 1.312,-2.325c-1.125,-7.509 -1.187,-15.166 -0.219,-22.697c0.126,-1.012 -0.968,-1.891 -1.906,-1.891c-1.125,0 -1.75,0.875 -1.875,1.891Z" style="fill:#a3362b;fill-rule:nonzero;"></path>
    <path d="M231.531,325.619c-0.781,7.468 -0.562,14.959 0.532,22.387c0.156,1.013 1.437,1.569 2.312,1.322c1.094,-0.3 1.469,-1.312 1.313,-2.325c-1.032,-7.075 -1.094,-14.278 -0.375,-21.384c0.093,-1.019 -0.938,-1.891 -1.875,-1.891c-1.126,-0 -1.782,0.872 -1.907,1.891Z" style="fill:#a3362b;fill-rule:nonzero;"></path>
    <path d="M243.969,325.622c-0.906,6.731 -0.75,13.509 0.281,20.212c0.187,1.01 1.437,1.569 2.344,1.319c1.062,-0.294 1.469,-1.312 1.312,-2.325c-1,-6.35 -1.031,-12.837 -0.156,-19.206c0.125,-1.013 -0.969,-1.891 -1.906,-1.891c-1.125,0 -1.75,0.875 -1.875,1.891Z" style="fill:#a3362b;fill-rule:nonzero;"></path>
    <path d="M256.281,324.316c-0.375,6.731 -0.125,13.478 0.75,20.162c0.125,1.013 0.781,1.891 1.875,1.891c0.938,-0 2.031,-0.872 1.907,-1.891c-0.875,-6.684 -1.126,-13.431 -0.751,-20.162c0.126,-2.432 -3.656,-2.425 -3.781,-0Z" style="fill:#a3362b;fill-rule:nonzero;"></path>
    <path d="M283.594,265.541l-0,-0.429l-0.156,-0.728l-0.407,-0.609l-0.593,-0.391l-0.75,-0.162l-0.501,0.065c-0.312,0.091 -0.593,0.254 -0.812,0.488l-0.313,0.381c-0.156,0.297 -0.249,0.613 -0.249,0.956l-0,0.429l0.156,0.728l0.406,0.609l0.594,0.391l0.719,0.162l0.5,-0.069c0.343,-0.09 0.625,-0.25 0.843,-0.484l0.313,-0.384c0.156,-0.294 0.25,-0.613 0.25,-0.953Z" style="fill:#a3362b;fill-rule:nonzero;"></path>
    <path d="M187.656,203.087l0.657,-0.581c0.375,-0.315 1.093,-0.637 -0.25,0.163c0.468,-0.269 0.875,-0.619 1.312,-0.903c0.969,-0.597 1.937,-1.104 2.969,-1.544c-0.438,0.19 -0.906,0.381 -1.344,0.572c1.719,-0.707 3.5,-1.194 5.313,-1.46c-0.5,0.069 -1.001,0.135 -1.501,0.203c1.844,-0.237 3.688,-0.247 5.5,-0.012c-0.499,-0.069 -0.999,-0.138 -1.5,-0.203c0.688,0.097 1.344,0.222 2.001,0.378c2.875,0.684 6.281,-0.9 6.968,-3.963c0.688,-2.903 -0.874,-6.24 -3.937,-6.971c-8.625,-2.044 -17.688,0.343 -24.219,6.303c-2.187,2.006 -2.187,6.009 -0,8.018c2.344,2.157 5.688,2.141 8.031,0Z" style="fill:#474544;fill-rule:nonzero;"></path>
    <path d="M250.344,202.769c0.281,-0.044 0.562,-0.085 0.875,-0.116c0.219,-0.028 0.531,-0.012 0.594,0.006c0.093,0.016 -0.063,0.035 -0.907,-0.003c0.282,0.013 0.563,0.003 0.844,-0.009c0.281,-0.01 0.531,-0.019 0.781,-0.01c1.094,0.032 2.219,0.166 3.313,0.369c-0.5,-0.09 -0.969,-0.184 -1.438,-0.278c1.813,0.366 3.563,0.95 5.219,1.753c-0.437,-0.225 -0.906,-0.447 -1.375,-0.672c1.688,0.822 3.219,1.838 4.594,3.06c-0.375,-0.338 -0.75,-0.672 -1.125,-1.01c0.5,0.457 0.969,0.932 1.438,1.432c2.03,2.168 5.718,2.746 7.999,0.593c2.188,-2.044 2.75,-5.668 0.594,-7.997c-6,-6.49 -14.875,-9.562 -23.594,-8.243c-2.937,0.443 -5.187,3.775 -4.469,6.659c0.75,3.1 3.5,4.941 6.657,4.466Z" style="fill:#474544;fill-rule:nonzero;"></path>
    <path d="M218.75,258.138c-4.344,5.793 -7.625,12.356 -9.719,19.306c-0.687,2.337 2.938,3.334 3.657,1.006c1.968,-6.653 5.156,-12.86 9.343,-18.403c0.594,-0.819 0.125,-2.116 -0.687,-2.588c-0.969,-0.565 -1.969,-0.14 -2.594,0.679Z" style="fill:#a46e4a;fill-rule:nonzero;"></path>
    <path d="M243.25,260.469c2.938,4.062 5.5,8.378 7.688,12.897c0.437,0.921 1.749,1.165 2.562,0.678c0.969,-0.55 1.125,-1.663 0.687,-2.585c-2.156,-4.522 -4.718,-8.837 -7.656,-12.9c-0.593,-0.825 -1.656,-1.228 -2.593,-0.678c-0.813,0.478 -1.282,1.756 -0.688,2.588Z" style="fill:#a46e4a;fill-rule:nonzero;"></path>
    <path d="M230.094,291.797l0.5,0.34l-0.375,-0.293c0.281,0.225 0.531,0.478 0.75,0.762l-0.281,-0.381c0.25,0.328 0.437,0.684 0.593,1.069l-0.187,-0.453c0.156,0.384 0.281,0.784 0.344,1.193l-0.063,-0.5c0.031,0.41 0.031,0.819 0,1.231l0.063,-0.502c-0.063,0.359 -0.125,0.706 -0.282,1.04l0.188,-0.45l-0.094,0.212c-0.219,0.466 -0.312,0.941 -0.187,1.457c0.124,0.437 0.468,0.912 0.874,1.128c0.844,0.444 2.126,0.275 2.594,-0.678c0.688,-1.481 0.875,-3.156 0.375,-4.735c-0.5,-1.537 -1.5,-2.903 -2.906,-3.706c-0.875,-0.484 -2.125,-0.231 -2.594,0.678c-0.468,0.897 -0.25,2.069 0.688,2.588Z" style="fill:#a46e4a;fill-rule:nonzero;"></path>
    <path d="M219.188,224.653c4.125,-2.284 9.312,-2.412 13.5,-0.269c0.906,0.466 2.062,0.241 2.593,-0.675c0.5,-0.844 0.219,-2.122 -0.687,-2.587c-5.438,-2.769 -11.969,-2.694 -17.313,0.265c-2.125,1.182 -0.218,4.447 1.907,3.266Z" style="fill:#a3362b;fill-rule:nonzero;"></path>
    <path d="M171.812,231.741c-0.156,-0.088 -0.312,-0.172 -0.468,-0.254c-0.031,-0.4 -0.031,-0.799 -0.031,-1.203c-0,-0.943 0.031,-1.878 0.124,-2.797c0.126,1.432 0.251,2.851 0.375,4.254Z" style="fill:#aaa8a8;fill-rule:nonzero;"></path>
    <path d="M195.25,258.006c-12.875,0 -23.375,-11.765 -23.906,-26.519c0.156,0.082 0.312,0.166 0.468,0.254c-0.124,-1.403 -0.249,-2.822 -0.375,-4.254c1.219,-13.997 11.407,-24.924 23.813,-24.924c10.438,-0 19.313,7.734 22.594,18.521c-0.188,0.097 -0.375,0.197 -0.563,0.303c-1.812,1.007 -0.718,3.519 0.969,3.519c0.156,0 0.313,-0.022 0.5,-0.069c0.281,1.763 0.438,3.582 0.438,5.447c-0,15.313 -10.719,27.722 -23.938,27.722Zm-0.312,-35.572c-4.001,0 -7.25,3.307 -7.25,7.385c-0,4.081 3.249,7.384 7.25,7.384c3.968,0 7.218,-3.303 7.218,-7.384c0,-4.078 -3.25,-7.385 -7.218,-7.385Z" style="fill:#f5d5b0;fill-rule:nonzero;"></path>
    <path d="M194.938,237.203c-4.001,0 -7.25,-3.303 -7.25,-7.384c-0,-4.078 3.249,-7.385 7.25,-7.385c3.968,0 7.218,3.307 7.218,7.385c0,4.081 -3.25,7.384 -7.218,7.384Z" style="fill:#6a6a6a;fill-rule:nonzero;"></path>
    <path d="M218.25,224.906c-1.687,0 -2.781,-2.512 -0.969,-3.519c0.188,-0.106 0.375,-0.206 0.563,-0.303c0.375,1.216 0.687,2.469 0.906,3.753c-0.187,0.047 -0.344,0.069 -0.5,0.069Z" style="fill:#c37c75;fill-rule:nonzero;"></path>
    <path d="M282.156,233.297c0.188,-3.275 0.344,-6.747 0.469,-10.335c0.562,2.332 0.844,4.788 0.844,7.322c0,0.672 -0.031,1.338 -0.063,1.997c-0.437,0.306 -0.875,0.647 -1.25,1.016Z" style="fill:#aaa8a8;fill-rule:nonzero;"></path>
    <path d="M259.531,258.006c-13.218,0 -23.937,-12.409 -23.937,-27.722c-0,-13.697 8.562,-25.075 19.843,-27.322c1.219,0.307 2.407,0.716 3.563,1.225c1.156,0.628 2.25,1.357 3.281,2.188c0.282,0.297 0.594,0.6 0.876,0.916c1.156,1.228 2.843,1.946 4.499,1.946c1.25,0 2.5,-0.418 3.5,-1.353c0.375,-0.35 0.688,-0.747 0.969,-1.175c5.063,3.644 8.875,9.422 10.5,16.253c-0.125,3.588 -0.281,7.06 -0.469,10.335c0.375,-0.369 0.813,-0.71 1.25,-1.016c-0.875,14.378 -11.25,25.725 -23.875,25.725Zm-3.468,-35.572c-3.969,0 -7.219,3.307 -7.219,7.385c-0,4.081 3.25,7.384 7.219,7.384c3.999,0 7.25,-3.303 7.25,-7.384c-0,-4.078 -3.251,-7.385 -7.25,-7.385Z" style="fill:#f5d5b0;fill-rule:nonzero;"></path>
    <path d="M256.063,237.203c-3.969,0 -7.219,-3.303 -7.219,-7.384c-0,-4.078 3.25,-7.385 7.219,-7.385c3.999,0 7.25,3.307 7.25,7.385c-0,4.081 -3.251,7.384 -7.25,7.384Z" style="fill:#6a6a6a;fill-rule:nonzero;"></path>
    <path d="M267.656,209.237c-1.656,0 -3.343,-0.718 -4.499,-1.946c-0.282,-0.316 -0.594,-0.619 -0.876,-0.916c-1.031,-0.831 -2.125,-1.56 -3.281,-2.188c-1.156,-0.509 -2.344,-0.918 -3.563,-1.225c1.313,-0.262 2.688,-0.399 4.094,-0.399c4.625,-0 8.938,1.518 12.594,4.146c-0.281,0.428 -0.594,0.825 -0.969,1.175c-1,0.935 -2.25,1.353 -3.5,1.353Z" style="fill:#878685;fill-rule:nonzero;"></path>
    <path d="M193.375,203.822c-12.156,-0 -22.062,11.587 -22.062,25.831c-0,14.244 9.906,25.834 22.062,25.834c12.156,0 22.031,-11.59 22.031,-25.834c0,-14.244 -9.875,-25.831 -22.031,-25.831Zm0,55.444c-14.25,-0 -25.844,-13.285 -25.844,-29.613c0,-16.328 11.594,-29.612 25.844,-29.612c14.25,-0 25.813,13.284 25.813,29.612c-0,16.328 -11.563,29.613 -25.813,29.613Z" style="fill:#a3362b;fill-rule:nonzero;"></path>
    <path d="M258.906,203.822c-12.156,-0 -22.062,11.587 -22.062,25.831c-0,14.244 9.906,25.834 22.062,25.834c12.156,0 22.032,-11.59 22.032,-25.834c-0,-14.244 -9.876,-25.831 -22.032,-25.831Zm0,55.444c-14.25,-0 -25.843,-13.285 -25.843,-29.613c-0,-16.328 11.593,-29.612 25.843,-29.612c14.219,-0 25.813,13.284 25.813,29.612c-0,16.328 -11.594,29.613 -25.813,29.613Z" style="fill:#a3362b;fill-rule:nonzero;"></path>
    <path d="M230.25,226.075c0.844,5.247 4.344,9.606 7.594,13.815c2.5,3.232 5.031,7.026 4.375,11.054c-0.563,3.521 -3.594,6.271 -6.969,7.447c-3.343,1.171 -7.031,1.025 -10.594,0.624l5.594,-32.94Z" style="fill:#f0bf85;fill-rule:nonzero;"></path>
    <path d="M230.938,226.578c0.687,3.813 2.593,7.216 4.812,10.334c2.281,3.182 5.313,6.197 6.656,9.935c1.281,3.493 -0.031,6.803 -3.156,8.747c-3.594,2.231 -8.031,1.971 -12.062,1.531c-2.407,-0.266 -2.407,3.519 -0,3.778c4.593,0.5 9.468,0.541 13.593,-1.812c3.469,-1.982 6.094,-5.604 5.938,-9.71c-0.156,-4.725 -3.25,-8.506 -6,-12.084c-2.719,-3.547 -5.344,-7.238 -6.125,-11.725c-0.438,-2.391 -4.094,-1.375 -3.656,1.006Z" style="fill:#a46e4a;fill-rule:nonzero;"></path>
    <path d="M336.25,174.247c5.938,-6.756 17.094,-7.672 24.25,-2.281c7.25,5.453 7.75,16.334 3.062,23.593c-1.156,1.81 -2.718,3.419 -4.531,4.588c-1.187,0.762 -5.093,2.568 -5.062,-0.222c0.031,-2.385 2.625,-4.6 4.375,-5.906c2,-1.5 4.281,-2.6 6.656,-3.285c10.344,-2.956 20.719,2.053 26.031,11.182c6.531,11.281 3.5,25.409 -4.875,34.871c-1.593,1.819 1.063,4.503 2.657,2.675c9.093,-10.281 12.593,-25.206 6.343,-37.828c-5.719,-11.503 -18.562,-18.153 -31.156,-14.544c-5.312,1.522 -12.156,5.447 -13.562,11.247c-0.782,3.066 0.781,6.235 4.062,6.772c2.938,0.478 5.719,-1.04 7.937,-2.79c8.625,-6.785 10.688,-20.769 4.063,-29.6c-7.656,-10.216 -24.531,-10.685 -32.906,-1.144c-1.594,1.819 1.062,4.503 2.656,2.672Z" style="fill:#7c7a79;fill-rule:nonzero;"></path>
    <path d="M147.406,133.334c-2.094,-5.503 -6.968,-9.3 -12.625,-10.737c-6.843,-1.738 -13.937,0.1 -20.25,2.822c-10.218,4.425 -20.875,13.222 -19.156,25.578c0.813,5.731 4.281,10.969 9.938,12.806c2.312,0.753 3.312,-2.897 1,-3.647c-3.907,-1.269 -6.219,-4.909 -7.032,-8.781c-0.937,-4.419 0.313,-8.744 2.907,-12.363c2.937,-4.084 7.312,-6.99 11.781,-9.187c5.219,-2.566 11.062,-4.519 16.937,-4.059c5.313,0.415 10.875,3.418 12.875,8.574c0.844,2.248 4.5,1.269 3.625,-1.006Z" style="fill:#7c7a79;fill-rule:nonzero;"></path>
  </g>
</svg>
