<?xml version="1.0" encoding="UTF-8" standalone="no"?>
<svg preserveAspectRatio="xMidYMid slice" width="68px" height="68px" xmlns="http://www.w3.org/2000/svg" xmlns:xlink="http://www.w3.org/1999/xlink" xmlns:serif="http://www.serif.com/"   viewBox="0 0 449 449" version="1.1" xml:space="preserve" style="fill-rule:evenodd;clip-rule:evenodd;stroke-linejoin:round;stroke-miterlimit:2;">
  <clipPath id="_clip1">
    <path d="M448.625,224.3c0,123.881 -100.437,224.303 -224.312,224.303c-123.875,0 -224.313,-100.422 -224.313,-224.303c0,-123.878 100.438,-224.3 224.313,-224.3c123.875,0 224.312,100.422 224.312,224.3Z"></path>
  </clipPath>
  <g clip-path="url(#_clip1)">
    <path d="M448.625,224.3c0,123.881 -100.437,224.303 -224.312,224.303c-123.875,0 -224.313,-100.422 -224.313,-224.303c0,-123.878 100.438,-224.3 224.313,-224.3c123.875,0 224.312,100.422 224.312,224.3Z" style="fill:#fff;fill-rule:nonzero;"></path>
    <clipPath id="_clip2">
      <path d="M448.625,224.3c0,123.881 -100.437,224.303 -224.312,224.303c-123.875,0 -224.313,-100.422 -224.313,-224.303c0,-123.878 100.438,-224.3 224.313,-224.3c123.875,0 224.312,100.422 224.312,224.3Z" clip-rule="nonzero"></path>
    </clipPath>
    <g clip-path="url(#_clip2)">
      <path d="M160.094,224.275c-2.031,17.034 -3.969,34.903 2.188,50.875c2.656,6.913 6.718,13.156 10.937,19.231c2.562,3.738 5.219,7.457 8.469,10.625c7.781,7.613 18.437,11.544 29.156,12.941c10.688,1.397 21.531,0.469 32.281,-0.466c4.844,-0.422 9.844,-0.878 14.219,-3.093c4.938,-2.491 8.563,-6.944 12.031,-11.288c11.594,-14.494 23.5,-30.262 25.25,-48.872c0.562,-5.747 0.094,-11.537 -0.406,-17.287c-0.718,-8.05 -1.5,-16.088 -2.375,-24.122c-0.375,-3.403 -0.812,-19.516 -2.5,-22.478c-2,-3.55 -5.594,-5.878 -9.25,-7.553c-10.969,-5.004 -23.469,-5.272 -35.438,-4.029c-11.937,1.241 -23.78,3.897 -35.781,4.435l-48.781,41.081Z" style="fill:#241e21;fill-rule:nonzero;"></path>
      <path d="M349.969,352.544c-23.593,-13.975 -52.125,-19.572 -79.937,-24.519c-1.719,-0.3 -3.469,-0.628 -4.844,-1.572c-2.344,-1.616 2.968,-30.797 -0,-54.575l-39.719,3.291l-39.75,-3.291c-2.969,23.778 2.344,52.959 0,54.575c-1.344,0.944 -3.125,1.272 -4.812,1.572c-27.845,4.947 -56.344,10.544 -79.938,24.519c-23.594,13.972 -41.438,101.353 -37.656,126.244c23.687,-0.107 89.781,0.271 156.781,1.05l0,0.128c1.781,-0.022 3.562,-0.044 5.375,-0.066c1.781,0.022 3.594,0.044 5.375,0.066l0,-0.128c66.969,-0.779 133.093,-1.157 156.781,-1.05c3.781,-24.891 -14.094,-112.272 -37.656,-126.244Z" style="fill:#b77456;fill-rule:nonzero;"></path>
      <clipPath id="_clip3">
        <path d="M349.969,352.544c-23.593,-13.975 -52.125,-19.572 -79.937,-24.519c-1.719,-0.3 -3.469,-0.628 -4.844,-1.572c-2.344,-1.616 2.968,-30.797 -0,-54.575l-39.719,3.291l-39.75,-3.291c-2.969,23.778 2.344,52.959 0,54.575c-1.344,0.944 -3.125,1.272 -4.812,1.572c-27.845,4.947 -56.344,10.544 -79.938,24.519c-23.594,13.972 -41.438,101.353 -37.656,126.244c23.687,-0.107 89.781,0.271 156.781,1.05l0,0.128c1.781,-0.022 3.562,-0.044 5.375,-0.066c1.781,0.022 3.594,0.044 5.375,0.066l0,-0.128c66.969,-0.779 133.093,-1.157 156.781,-1.05c3.781,-24.891 -14.094,-112.272 -37.656,-126.244Z"></path>
      </clipPath>
      <g clip-path="url(#_clip3)">
        <path d="M225.438,333.931c-13.344,0 -27.25,-7.737 -39.407,-18.428c-0.468,-7.037 -1.218,-16.697 -1.218,-26.728c-0,-5.65 0.249,-11.419 0.906,-16.897l39.75,3.291l39.719,-3.291c0.687,5.478 0.937,11.247 0.937,16.897c0,9.603 -0.718,18.866 -1.156,25.812c-10.813,11.244 -24.031,19.344 -39.531,19.344Z" style="fill:#8d5239;fill-rule:nonzero;"></path>
      </g>
      <path d="M166.5,149.306c-9.125,26.253 -6.875,84.86 0,111.61l0.125,0.431c3.719,14.356 9.688,28.694 20.906,39.869c11.251,11.175 28.532,18.731 45.657,16.75c16.531,-1.919 30.437,-12.385 38.5,-24.835c8.093,-12.447 11.187,-26.75 13.437,-40.84c3.938,-24.535 2.907,-102.3 0.156,-102.5c-35.656,-2.569 -84.062,-8.785 -118.781,-1.338l0,0.853Z" style="fill:#b77456;fill-rule:nonzero;"></path>
      <path d="M283.719,239.128c0.875,-5.616 8.5,-9.125 14.656,-7.478c6.126,1.647 10.156,7.278 10.625,12.934c0.469,5.653 -2.125,11.219 -5.812,15.869c-6.094,7.753 -16.875,13.772 -27.188,11.375c1.625,-11.628 4,-23.178 7.031,-34.581l0.688,1.881Z" style="fill:#b77456;fill-rule:nonzero;"></path>
      <path d="M167.469,239.128c-0.875,-5.616 -8.531,-9.125 -14.656,-7.478c-6.125,1.647 -10.188,7.278 -10.625,12.934c-0.469,5.653 2.125,11.219 5.781,15.869c6.125,7.753 16.875,13.772 27.219,11.375c-1.657,-11.628 -4,-23.178 -7.063,-34.581l-0.656,1.881Z" style="fill:#b77456;fill-rule:nonzero;"></path>
      <path d="M286.906,256.431c3.219,-3.39 6.438,-5.934 10.407,-8.275c0.844,-0.5 1.25,-1.725 0.687,-2.584c-0.562,-0.859 -1.687,-1.216 -2.594,-0.678c-4.094,2.412 -7.875,5.406 -11.156,8.862c-0.688,0.719 -0.781,1.972 -0,2.675c0.719,0.678 1.938,0.766 2.656,0Z" style="fill:#66331f;fill-rule:nonzero;"></path>
      <path d="M290.344,254.619c1.312,1.581 2.656,3.165 3.969,4.747c0.281,0.353 0.874,0.553 1.312,0.553c0.469,-0 1.032,-0.206 1.344,-0.553c0.344,-0.36 0.593,-0.835 0.562,-1.338c-0.031,-0.525 -0.218,-0.931 -0.562,-1.334c-1.312,-1.585 -2.625,-3.166 -3.938,-4.75c-0.312,-0.35 -0.906,-0.553 -1.343,-0.553c-0.469,-0 -1.032,0.206 -1.344,0.553c-0.313,0.362 -0.563,0.834 -0.563,1.337c0.031,0.528 0.219,0.931 0.563,1.338Z" style="fill:#66331f;fill-rule:nonzero;"></path>
      <path d="M150.75,246.169c4.344,2.525 7.469,6.694 8.688,11.562c0.25,0.991 1.374,1.588 2.343,1.322c1.001,-0.278 1.563,-1.334 1.313,-2.325c-1.469,-5.769 -5.281,-10.831 -10.437,-13.822c-0.876,-0.515 -2.063,-0.203 -2.563,0.678c-0.531,0.882 -0.219,2.069 0.656,2.585Z" style="fill:#66331f;fill-rule:nonzero;"></path>
      <path d="M155.157,254.3c0.155,-0.347 0.343,-0.672 0.562,-0.975l-0.282,0.381c0.251,-0.331 0.564,-0.625 0.876,-0.884l-0.375,0.297c0.343,-0.269 0.719,-0.488 1.125,-0.66l-0.469,0.191c0.375,-0.153 0.781,-0.259 1.156,-0.316l-0.5,0.069l0.188,-0.022l0.719,-0.162l0.593,-0.391c0.344,-0.328 0.594,-0.865 0.562,-1.337c-0.031,-0.488 -0.186,-0.994 -0.562,-1.338c-0.343,-0.316 -0.844,-0.603 -1.312,-0.553c-1.188,0.125 -2.344,0.463 -3.313,1.169c-0.937,0.687 -1.75,1.544 -2.25,2.625l-0.219,0.703l0.032,0.753c0.125,0.438 0.469,0.912 0.875,1.131c0.437,0.231 0.969,0.347 1.468,0.191c0.438,-0.144 0.938,-0.431 1.126,-0.872Z" style="fill:#66331f;fill-rule:nonzero;"></path>
      <path d="M206.406,222.669c0,5.353 -4.187,9.693 -9.375,9.693c-5.187,0 -9.375,-4.34 -9.375,-9.693c0,-5.353 4.188,-9.694 9.375,-9.694c5.188,0 9.375,4.341 9.375,9.694Z" style="fill:#1a1a1a;fill-rule:nonzero;"></path>
      <path d="M263.032,223.928c-0,5.353 -4.219,9.694 -9.375,9.694c-5.188,-0 -9.407,-4.341 -9.407,-9.694c0,-5.353 4.219,-9.694 9.407,-9.694c5.156,0 9.375,4.341 9.375,9.694Z" style="fill:#1a1a1a;fill-rule:nonzero;"></path>
      <path d="M250.687,198.066c0.501,-0.65 1.094,-1.182 1.657,-1.763c0.375,-0.365 -0.5,0.353 -0.094,0.059l0.469,-0.325c0.375,-0.237 0.75,-0.456 1.125,-0.653l0.5,-0.246c-0.031,-0.032 -0.687,0.256 -0.094,0.049c0.406,-0.14 0.813,-0.274 1.219,-0.381l0.563,-0.125c0.093,-0.022 0.75,-0.131 0.187,-0.05c-0.531,0.082 0.125,0 0.219,-0.006l0.718,-0.031l1.126,0.053c-0,0.047 -0.782,-0.144 -0.157,-0.019l0.563,0.11c0.438,0.096 0.843,0.215 1.25,0.353c0.093,0.031 0.687,0.237 0.218,0.065c-0.468,-0.172 0.094,0.053 0.188,0.1c0.407,0.188 0.781,0.394 1.125,0.622l0.469,0.316c0.468,0.306 0.062,-0.081 -0.063,-0.078l0.938,0.865c0.312,0.303 0.593,0.628 0.875,0.966c1.218,1.55 4.063,1.39 5.344,-0c1.499,-1.647 1.312,-3.694 -0,-5.347c-2.813,-3.5 -7.407,-5.594 -11.876,-5.566c-4.468,0.029 -9.062,2.141 -11.812,5.685c-0.656,0.828 -1.094,1.578 -1.094,2.672c0,0.928 0.406,2.034 1.094,2.675c1.344,1.243 4.062,1.665 5.343,-0Z" style="fill:#1a1a1a;fill-rule:nonzero;"></path>
      <path d="M190.188,201.844c0.531,-0.647 1.093,-1.178 1.687,-1.76c0.344,-0.365 -0.531,0.35 -0.093,0.06l0.468,-0.325c0.344,-0.238 0.719,-0.457 1.094,-0.653l0.531,-0.25c-0.031,-0.028 -0.719,0.256 -0.125,0.053c0.407,-0.141 0.813,-0.275 1.25,-0.381l0.531,-0.126c0.126,-0.021 0.75,-0.131 0.219,-0.049c-0.531,0.081 0.094,-0 0.187,-0.01l0.72,-0.028l1.156,0.053c-0.032,0.044 -0.813,-0.147 -0.157,-0.022l0.563,0.113c0.406,0.093 0.813,0.212 1.219,0.353c0.094,0.031 0.718,0.237 0.219,0.066c-0.47,-0.172 0.125,0.053 0.218,0.099c0.375,0.185 0.75,0.394 1.125,0.622l0.469,0.313c0.469,0.306 0.031,-0.078 -0.093,-0.075l0.968,0.862c0.281,0.307 0.563,0.632 0.844,0.966c1.25,1.553 4.062,1.391 5.343,0c1.5,-1.647 1.313,-3.691 0,-5.347c-2.812,-3.5 -7.406,-5.594 -11.874,-5.562c-4.469,0.028 -9.032,2.14 -11.813,5.681c-0.625,0.828 -1.094,1.578 -1.094,2.675c0,0.928 0.407,2.034 1.094,2.672c1.375,1.244 4.062,1.668 5.344,-0Z" style="fill:#1a1a1a;fill-rule:nonzero;"></path>
      <path d="M219.625,225.903c2.344,2.222 4.688,4.444 7,6.666c1.969,1.859 4.813,3.784 5.438,6.562c1.313,5.563 -3.938,9.963 -7.657,13.138c-1.844,1.584 0.813,4.247 2.657,2.675c4.75,-4.047 9.812,-9.11 8.812,-15.925c-0.5,-3.36 -2.75,-5.522 -5.125,-7.753c-2.812,-2.678 -5.625,-5.357 -8.468,-8.038c-1.751,-1.675 -4.438,0.994 -2.657,2.675Z" style="fill:#66331f;fill-rule:nonzero;"></path>
      <path d="M210.844,259.688c4.718,3.959 10.844,5.637 16.938,5.237c6.781,-0.447 13.093,-3.197 18.906,-6.519c2.125,-1.203 0.218,-4.472 -1.907,-3.262c-9.187,5.237 -22.062,9.622 -31.25,1.868c-1.844,-1.556 -4.531,1.104 -2.687,2.676Z" style="fill:#66331f;fill-rule:nonzero;"></path>
      <path d="M227.219,285.116l0.281,0.103l-0.468,-0.191l0.718,0.431l-0.375,-0.293l0.656,0.646l-0.312,-0.381c0.219,0.285 0.406,0.588 0.531,0.916l-0.188,-0.45c0.157,0.375 0.282,0.765 0.345,1.169l-0.094,-0.503c0.062,0.353 0.062,0.706 -0,1.059l0.094,-0.5c-0.063,0.303 -0.126,0.594 -0.251,0.881l0.188,-0.453l-0.406,0.738c-0.281,0.368 -0.313,1.034 -0.188,1.456c0.094,0.437 0.438,0.912 0.844,1.128c0.437,0.234 0.968,0.35 1.469,0.194c0.5,-0.163 0.812,-0.453 1.124,-0.872c1.032,-1.353 1.188,-3.319 0.688,-4.9c-0.562,-1.794 -1.875,-3.21 -3.656,-3.822c-0.938,-0.319 -2.094,0.365 -2.313,1.319c-0.25,1.05 0.313,1.984 1.313,2.325Z" style="fill:#66331f;fill-rule:nonzero;"></path>
      <path d="M154.906,232.025c4.22,1.45 9.031,-1.278 11.188,-5.197c2.156,-3.919 2.188,-8.656 1.594,-13.084c-0.875,-6.488 -3.001,-12.81 -6.187,-18.525c5.593,3.822 13.624,-2.175 14.343,-8.903c0.687,-6.732 -3.188,-12.994 -6.906,-18.644c3.531,0.212 7.281,-0.572 9.874,-2.969c2.626,-2.397 3.657,-6.65 1.719,-9.609c3.188,1.031 6.563,2.072 9.845,1.481c3.311,-0.587 6.499,-3.397 6.25,-6.747c6.718,7.431 19.718,7.825 26.843,0.816c3.031,4.687 8.938,6.893 14.5,6.762c5.594,-0.134 10.906,-2.259 15.937,-4.65c3.875,7.363 13.938,10.713 21.469,7.144c0.907,-0.437 1.875,-1.062 2.125,-2.053c0.25,-0.988 -0.781,-2.209 -1.687,-1.756c0.75,3.356 2.906,6.375 5.812,8.212c-5.938,7.253 -5.906,18.744 0.094,25.956c-5.437,6.322 -2.688,17.716 5.062,20.829c-3.593,3.04 -4.031,9.09 -0.937,12.625c-3.031,-1.21 -5.281,3.924 -3.157,6.387c2.157,2.463 5.907,2.484 9.157,2.094c3.219,-0.391 6.781,-0.928 9.5,0.884c2.468,-9.262 2.906,-19.05 1.313,-28.5c3.749,-0.784 6.906,-3.894 7.749,-7.628c0.469,-2.109 0.251,-4.303 0.313,-6.466c0.25,-6.503 3.157,-12.606 4.219,-19.028c1.031,-6.425 -0.531,-14.212 -6.407,-17.015c3.813,-0.157 6.532,-4.244 6.407,-8.05c-0.126,-3.804 -2.375,-7.21 -4.938,-10.038c-0.562,-0.628 -1.187,-1.45 -0.874,-2.231c0.249,-0.619 0.999,-0.856 1.625,-1.091c6.031,-2.247 8.374,-10.025 6.718,-16.237c-1.625,-6.216 -6.156,-11.191 -10.532,-15.9c2.626,-0.353 4.532,-2.922 4.907,-5.553c0.375,-2.632 -0.5,-5.278 -1.625,-7.691c-3.344,-7.222 -8.969,-13.372 -15.844,-17.353c1.562,-7.344 -2.906,-15.506 -9.937,-18.138c0.531,0.694 1.781,0.063 1.875,-0.806c0.125,-0.869 -0.469,-1.656 -1.063,-2.303c-5.594,-6.125 -14.5,-9.019 -22.625,-7.347c-2.062,0.422 -4.094,1.119 -6.219,1.084c-2.437,-0.037 -4.75,-1.053 -7.062,-1.8c-5.812,-1.868 -12.156,-2.078 -18.094,-0.603c-2.625,0.653 -5.75,2.678 -4.937,5.266c-6.126,-2.938 -13.782,-2.434 -19.5,1.284c-0.906,0.604 -1.844,1.385 -2.032,2.466c-0.187,1.084 0.844,2.356 1.876,1.953c-7.719,-4.394 -18.438,-2.594 -24.282,4.088c-4.468,-3.357 -10.718,0.031 -15.187,3.365c-6.125,4.569 -12.25,9.138 -18.375,13.707c-1.813,1.349 -3.687,2.8 -4.594,4.878c-0.875,2.078 -0.313,4.959 1.781,5.834c-3.375,4.722 -6.844,9.6 -8.218,15.244c-1.344,5.644 -0.126,12.315 4.468,15.85c-7.031,6.8 -6.156,19.925 1.719,25.74c-5.688,5.547 -11.844,12.753 -9.75,20.403c0.531,1.96 1.593,3.797 1.719,5.826c0.156,2.884 -1.657,5.584 -1.626,8.475c0.094,6.206 8.094,9.437 9.751,15.421c1.031,3.778 0.094,9.216 3.812,10.435c-3.062,1.612 -3.406,6.625 -0.625,8.65c-3.062,1.134 -4.344,5.047 -3.625,8.253c0.688,3.206 2.875,5.856 5,8.369c2.188,2.596 4.375,5.193 6.532,7.787l-0.251,-1.653Z" style="fill:#241e21;fill-rule:nonzero;"></path>
      <path d="M171.657,327c12.718,17.875 33.594,33.525 55.5,34.669c21.905,1.144 61.406,-33.972 62.968,-34.669c1.594,-0.709 49.719,15.013 65.719,30.662c11.968,11.719 19.406,27.435 23.718,43.629c4.282,16.19 5.657,32.997 7,49.693c-23.093,1.475 -46.312,1.413 -69.406,-0.184c-0.687,14.434 -1.343,28.869 -1.999,43.303c-21.563,7.113 -44.751,6.585 -67.438,5.988c-37.406,-0.991 -74.813,-1.982 -112.125,-5.085c0.218,-14.05 -0.156,-28.109 -1.063,-42.131c-27.124,-3.481 -54.499,-4.972 -81.843,-4.459c2.125,-18.257 4.281,-36.682 10.281,-54.057c6.031,-17.372 16.25,-33.846 31.562,-44.037c14.282,-9.525 77.126,-23.322 77.126,-23.322Z" style="fill:#87c3a9;fill-rule:nonzero;"></path>
      <path d="M133.844,375.478c2.281,24.206 1.813,48.622 -1.375,72.725c-0.125,1.019 0.968,1.878 1.906,1.891c1.125,0.009 1.75,-0.885 1.875,-1.891c3.188,-24.103 3.656,-48.519 1.375,-72.725c-0.219,-2.4 -4,-2.425 -3.781,0Z" style="fill:#fff;fill-rule:nonzero;"></path>
      <path d="M126.969,392.503c3.25,4.603 5.812,9.638 7.594,14.991c0.312,0.969 1.281,1.6 2.312,1.319c0.938,-0.26 1.656,-1.35 1.312,-2.322c-1.843,-5.657 -4.531,-11.028 -7.936,-15.897c-0.595,-0.835 -1.657,-1.225 -2.594,-0.678c-0.844,0.481 -1.281,1.747 -0.688,2.587Z" style="fill:#fff;fill-rule:nonzero;"></path>
      <path d="M316.25,375.5c1.031,23.362 1.375,46.747 1.125,70.131c-0.031,2.432 3.75,2.435 3.781,0c0.251,-23.384 -0.125,-46.769 -1.124,-70.131c-0.125,-2.422 -3.907,-2.437 -3.782,0Z" style="fill:#fff;fill-rule:nonzero;"></path>
      <path d="M324.751,383.969c-0.719,4.712 -2.563,9.206 -5.501,12.918c-0.625,0.797 -0.781,1.891 0,2.672c0.657,0.657 2.031,0.807 2.688,0c3.344,-4.24 5.625,-9.225 6.469,-14.587c0.125,-1.006 -0.282,-2.031 -1.344,-2.325c-0.875,-0.247 -2.157,0.306 -2.312,1.322Z" style="fill:#fff;fill-rule:nonzero;"></path>
      <path d="M322.25,440.438l61.782,-0c2.437,-0 2.437,-3.779 -0,-3.779l-61.782,0c-2.437,0 -2.437,3.779 0,3.779Z" style="fill:#fff;fill-rule:nonzero;"></path>
      <path d="M135,436.016l-76.563,-0c-2.436,-0 -2.436,3.781 0,3.781l76.563,-0c2.437,-0 2.437,-3.781 -0,-3.781Z" style="fill:#fff;fill-rule:nonzero;"></path>
      <path d="M160,333.141c13.375,17.515 30.688,32.793 52.282,38.89c10.656,3 21.937,3.603 32.75,1.147c9.812,-2.234 18.999,-6.872 27.125,-12.772c9.437,-6.875 17.624,-15.334 24.843,-24.487c1.5,-1.888 -1.156,-4.581 -2.687,-2.672c-11.938,15.116 -27,29.303 -45.782,35.084c-20.843,6.407 -42.937,0.163 -60.281,-12.228c-9.593,-6.856 -17.844,-15.525 -24.969,-24.872c-1.468,-1.906 -4.75,-0.025 -3.281,1.91Z" style="fill:#fff;fill-rule:nonzero;"></path>
      <path d="M140.625,453.763c1.157,-4.051 2.657,-8.441 6.032,-11.197c2.906,-2.347 6.875,-3.163 10.062,-0.947c4.782,3.347 6.437,9.919 11.782,12.665c2.655,1.36 5.718,1.379 8.406,0.066c2.594,-1.278 4.468,-3.669 6.156,-5.931c1.75,-2.325 3.406,-4.919 5.719,-6.713c3.125,-2.384 6.812,-1.884 10.062,-0.078c7.25,4.006 12.406,12.835 21.5,12.969c4.156,0.059 7.25,-2.375 9.781,-5.403c2.594,-3.078 5.344,-5.791 9.156,-7.356c3.407,-1.41 7.407,-1.794 10.75,0.024c3.031,1.657 5.22,4.497 7.75,6.791c2.469,2.266 5.469,4.178 8.969,4.06c3.938,-0.132 7.125,-2.607 9.719,-5.363c3.032,-3.222 5.719,-7.622 10.281,-8.816c4.438,-1.168 6.219,3.2 8.157,6.275c2.25,3.594 5.562,6.075 9.999,5.525c4.625,-0.578 8.657,-3.7 11.969,-6.778c1.812,-1.653 -0.875,-4.322 -2.656,-2.675c-2.812,2.591 -6.625,5.825 -10.687,5.769c-3.781,-0.053 -5.313,-3.775 -7.032,-6.544c-1.906,-3.134 -4.75,-5.772 -8.687,-5.544c-4.125,0.241 -7.75,3.016 -10.438,5.991c-2.5,2.778 -4.813,6.369 -8.375,7.863c-3.312,1.387 -6.281,-0.347 -8.719,-2.575c-2.594,-2.4 -4.875,-5.232 -7.969,-7.041c-3.343,-1.947 -7.249,-2.325 -10.968,-1.547c-3.813,0.797 -7.375,2.822 -10.281,5.391c-2.907,2.54 -4.969,6.984 -8.938,7.978c-4.062,1.022 -8.375,-1.863 -11.374,-4.325c-3.344,-2.766 -6.344,-5.969 -10.219,-8.056c-3.594,-1.935 -7.72,-2.728 -11.563,-1.007c-2.75,1.235 -4.812,3.529 -6.625,5.872c-2.719,3.525 -6.719,10.813 -12.218,7.766c-2.407,-1.335 -4.001,-3.909 -5.563,-6.084c-1.781,-2.457 -3.626,-4.963 -6.219,-6.622c-3.312,-2.122 -7.375,-2.06 -10.875,-0.482c-3.875,1.735 -6.594,5.175 -8.313,8.966c-0.906,1.975 -1.562,4.022 -2.156,6.106c-0.687,2.344 2.969,3.347 3.625,1.007Z" style="fill:#498469;fill-rule:nonzero;"></path>
      <path d="M170.032,427.784c0.062,1.194 0.155,2.372 0.718,3.447c0.531,0.985 1.438,1.622 2.438,2.019c0.874,0.344 1.843,0.337 2.75,0.169c0.875,-0.163 1.812,-0.663 2.375,-1.338c1.406,-1.603 1.531,-3.887 0.531,-5.728c-0.437,-0.812 -1.187,-1.565 -2.031,-1.95c-1.063,-0.484 -2.156,-0.597 -3.313,-0.366c-1,0.204 -2,0.782 -2.718,1.525c-0.344,0.379 -0.688,0.819 -0.907,1.301l-0.219,0.518c-0.093,0.325 -0.062,0.678 0,1.007c0.063,0.299 0.219,0.49 0.407,0.721l0.562,0.81c0.312,0.409 0.625,0.728 1.156,0.868c0.438,0.125 1.032,0.069 1.438,-0.19c0.406,-0.263 0.75,-0.65 0.875,-1.131c0.093,-0.466 0.093,-1.05 -0.187,-1.457c-0.282,-0.359 -0.532,-0.718 -0.782,-1.078c0.063,0.485 0.126,0.969 0.187,1.457l0.032,-0.069l-0.187,0.453l0.374,-0.675l-0.28,0.381l0.593,-0.603l-0.375,0.297c0.25,-0.191 0.532,-0.344 0.812,-0.469l-0.437,0.191c0.281,-0.119 0.562,-0.2 0.875,-0.247l-0.5,0.069c0.281,-0.038 0.563,-0.041 0.844,-0.007l-0.5,-0.068l0.75,0.203l-0.438,-0.191l0.594,0.35l-0.375,-0.297l0.531,0.535l-0.312,-0.382l0.406,0.713l-0.187,-0.453c0.124,0.278 0.187,0.565 0.249,0.862l-0.062,-0.503c0.031,0.297 0.031,0.591 -0,0.888l0.062,-0.504l-0.187,0.719l0.187,-0.453l-0.312,0.531l0.281,-0.384l-0.468,0.469l0.405,-0.294l-0.562,0.325l0.438,-0.191l-0.75,0.213l0.5,-0.069c-0.282,0.038 -0.594,0.041 -0.875,0.006l0.499,0.069c-0.28,-0.041 -0.531,-0.112 -0.812,-0.225l0.438,0.191l-0.531,-0.325l0.374,0.297l-0.468,-0.46l0.312,0.385l-0.312,-0.55l0.187,0.45c-0.156,-0.344 -0.218,-0.7 -0.281,-1.069l0.063,0.503c-0.063,-0.403 -0.063,-0.809 -0.094,-1.216c-0.031,-0.987 -0.844,-1.937 -1.875,-1.89c-1.001,0.047 -1.938,0.831 -1.906,1.89Z" style="fill:#498469;fill-rule:nonzero;"></path>
      <path d="M298.875,427.637c0.157,2.316 1.688,4.107 3.813,4.913c2,0.756 4.312,0.094 5.594,-1.578c0.531,-0.703 0.937,-1.528 1.093,-2.413c0.125,-0.968 0.156,-1.975 -0.218,-2.9c-0.438,-1.04 -1.094,-1.94 -2.063,-2.506c-0.813,-0.465 -1.812,-0.706 -2.75,-0.637c-2.218,0.162 -4.438,1.559 -4.938,3.847c-0.093,0.496 -0.062,1.009 0.188,1.456c0.219,0.39 0.688,0.765 1.125,0.868c0.969,0.216 2.094,-0.287 2.343,-1.321l0.157,-0.503l-0.219,0.453l0.375,-0.616l-0.313,0.384l0.626,-0.593l-0.407,0.293c0.251,-0.184 0.531,-0.337 0.813,-0.459l-0.437,0.191c0.312,-0.128 0.625,-0.216 0.937,-0.263l-0.5,0.069c0.313,-0.041 0.625,-0.044 0.938,-0.009l-0.501,-0.069c0.282,0.04 0.532,0.109 0.813,0.218l-0.469,-0.19l0.625,0.365l-0.375,-0.293l0.469,0.472l-0.282,-0.382l0.376,0.682l-0.188,-0.453c0.094,0.268 0.188,0.543 0.219,0.828l-0.063,-0.504c0.032,0.335 0.032,0.669 0,1.004l0.063,-0.504c-0.031,0.357 -0.125,0.704 -0.282,1.038l0.188,-0.453c-0.125,0.287 -0.281,0.553 -0.468,0.803l0.312,-0.384l-0.563,0.556l0.376,-0.297l-0.657,0.369l0.469,-0.191l-0.687,0.185l0.499,-0.066c-0.312,0.037 -0.593,0.037 -0.875,0.003l0.5,0.066c-0.343,-0.047 -0.656,-0.135 -0.968,-0.266l0.437,0.191c-0.312,-0.138 -0.593,-0.31 -0.875,-0.516l0.375,0.297l-0.718,-0.722l0.312,0.384l-0.437,-0.746l0.187,0.449l-0.219,-0.762l0.063,0.503l-0.031,-0.291c-0.032,-0.503 -0.188,-0.974 -0.531,-1.337c-0.345,-0.328 -0.876,-0.575 -1.345,-0.553c-0.968,0.044 -1.968,0.831 -1.906,1.89Z" style="fill:#498469;fill-rule:nonzero;"></path>
    </g>
  </g>
</svg>
